<svg width="533" height="819" viewBox="0 0 533 819" fill="none" xmlns="http://www.w3.org/2000/svg">
<line x1="533" y1="19.5" x2="6.09914e-05" y2="19.5" stroke="#22232F" stroke-opacity="0.05"/>
<line x1="533" y1="40.5" x2="6.09914e-05" y2="40.5" stroke="#22232F" stroke-opacity="0.05"/>
<line x1="533" y1="61.5" x2="6.09914e-05" y2="61.5" stroke="#22232F" stroke-opacity="0.05"/>
<line x1="533" y1="82.5" x2="6.09914e-05" y2="82.5" stroke="#22232F" stroke-opacity="0.05"/>
<line x1="533" y1="103.5" x2="6.09914e-05" y2="103.5" stroke="#22232F" stroke-opacity="0.05"/>
<line x1="533" y1="124.5" x2="6.09914e-05" y2="124.5" stroke="#22232F" stroke-opacity="0.05"/>
<line x1="533" y1="145.5" x2="6.09914e-05" y2="145.5" stroke="#22232F" stroke-opacity="0.05"/>
<line x1="533" y1="166.5" x2="6.09914e-05" y2="166.5" stroke="#22232F" stroke-opacity="0.05"/>
<line x1="533" y1="187.5" x2="6.09914e-05" y2="187.5" stroke="#22232F" stroke-opacity="0.05"/>
<line x1="533" y1="208.5" x2="6.09914e-05" y2="208.5" stroke="#22232F" stroke-opacity="0.05"/>
<line x1="533" y1="229.5" x2="6.09914e-05" y2="229.5" stroke="#22232F" stroke-opacity="0.05"/>
<line x1="533" y1="250.5" x2="6.09914e-05" y2="250.5" stroke="#22232F" stroke-opacity="0.05"/>
<line x1="533" y1="271.5" x2="6.09914e-05" y2="271.5" stroke="#22232F" stroke-opacity="0.05"/>
<line x1="533" y1="292.5" x2="6.09914e-05" y2="292.5" stroke="#22232F" stroke-opacity="0.05"/>
<line x1="533" y1="313.5" x2="6.09914e-05" y2="313.5" stroke="#22232F" stroke-opacity="0.05"/>
<line x1="533" y1="334.5" x2="6.09914e-05" y2="334.5" stroke="#22232F" stroke-opacity="0.05"/>
<line x1="533" y1="355.5" x2="6.09914e-05" y2="355.5" stroke="#22232F" stroke-opacity="0.05"/>
<line x1="533" y1="375.5" x2="6.09914e-05" y2="375.5" stroke="#22232F" stroke-opacity="0.05"/>
<line x1="533" y1="395.5" x2="6.09914e-05" y2="395.5" stroke="#22232F" stroke-opacity="0.05"/>
<line x1="533" y1="416.5" x2="6.09914e-05" y2="416.5" stroke="#22232F" stroke-opacity="0.05"/>
<line x1="533" y1="437.5" x2="6.09914e-05" y2="437.5" stroke="#22232F" stroke-opacity="0.05"/>
<line x1="533" y1="458.5" x2="6.09914e-05" y2="458.5" stroke="#22232F" stroke-opacity="0.05"/>
<line x1="533" y1="479.5" x2="6.09914e-05" y2="479.5" stroke="#22232F" stroke-opacity="0.05"/>
<line x1="533" y1="500.5" x2="6.09914e-05" y2="500.5" stroke="#22232F" stroke-opacity="0.05"/>
<line x1="533" y1="521.5" x2="6.09914e-05" y2="521.5" stroke="#22232F" stroke-opacity="0.05"/>
<line x1="533" y1="542.5" x2="6.09914e-05" y2="542.5" stroke="#22232F" stroke-opacity="0.05"/>
<line x1="533" y1="563.5" x2="6.09914e-05" y2="563.5" stroke="#22232F" stroke-opacity="0.05"/>
<line x1="533" y1="584.5" x2="6.09914e-05" y2="584.5" stroke="#22232F" stroke-opacity="0.05"/>
<line x1="533" y1="605.5" x2="6.09914e-05" y2="605.5" stroke="#22232F" stroke-opacity="0.05"/>
<line x1="533" y1="626.5" x2="6.09914e-05" y2="626.5" stroke="#22232F" stroke-opacity="0.05"/>
<line x1="533" y1="647.5" x2="6.09914e-05" y2="647.5" stroke="#22232F" stroke-opacity="0.05"/>
<line x1="533" y1="668.5" x2="6.09914e-05" y2="668.5" stroke="#22232F" stroke-opacity="0.05"/>
<line x1="533" y1="689.5" x2="6.09914e-05" y2="689.5" stroke="#22232F" stroke-opacity="0.05"/>
<line x1="533" y1="710.5" x2="6.09914e-05" y2="710.5" stroke="#22232F" stroke-opacity="0.05"/>
<line x1="533" y1="731.5" x2="6.09914e-05" y2="731.5" stroke="#22232F" stroke-opacity="0.05"/>
<line x1="533" y1="751.5" x2="6.09914e-05" y2="751.5" stroke="#22232F" stroke-opacity="0.05"/>
<path d="M328.194 819L328.194 -5.72205e-06" stroke="#22232F" stroke-opacity="0.05"/>
<line x1="308.984" y1="819" x2="308.984" y2="-1.46216e-07" stroke="#22232F" stroke-opacity="0.05"/>
<line x1="287.744" y1="819" x2="287.744" y2="-1.46216e-07" stroke="#22232F" stroke-opacity="0.05"/>
<line x1="266.506" y1="819" x2="266.506" y2="-1.46216e-07" stroke="#22232F" stroke-opacity="0.05"/>
<line x1="245.267" y1="819" x2="245.267" y2="-1.46216e-07" stroke="#22232F" stroke-opacity="0.05"/>
<line x1="224.027" y1="819" x2="224.027" y2="-1.46216e-07" stroke="#22232F" stroke-opacity="0.05"/>
<line x1="202.789" y1="819" x2="202.789" y2="-1.46216e-07" stroke="#22232F" stroke-opacity="0.05"/>
<line x1="453.623" y1="819" x2="453.623" y2="-1.46216e-07" stroke="#22232F" stroke-opacity="0.05"/>
<line x1="432.384" y1="819" x2="432.384" y2="-1.46216e-07" stroke="#22232F" stroke-opacity="0.05"/>
<line x1="411.145" y1="819" x2="411.145" y2="-1.46216e-07" stroke="#22232F" stroke-opacity="0.05"/>
<line x1="390.906" y1="819" x2="390.906" y2="-1.46216e-07" stroke="#22232F" stroke-opacity="0.05"/>
<line x1="369.666" y1="819" x2="369.666" y2="-1.46216e-07" stroke="#22232F" stroke-opacity="0.05"/>
<line x1="348.428" y1="819" x2="348.428" y2="-1.46216e-07" stroke="#22232F" stroke-opacity="0.05"/>
<path d="M474 819L474 -5.72205e-06" stroke="#4FB7E3" stroke-opacity="0.1" stroke-width="10" stroke-miterlimit="2.9987" stroke-dasharray="3 3"/>
<line x1="53" y1="819" x2="53.0001" y2="-1.46216e-06" stroke="#4FB7E3" stroke-opacity="0.1" stroke-width="10" stroke-miterlimit="2.9987" stroke-dasharray="3 3"/>
<path d="M182.555 819L182.555 -5.72205e-06" stroke="#22232F" stroke-opacity="0.05"/>
<line x1="163.344" y1="819" x2="163.344" y2="-1.46216e-07" stroke="#22232F" stroke-opacity="0.05"/>
<line x1="142.105" y1="819" x2="142.106" y2="-1.46216e-07" stroke="#22232F" stroke-opacity="0.05"/>
<line x1="120.866" y1="819" x2="120.866" y2="-1.46216e-07" stroke="#22232F" stroke-opacity="0.05"/>
<line x1="99.627" y1="819" x2="99.627" y2="-1.46216e-07" stroke="#22232F" stroke-opacity="0.05"/>
<line x1="78.3887" y1="819" x2="78.3887" y2="-1.46216e-07" stroke="#22232F" stroke-opacity="0.05"/>
</svg>
