<svg width="720" height="211" viewBox="0 0 720 211" fill="none" xmlns="http://www.w3.org/2000/svg">
<rect width="720" height="211" fill="#4FB7E3"/>
<line x1="11.5" y1="2.18557e-08" x2="11.5" y2="205" stroke="white" stroke-opacity="0.06"/>
<line x1="31.5" y1="2.18557e-08" x2="31.5" y2="205" stroke="white" stroke-opacity="0.06"/>
<line x1="51.5" y1="2.18557e-08" x2="51.5" y2="205" stroke="white" stroke-opacity="0.06"/>
<line x1="72.5" y1="2.18557e-08" x2="72.5" y2="205" stroke="white" stroke-opacity="0.06"/>
<line x1="93.5" y1="2.18557e-08" x2="93.5" y2="205" stroke="white" stroke-opacity="0.06"/>
<line x1="114.5" y1="2.18557e-08" x2="114.5" y2="205" stroke="white" stroke-opacity="0.06"/>
<line x1="135.5" y1="2.18557e-08" x2="135.5" y2="205" stroke="white" stroke-opacity="0.06"/>
<line x1="156.5" y1="2.18557e-08" x2="156.5" y2="205" stroke="white" stroke-opacity="0.06"/>
<line x1="177.5" y1="2.18557e-08" x2="177.5" y2="205" stroke="white" stroke-opacity="0.06"/>
<line x1="198.5" y1="2.18557e-08" x2="198.5" y2="205" stroke="white" stroke-opacity="0.06"/>
<line x1="219.5" y1="2.18557e-08" x2="219.5" y2="205" stroke="white" stroke-opacity="0.06"/>
<line x1="240.5" y1="2.18557e-08" x2="240.5" y2="205" stroke="white" stroke-opacity="0.06"/>
<line x1="261.5" y1="2.18557e-08" x2="261.5" y2="205" stroke="white" stroke-opacity="0.06"/>
<line x1="282.5" y1="2.18557e-08" x2="282.5" y2="205" stroke="white" stroke-opacity="0.06"/>
<line x1="299.5" y1="2.18557e-08" x2="299.5" y2="205" stroke="white" stroke-opacity="0.06"/>
<line x1="320.5" y1="2.18557e-08" x2="320.5" y2="205" stroke="white" stroke-opacity="0.06"/>
<line x1="341.5" y1="2.18557e-08" x2="341.5" y2="205" stroke="white" stroke-opacity="0.06"/>
<line x1="362.5" y1="2.18557e-08" x2="362.5" y2="205" stroke="white" stroke-opacity="0.06"/>
<line x1="383.5" y1="2.18557e-08" x2="383.5" y2="205" stroke="white" stroke-opacity="0.06"/>
<line x1="404.5" y1="2.18557e-08" x2="404.5" y2="205" stroke="white" stroke-opacity="0.06"/>
<line x1="425.5" y1="2.18557e-08" x2="425.5" y2="205" stroke="white" stroke-opacity="0.06"/>
<line x1="446.5" y1="2.18557e-08" x2="446.5" y2="205" stroke="white" stroke-opacity="0.06"/>
<line x1="467.5" y1="2.18557e-08" x2="467.5" y2="205" stroke="white" stroke-opacity="0.06"/>
<line x1="488.5" y1="2.18557e-08" x2="488.5" y2="205" stroke="white" stroke-opacity="0.06"/>
<line x1="509.5" y1="2.18557e-08" x2="509.5" y2="205" stroke="white" stroke-opacity="0.06"/>
<line x1="530.5" y1="2.18557e-08" x2="530.5" y2="205" stroke="white" stroke-opacity="0.06"/>
<line x1="551.5" y1="2.18557e-08" x2="551.5" y2="205" stroke="white" stroke-opacity="0.06"/>
<line x1="572.5" y1="2.18557e-08" x2="572.5" y2="205" stroke="white" stroke-opacity="0.06"/>
<line x1="593.5" y1="2.18557e-08" x2="593.5" y2="205" stroke="white" stroke-opacity="0.06"/>
<line x1="614.5" y1="2.18557e-08" x2="614.5" y2="205" stroke="white" stroke-opacity="0.06"/>
<line x1="635.5" y1="2.18557e-08" x2="635.5" y2="205" stroke="white" stroke-opacity="0.06"/>
<line x1="655.5" y1="2.18557e-08" x2="655.5" y2="205" stroke="white" stroke-opacity="0.06"/>
<line x1="675.5" y1="2.18557e-08" x2="675.5" y2="205" stroke="white" stroke-opacity="0.06"/>
<line x1="696.5" y1="2.18557e-08" x2="696.5" y2="205" stroke="white" stroke-opacity="0.06"/>
<line x1="720" y1="22.5" x2="-1.13318e-07" y2="22.5" stroke="white" stroke-opacity="0.06"/>
<line x1="720" y1="43.5" x2="-1.13318e-07" y2="43.5" stroke="white" stroke-opacity="0.06"/>
<line x1="720" y1="64.5" x2="-1.13318e-07" y2="64.5" stroke="white" stroke-opacity="0.06"/>
<line x1="720" y1="85.5" x2="-1.13318e-07" y2="85.5" stroke="white" stroke-opacity="0.06"/>
<line x1="720" y1="106.5" x2="-1.13318e-07" y2="106.5" stroke="white" stroke-opacity="0.06"/>
<line x1="720" y1="127.5" x2="-1.13318e-07" y2="127.5" stroke="white" stroke-opacity="0.06"/>
<line x1="720" y1="148.5" x2="-1.13318e-07" y2="148.5" stroke="white" stroke-opacity="0.06"/>
<line x1="720" y1="169.5" x2="-1.13318e-07" y2="169.5" stroke="white" stroke-opacity="0.06"/>
<line x1="720" y1="190.5" x2="-1.13318e-07" y2="190.5" stroke="white" stroke-opacity="0.06"/>
</svg>
