<svg width="1440" height="958" viewBox="0 0 1440 958" fill="none" xmlns="http://www.w3.org/2000/svg">
<g opacity="0.03">
<line x1="19.5" y1="0.579102" x2="19.5" y2="957.575" stroke="#494950"/>
<line x1="40.5" y1="0.579102" x2="40.5" y2="957.575" stroke="#494950"/>
<line x1="61.5" y1="0.579102" x2="61.5" y2="957.575" stroke="#494950"/>
<line x1="82.5" y1="0.579102" x2="82.5" y2="957.575" stroke="#494950"/>
<line x1="103.5" y1="0.579102" x2="103.5" y2="957.575" stroke="#494950"/>
<line x1="124.5" y1="0.579102" x2="124.5" y2="957.575" stroke="#494950"/>
<line x1="145.5" y1="0.579102" x2="145.5" y2="957.575" stroke="#494950"/>
<line x1="166.5" y1="0.579102" x2="166.5" y2="957.575" stroke="#494950"/>
<line x1="187.5" y1="0.579102" x2="187.5" y2="957.575" stroke="#494950"/>
<line x1="208.5" y1="0.579102" x2="208.5" y2="957.575" stroke="#494950"/>
<line x1="229.5" y1="0.579102" x2="229.5" y2="957.575" stroke="#494950"/>
<line x1="250.5" y1="0.579102" x2="250.5" y2="957.575" stroke="#494950"/>
<line x1="271.5" y1="0.579102" x2="271.5" y2="957.575" stroke="#494950"/>
<line x1="292.5" y1="0.579102" x2="292.5" y2="957.575" stroke="#494950"/>
<line x1="313.5" y1="0.579102" x2="313.5" y2="957.575" stroke="#494950"/>
<line x1="334.5" y1="0.579102" x2="334.5" y2="957.575" stroke="#494950"/>
<line x1="355.5" y1="0.579102" x2="355.5" y2="957.575" stroke="#494950"/>
<line x1="375.5" y1="0.579102" x2="375.5" y2="957.575" stroke="#494950"/>
<line x1="395.5" y1="0.579102" x2="395.5" y2="957.575" stroke="#494950"/>
<line x1="416.5" y1="0.579102" x2="416.5" y2="957.575" stroke="#494950"/>
<line x1="437.5" y1="0.579102" x2="437.5" y2="957.575" stroke="#494950"/>
<line x1="458.5" y1="0.579102" x2="458.5" y2="957.575" stroke="#494950"/>
<line x1="479.5" y1="0.579102" x2="479.5" y2="957.575" stroke="#494950"/>
<line x1="500.5" y1="0.579102" x2="500.5" y2="957.575" stroke="#494950"/>
<line x1="521.5" y1="0.579102" x2="521.5" y2="957.575" stroke="#494950"/>
<line x1="542.5" y1="0.579102" x2="542.5" y2="957.575" stroke="#494950"/>
<line x1="563.5" y1="0.579102" x2="563.5" y2="957.575" stroke="#494950"/>
<line x1="584.5" y1="0.579102" x2="584.5" y2="957.575" stroke="#494950"/>
<line x1="605.5" y1="0.579102" x2="605.5" y2="957.575" stroke="#494950"/>
<line x1="626.5" y1="0.579102" x2="626.5" y2="957.575" stroke="#494950"/>
<line x1="647.5" y1="0.579102" x2="647.5" y2="957.575" stroke="#494950"/>
<line x1="668.5" y1="0.579102" x2="668.5" y2="957.575" stroke="#494950"/>
<line x1="689.5" y1="0.579102" x2="689.5" y2="957.575" stroke="#494950"/>
<line x1="710.5" y1="0.579102" x2="710.5" y2="957.575" stroke="#494950"/>
<line x1="731.5" y1="0.579102" x2="731.5" y2="957.575" stroke="#494950"/>
<line x1="751.5" y1="0.579102" x2="751.5" y2="957.575" stroke="#494950"/>
<line x1="771.5" y1="0.579102" x2="771.5" y2="957.575" stroke="#494950"/>
<line x1="792.5" y1="0.579102" x2="792.5" y2="957.575" stroke="#494950"/>
<line x1="813.5" y1="0.579102" x2="813.5" y2="957.575" stroke="#494950"/>
<line x1="834.5" y1="0.579102" x2="834.5" y2="957.575" stroke="#494950"/>
<line x1="855.5" y1="0.579102" x2="855.5" y2="957.575" stroke="#494950"/>
<line x1="876.5" y1="0.579102" x2="876.5" y2="957.575" stroke="#494950"/>
<line x1="897.5" y1="0.579102" x2="897.5" y2="957.575" stroke="#494950"/>
<line x1="918.5" y1="0.579102" x2="918.5" y2="957.575" stroke="#494950"/>
<line x1="939.5" y1="0.579102" x2="939.5" y2="957.575" stroke="#494950"/>
<line x1="960.5" y1="0.579102" x2="960.5" y2="957.575" stroke="#494950"/>
<line x1="981.5" y1="0.579102" x2="981.5" y2="957.575" stroke="#494950"/>
<line x1="1002.5" y1="0.579102" x2="1002.5" y2="957.575" stroke="#494950"/>
<line x1="1019.5" y1="0.579102" x2="1019.5" y2="957.575" stroke="#494950"/>
<line x1="1040.5" y1="0.579102" x2="1040.5" y2="957.575" stroke="#494950"/>
<line x1="1061.5" y1="0.579102" x2="1061.5" y2="957.575" stroke="#494950"/>
<line x1="1082.5" y1="0.579102" x2="1082.5" y2="957.575" stroke="#494950"/>
<line x1="1103.5" y1="0.579102" x2="1103.5" y2="957.575" stroke="#494950"/>
<line x1="1124.5" y1="0.579102" x2="1124.5" y2="957.575" stroke="#494950"/>
<line x1="1145.5" y1="0.579102" x2="1145.5" y2="957.575" stroke="#494950"/>
<line x1="1166.5" y1="0.579102" x2="1166.5" y2="957.575" stroke="#494950"/>
<line x1="1187.5" y1="0.579102" x2="1187.5" y2="957.575" stroke="#494950"/>
<line x1="1208.5" y1="0.579102" x2="1208.5" y2="957.575" stroke="#494950"/>
<line x1="1229.5" y1="0.579102" x2="1229.5" y2="957.575" stroke="#494950"/>
<line x1="1250.5" y1="0.579102" x2="1250.5" y2="957.575" stroke="#494950"/>
<line x1="1271.5" y1="0.579102" x2="1271.5" y2="957.575" stroke="#494950"/>
<line x1="1292.5" y1="0.579102" x2="1292.5" y2="957.575" stroke="#494950"/>
<line x1="1313.5" y1="0.579102" x2="1313.5" y2="957.575" stroke="#494950"/>
<line x1="1334.5" y1="0.579102" x2="1334.5" y2="957.575" stroke="#494950"/>
<line x1="1355.5" y1="0.579102" x2="1355.5" y2="957.575" stroke="#494950"/>
<line x1="1375.5" y1="0.579102" x2="1375.5" y2="957.575" stroke="#494950"/>
<line x1="1395.5" y1="0.579102" x2="1395.5" y2="957.575" stroke="#494950"/>
<line x1="1416.5" y1="0.579102" x2="1416.5" y2="957.575" stroke="#494950"/>
<line x1="1440" y1="23.0791" x2="-1.13318e-07" y2="23.0791" stroke="#494950"/>
<line x1="1440" y1="44.0791" x2="-1.13318e-07" y2="44.0791" stroke="#494950"/>
<line x1="1440" y1="65.0791" x2="-1.13318e-07" y2="65.0791" stroke="#494950"/>
<line x1="1440" y1="86.0791" x2="-1.13318e-07" y2="86.0791" stroke="#494950"/>
<line x1="1440" y1="107.079" x2="-1.13318e-07" y2="107.079" stroke="#494950"/>
<line x1="1440" y1="128.079" x2="-1.13318e-07" y2="128.079" stroke="#494950"/>
<line x1="1440" y1="149.079" x2="-1.13318e-07" y2="149.079" stroke="#494950"/>
<line x1="1440" y1="170.079" x2="-1.13318e-07" y2="170.079" stroke="#494950"/>
<line x1="1440" y1="191.079" x2="-1.13318e-07" y2="191.079" stroke="#494950"/>
<line x1="1440" y1="212.079" x2="-1.13318e-07" y2="212.079" stroke="#494950"/>
<line x1="1440" y1="233.079" x2="-1.13318e-07" y2="233.079" stroke="#494950"/>
<line x1="1442" y1="400.079" x2="2" y2="400.079" stroke="#494950"/>
<line x1="1440" y1="254.079" x2="-1.13318e-07" y2="254.079" stroke="#494950"/>
<line x1="1442" y1="421.079" x2="2" y2="421.079" stroke="#494950"/>
<line x1="1440" y1="275.079" x2="-1.13318e-07" y2="275.079" stroke="#494950"/>
<line x1="1440" y1="547.079" x2="-1.13318e-07" y2="547.079" stroke="#494950"/>
<line x1="1442" y1="442.079" x2="2" y2="442.079" stroke="#494950"/>
<line x1="1440" y1="296.079" x2="-1.13318e-07" y2="296.079" stroke="#494950"/>
<line x1="1440" y1="568.079" x2="-1.13318e-07" y2="568.079" stroke="#494950"/>
<line x1="1442" y1="463.079" x2="2" y2="463.079" stroke="#494950"/>
<line x1="1440" y1="317.079" x2="-1.13318e-07" y2="317.079" stroke="#494950"/>
<line x1="1440" y1="589.079" x2="-1.13318e-07" y2="589.079" stroke="#494950"/>
<line x1="1442" y1="484.079" x2="2" y2="484.079" stroke="#494950"/>
<line x1="1440" y1="338.079" x2="-1.13318e-07" y2="338.079" stroke="#494950"/>
<line x1="1440" y1="610.079" x2="-1.13318e-07" y2="610.079" stroke="#494950"/>
<line x1="1442" y1="505.079" x2="2" y2="505.079" stroke="#494950"/>
<line x1="1440" y1="359.079" x2="-1.13318e-07" y2="359.079" stroke="#494950"/>
<line x1="1440" y1="631.079" x2="-1.13318e-07" y2="631.079" stroke="#494950"/>
<line x1="1442" y1="526.079" x2="2" y2="526.079" stroke="#494950"/>
<line x1="1440" y1="380.079" x2="-1.13318e-07" y2="380.079" stroke="#494950"/>
<line x1="1440" y1="652.079" x2="-1.13318e-07" y2="652.079" stroke="#494950"/>
<line x1="1440" y1="673.079" x2="-1.13318e-07" y2="673.079" stroke="#494950"/>
<line x1="1440" y1="505.079" x2="-1.13318e-07" y2="505.079" stroke="#494950"/>
<line x1="1440" y1="714.079" x2="-1.13318e-07" y2="714.079" stroke="#494950"/>
<line x1="1440" y1="526.079" x2="-1.13318e-07" y2="526.079" stroke="#494950"/>
<line x1="1440" y1="735.079" x2="-1.13318e-07" y2="735.079" stroke="#494950"/>
<line x1="1440" y1="547.079" x2="-1.13318e-07" y2="547.079" stroke="#494950"/>
<line x1="1440" y1="756.079" x2="-1.13318e-07" y2="756.079" stroke="#494950"/>
<line x1="1440" y1="568.079" x2="-1.13318e-07" y2="568.079" stroke="#494950"/>
<line x1="1440" y1="777.079" x2="-1.13318e-07" y2="777.079" stroke="#494950"/>
<line x1="1440" y1="860.075" x2="-1.13318e-07" y2="860.075" stroke="#494950"/>
<line x1="1440" y1="589.079" x2="-1.13318e-07" y2="589.079" stroke="#494950"/>
<line x1="1440" y1="798.079" x2="-1.13318e-07" y2="798.079" stroke="#494950"/>
<line x1="1440" y1="881.075" x2="-1.13318e-07" y2="881.075" stroke="#494950"/>
<line x1="1440" y1="610.079" x2="-1.13318e-07" y2="610.079" stroke="#494950"/>
<line x1="1440" y1="819.079" x2="-1.13318e-07" y2="819.079" stroke="#494950"/>
<line x1="1440" y1="902.075" x2="-1.13318e-07" y2="902.075" stroke="#494950"/>
<line x1="1440" y1="631.079" x2="-1.13318e-07" y2="631.079" stroke="#494950"/>
<line x1="1440" y1="840.079" x2="-1.13318e-07" y2="840.079" stroke="#494950"/>
<line x1="1440" y1="923.075" x2="-1.13318e-07" y2="923.075" stroke="#494950"/>
<line x1="1440" y1="945.075" x2="-1.13318e-07" y2="945.075" stroke="#494950"/>
<line x1="1440" y1="652.079" x2="-1.13318e-07" y2="652.079" stroke="#494950"/>
<line x1="1440" y1="673.079" x2="-1.13318e-07" y2="673.079" stroke="#494950"/>
<line x1="1440" y1="694.079" x2="-1.13318e-07" y2="694.079" stroke="#494950"/>
</g>
</svg>
