<svg width="1440" height="490" viewBox="0 0 1440 490" fill="none" xmlns="http://www.w3.org/2000/svg">
<rect width="1440" height="490" fill="#F0F0F3"/>
<line x1="19.5" y1="2.18557e-08" x2="19.5" y2="490" stroke="white" stroke-opacity="0.4"/>
<line x1="40.5" y1="2.18557e-08" x2="40.5" y2="490" stroke="white" stroke-opacity="0.4"/>
<line x1="61.5" y1="2.18557e-08" x2="61.5" y2="490" stroke="white" stroke-opacity="0.4"/>
<line x1="82.5" y1="2.18557e-08" x2="82.5" y2="490" stroke="white" stroke-opacity="0.4"/>
<line x1="103.5" y1="2.18557e-08" x2="103.5" y2="490" stroke="white" stroke-opacity="0.4"/>
<line x1="124.5" y1="2.18557e-08" x2="124.5" y2="490" stroke="white" stroke-opacity="0.4"/>
<line x1="145.5" y1="2.18557e-08" x2="145.5" y2="490" stroke="white" stroke-opacity="0.4"/>
<line x1="166.5" y1="2.18557e-08" x2="166.5" y2="490" stroke="white" stroke-opacity="0.4"/>
<line x1="187.5" y1="2.18557e-08" x2="187.5" y2="490" stroke="white" stroke-opacity="0.4"/>
<line x1="208.5" y1="2.18557e-08" x2="208.5" y2="490" stroke="white" stroke-opacity="0.4"/>
<line x1="229.5" y1="2.18557e-08" x2="229.5" y2="490" stroke="white" stroke-opacity="0.4"/>
<line x1="250.5" y1="2.18557e-08" x2="250.5" y2="490" stroke="white" stroke-opacity="0.4"/>
<line x1="271.5" y1="2.18557e-08" x2="271.5" y2="490" stroke="white" stroke-opacity="0.4"/>
<line x1="292.5" y1="2.18557e-08" x2="292.5" y2="490" stroke="white" stroke-opacity="0.4"/>
<line x1="313.5" y1="2.18557e-08" x2="313.5" y2="490" stroke="white" stroke-opacity="0.4"/>
<line x1="334.5" y1="2.18557e-08" x2="334.5" y2="490" stroke="white" stroke-opacity="0.4"/>
<line x1="355.5" y1="2.18557e-08" x2="355.5" y2="490" stroke="white" stroke-opacity="0.4"/>
<line x1="375.5" y1="2.18557e-08" x2="375.5" y2="490" stroke="white" stroke-opacity="0.4"/>
<line x1="395.5" y1="2.18557e-08" x2="395.5" y2="490" stroke="white" stroke-opacity="0.4"/>
<line x1="416.5" y1="2.18557e-08" x2="416.5" y2="490" stroke="white" stroke-opacity="0.4"/>
<line x1="437.5" y1="2.18557e-08" x2="437.5" y2="490" stroke="white" stroke-opacity="0.4"/>
<line x1="458.5" y1="2.18557e-08" x2="458.5" y2="490" stroke="white" stroke-opacity="0.4"/>
<line x1="479.5" y1="2.18557e-08" x2="479.5" y2="490" stroke="white" stroke-opacity="0.4"/>
<line x1="500.5" y1="2.18557e-08" x2="500.5" y2="490" stroke="white" stroke-opacity="0.4"/>
<line x1="521.5" y1="2.18557e-08" x2="521.5" y2="490" stroke="white" stroke-opacity="0.4"/>
<line x1="542.5" y1="2.18557e-08" x2="542.5" y2="490" stroke="white" stroke-opacity="0.4"/>
<line x1="563.5" y1="2.18557e-08" x2="563.5" y2="490" stroke="white" stroke-opacity="0.4"/>
<line x1="584.5" y1="2.18557e-08" x2="584.5" y2="490" stroke="white" stroke-opacity="0.4"/>
<line x1="605.5" y1="2.18557e-08" x2="605.5" y2="490" stroke="white" stroke-opacity="0.4"/>
<line x1="626.5" y1="2.18557e-08" x2="626.5" y2="490" stroke="white" stroke-opacity="0.4"/>
<line x1="647.5" y1="2.18557e-08" x2="647.5" y2="490" stroke="white" stroke-opacity="0.4"/>
<line x1="668.5" y1="2.18557e-08" x2="668.5" y2="490" stroke="white" stroke-opacity="0.4"/>
<line x1="689.5" y1="2.18557e-08" x2="689.5" y2="490" stroke="white" stroke-opacity="0.4"/>
<line x1="710.5" y1="2.18557e-08" x2="710.5" y2="490" stroke="white" stroke-opacity="0.4"/>
<line x1="731.5" y1="2.18557e-08" x2="731.5" y2="490" stroke="white" stroke-opacity="0.4"/>
<line x1="751.5" y1="2.18557e-08" x2="751.5" y2="490" stroke="white" stroke-opacity="0.4"/>
<line x1="771.5" y1="2.18557e-08" x2="771.5" y2="490" stroke="white" stroke-opacity="0.4"/>
<line x1="792.5" y1="2.18557e-08" x2="792.5" y2="490" stroke="white" stroke-opacity="0.4"/>
<line x1="813.5" y1="2.18557e-08" x2="813.5" y2="490" stroke="white" stroke-opacity="0.4"/>
<line x1="834.5" y1="2.18557e-08" x2="834.5" y2="490" stroke="white" stroke-opacity="0.4"/>
<line x1="855.5" y1="2.18557e-08" x2="855.5" y2="490" stroke="white" stroke-opacity="0.4"/>
<line x1="876.5" y1="2.18557e-08" x2="876.5" y2="490" stroke="white" stroke-opacity="0.4"/>
<line x1="897.5" y1="2.18557e-08" x2="897.5" y2="490" stroke="white" stroke-opacity="0.4"/>
<line x1="918.5" y1="2.18557e-08" x2="918.5" y2="490" stroke="white" stroke-opacity="0.4"/>
<line x1="939.5" y1="2.18557e-08" x2="939.5" y2="490" stroke="white" stroke-opacity="0.4"/>
<line x1="960.5" y1="2.18557e-08" x2="960.5" y2="490" stroke="white" stroke-opacity="0.4"/>
<line x1="981.5" y1="2.18557e-08" x2="981.5" y2="490" stroke="white" stroke-opacity="0.4"/>
<line x1="1002.5" y1="2.18557e-08" x2="1002.5" y2="490" stroke="white" stroke-opacity="0.4"/>
<line x1="1019.5" y1="2.18557e-08" x2="1019.5" y2="490" stroke="white" stroke-opacity="0.4"/>
<line x1="1040.5" y1="2.18557e-08" x2="1040.5" y2="490" stroke="white" stroke-opacity="0.4"/>
<line x1="1061.5" y1="2.18557e-08" x2="1061.5" y2="490" stroke="white" stroke-opacity="0.4"/>
<line x1="1082.5" y1="2.18557e-08" x2="1082.5" y2="490" stroke="white" stroke-opacity="0.4"/>
<line x1="1103.5" y1="2.18557e-08" x2="1103.5" y2="490" stroke="white" stroke-opacity="0.4"/>
<line x1="1124.5" y1="2.18557e-08" x2="1124.5" y2="490" stroke="white" stroke-opacity="0.4"/>
<line x1="1145.5" y1="2.18557e-08" x2="1145.5" y2="490" stroke="white" stroke-opacity="0.4"/>
<line x1="1166.5" y1="2.18557e-08" x2="1166.5" y2="490" stroke="white" stroke-opacity="0.4"/>
<line x1="1187.5" y1="2.18557e-08" x2="1187.5" y2="490" stroke="white" stroke-opacity="0.4"/>
<line x1="1208.5" y1="2.18557e-08" x2="1208.5" y2="490" stroke="white" stroke-opacity="0.4"/>
<line x1="1229.5" y1="2.18557e-08" x2="1229.5" y2="490" stroke="white" stroke-opacity="0.4"/>
<line x1="1250.5" y1="2.18557e-08" x2="1250.5" y2="490" stroke="white" stroke-opacity="0.4"/>
<line x1="1271.5" y1="2.18557e-08" x2="1271.5" y2="490" stroke="white" stroke-opacity="0.4"/>
<line x1="1292.5" y1="2.18557e-08" x2="1292.5" y2="490" stroke="white" stroke-opacity="0.4"/>
<line x1="1313.5" y1="2.18557e-08" x2="1313.5" y2="490" stroke="white" stroke-opacity="0.4"/>
<line x1="1334.5" y1="2.18557e-08" x2="1334.5" y2="490" stroke="white" stroke-opacity="0.4"/>
<line x1="1355.5" y1="2.18557e-08" x2="1355.5" y2="490" stroke="white" stroke-opacity="0.4"/>
<line x1="1375.5" y1="2.18557e-08" x2="1375.5" y2="490" stroke="white" stroke-opacity="0.4"/>
<line x1="1395.5" y1="2.18557e-08" x2="1395.5" y2="490" stroke="white" stroke-opacity="0.4"/>
<line x1="1416.5" y1="2.18557e-08" x2="1416.5" y2="490" stroke="white" stroke-opacity="0.4"/>
<line x1="1440" y1="22.5" x2="-1.13318e-07" y2="22.5" stroke="white" stroke-opacity="0.4"/>
<line x1="1440" y1="43.5" x2="-1.13318e-07" y2="43.5" stroke="white" stroke-opacity="0.4"/>
<line x1="1440" y1="64.5" x2="-1.13318e-07" y2="64.5" stroke="white" stroke-opacity="0.4"/>
<line x1="1440" y1="85.5" x2="-1.13318e-07" y2="85.5" stroke="white" stroke-opacity="0.4"/>
<line x1="1440" y1="106.5" x2="-1.13318e-07" y2="106.5" stroke="white" stroke-opacity="0.4"/>
<line x1="1440" y1="127.5" x2="-1.13318e-07" y2="127.5" stroke="white" stroke-opacity="0.4"/>
<line x1="1440" y1="148.5" x2="-1.13318e-07" y2="148.5" stroke="white" stroke-opacity="0.4"/>
<line x1="1440" y1="169.5" x2="-1.13318e-07" y2="169.5" stroke="white" stroke-opacity="0.4"/>
<line x1="1440" y1="190.5" x2="-1.13318e-07" y2="190.5" stroke="white" stroke-opacity="0.4"/>
<line x1="1440" y1="211.5" x2="-1.13318e-07" y2="211.5" stroke="white" stroke-opacity="0.4"/>
<line x1="1440" y1="232.5" x2="-1.13318e-07" y2="232.5" stroke="white" stroke-opacity="0.4"/>
<line x1="1440" y1="253.5" x2="-1.13318e-07" y2="253.5" stroke="white" stroke-opacity="0.4"/>
<line x1="1440" y1="274.5" x2="-1.13318e-07" y2="274.5" stroke="white" stroke-opacity="0.4"/>
<line x1="1440" y1="295.5" x2="-1.13318e-07" y2="295.5" stroke="white" stroke-opacity="0.4"/>
<line x1="1440" y1="316.5" x2="-1.13318e-07" y2="316.5" stroke="white" stroke-opacity="0.4"/>
<line x1="1440" y1="337.5" x2="-1.13318e-07" y2="337.5" stroke="white" stroke-opacity="0.4"/>
<line x1="1440" y1="358.5" x2="-1.13318e-07" y2="358.5" stroke="white" stroke-opacity="0.4"/>
<line x1="1440" y1="379.5" x2="-1.13318e-07" y2="379.5" stroke="white" stroke-opacity="0.4"/>
<line x1="1440" y1="400.5" x2="-1.13318e-07" y2="400.5" stroke="white" stroke-opacity="0.4"/>
<line x1="1440" y1="421.5" x2="-1.13318e-07" y2="421.5" stroke="white" stroke-opacity="0.4"/>
<line x1="1440" y1="442.5" x2="-1.13318e-07" y2="442.5" stroke="white" stroke-opacity="0.4"/>
<line x1="1440" y1="463.5" x2="-1.13318e-07" y2="463.5" stroke="white" stroke-opacity="0.4"/>
<line x1="1440" y1="484.5" x2="-1.13318e-07" y2="484.5" stroke="white" stroke-opacity="0.4"/>
</svg>
