<svg width="522" height="160" viewBox="0 0 522 160" fill="none" xmlns="http://www.w3.org/2000/svg">
<rect width="522" height="160" fill="#6B9DB8"/>
<line x1="20.2969" y1="2.18557e-08" x2="20.2969" y2="160" stroke="white" stroke-opacity="0.05"/>
<line x1="42.1768" y1="2.09764e-08" x2="42.1768" y2="160" stroke="white" stroke-opacity="0.05"/>
<line x1="64.0566" y1="2.09764e-08" x2="64.0566" y2="160" stroke="white" stroke-opacity="0.05"/>
<line x1="85.9375" y1="2.09764e-08" x2="85.9375" y2="160" stroke="white" stroke-opacity="0.05"/>
<line x1="107.817" y1="2.09764e-08" x2="107.817" y2="160" stroke="white" stroke-opacity="0.05"/>
<line x1="129.697" y1="2.09764e-08" x2="129.697" y2="160" stroke="white" stroke-opacity="0.05"/>
<line x1="151.578" y1="2.09764e-08" x2="151.578" y2="160" stroke="white" stroke-opacity="0.05"/>
<line x1="173.458" y1="2.09764e-08" x2="173.458" y2="160" stroke="white" stroke-opacity="0.05"/>
<line x1="195.338" y1="2.09764e-08" x2="195.338" y2="160" stroke="white" stroke-opacity="0.05"/>
<line x1="217.218" y1="2.09764e-08" x2="217.218" y2="160" stroke="white" stroke-opacity="0.05"/>
<line x1="239.099" y1="2.09764e-08" x2="239.099" y2="160" stroke="white" stroke-opacity="0.05"/>
<line x1="260.979" y1="2.09764e-08" x2="260.979" y2="160" stroke="white" stroke-opacity="0.05"/>
<line x1="282.859" y1="2.09764e-08" x2="282.859" y2="160" stroke="white" stroke-opacity="0.05"/>
<line x1="304.74" y1="2.09764e-08" x2="304.74" y2="160" stroke="white" stroke-opacity="0.05"/>
<line x1="326.62" y1="2.09764e-08" x2="326.62" y2="160" stroke="white" stroke-opacity="0.05"/>
<line x1="348.5" y1="2.09764e-08" x2="348.5" y2="160" stroke="white" stroke-opacity="0.05"/>
<line x1="370.381" y1="2.09764e-08" x2="370.381" y2="160" stroke="white" stroke-opacity="0.05"/>
<line x1="412.057" y1="2.09764e-08" x2="412.057" y2="160" stroke="white" stroke-opacity="0.05"/>
<line x1="433.937" y1="2.09764e-08" x2="433.937" y2="160" stroke="white" stroke-opacity="0.05"/>
<line x1="455.817" y1="2.09764e-08" x2="455.817" y2="160" stroke="white" stroke-opacity="0.05"/>
<line x1="477.698" y1="2.09764e-08" x2="477.698" y2="160" stroke="white" stroke-opacity="0.05"/>
<line x1="498.536" y1="2.09764e-08" x2="498.536" y2="160" stroke="white" stroke-opacity="0.05"/>
<line x1="520.416" y1="2.09764e-08" x2="520.416" y2="160" stroke="white" stroke-opacity="0.05"/>
<line x1="391.218" y1="2.09764e-08" x2="391.218" y2="160" stroke="white" stroke-opacity="0.05"/>
<line x1="522" y1="1.5" x2="-6.10798e-05" y2="1.49996" stroke="white" stroke-opacity="0.05"/>
<line x1="522" y1="22.5" x2="-6.10798e-05" y2="22.5" stroke="white" stroke-opacity="0.05"/>
<line x1="522" y1="43.5" x2="-6.10798e-05" y2="43.5" stroke="white" stroke-opacity="0.05"/>
<line x1="522" y1="64.5" x2="-6.10798e-05" y2="64.5" stroke="white" stroke-opacity="0.05"/>
<line x1="522" y1="85.5" x2="-6.10798e-05" y2="85.5" stroke="white" stroke-opacity="0.05"/>
<line x1="522" y1="106.5" x2="-6.10798e-05" y2="106.5" stroke="white" stroke-opacity="0.05"/>
<line x1="522" y1="127.5" x2="-6.10798e-05" y2="127.5" stroke="white" stroke-opacity="0.05"/>
<line x1="522" y1="148.5" x2="-6.10798e-05" y2="148.5" stroke="white" stroke-opacity="0.05"/>
</svg>
