<svg width="502" height="520" viewBox="0 0 502 520" fill="none" xmlns="http://www.w3.org/2000/svg">
<rect y="0.000732422" width="502" height="520" fill="#22232F"/>
<line x1="502" y1="16.5007" x2="-9.15964e-05" y2="16.5007" stroke="white" stroke-opacity="0.04"/>
<line x1="502" y1="37.5007" x2="-9.15964e-05" y2="37.5007" stroke="white" stroke-opacity="0.04"/>
<line x1="502" y1="58.5007" x2="-9.15964e-05" y2="58.5007" stroke="white" stroke-opacity="0.04"/>
<line x1="502" y1="79.5007" x2="-9.15964e-05" y2="79.5007" stroke="white" stroke-opacity="0.04"/>
<line x1="502" y1="100.501" x2="-9.15964e-05" y2="100.501" stroke="white" stroke-opacity="0.04"/>
<line x1="502" y1="121.501" x2="-9.15964e-05" y2="121.501" stroke="white" stroke-opacity="0.04"/>
<line x1="502" y1="142.501" x2="-9.15964e-05" y2="142.501" stroke="white" stroke-opacity="0.04"/>
<line x1="502" y1="163.501" x2="-9.15964e-05" y2="163.501" stroke="white" stroke-opacity="0.04"/>
<line x1="502" y1="184.501" x2="-9.15964e-05" y2="184.501" stroke="white" stroke-opacity="0.04"/>
<line x1="502" y1="205.501" x2="-9.15964e-05" y2="205.501" stroke="white" stroke-opacity="0.04"/>
<line x1="502" y1="225.501" x2="-9.15964e-05" y2="225.501" stroke="white" stroke-opacity="0.04"/>
<line x1="502" y1="245.501" x2="-9.15964e-05" y2="245.501" stroke="white" stroke-opacity="0.04"/>
<line x1="502" y1="266.501" x2="-9.15964e-05" y2="266.501" stroke="white" stroke-opacity="0.04"/>
<line x1="502" y1="287.501" x2="-9.15964e-05" y2="287.501" stroke="white" stroke-opacity="0.04"/>
<line x1="502" y1="308.501" x2="-9.15964e-05" y2="308.501" stroke="white" stroke-opacity="0.04"/>
<line x1="502" y1="329.501" x2="-9.15964e-05" y2="329.501" stroke="white" stroke-opacity="0.04"/>
<line x1="502" y1="350.501" x2="-9.15964e-05" y2="350.501" stroke="white" stroke-opacity="0.04"/>
<line x1="502" y1="371.501" x2="-9.15964e-05" y2="371.501" stroke="white" stroke-opacity="0.04"/>
<line x1="502" y1="392.501" x2="-9.15964e-05" y2="392.501" stroke="white" stroke-opacity="0.04"/>
<line x1="502" y1="413.501" x2="-9.15964e-05" y2="413.501" stroke="white" stroke-opacity="0.04"/>
<line x1="502" y1="434.501" x2="-9.15964e-05" y2="434.501" stroke="white" stroke-opacity="0.04"/>
<line x1="502" y1="455.501" x2="-9.15964e-05" y2="455.501" stroke="white" stroke-opacity="0.04"/>
<line x1="502" y1="476.501" x2="-9.15964e-05" y2="476.501" stroke="white" stroke-opacity="0.04"/>
<line x1="502" y1="497.501" x2="-9.15964e-05" y2="497.501" stroke="white" stroke-opacity="0.04"/>
<line x1="272.5" y1="520" x2="272.5" y2="-1.14962e-07" stroke="white" stroke-opacity="0.03"/>
<line x1="251.5" y1="520" x2="251.5" y2="-1.14962e-07" stroke="white" stroke-opacity="0.03"/>
<line x1="230.5" y1="520" x2="230.5" y2="-1.14962e-07" stroke="white" stroke-opacity="0.03"/>
<line x1="501.5" y1="520.001" x2="501.5" y2="0.000732307" stroke="white" stroke-opacity="0.03"/>
<line x1="209.5" y1="520" x2="209.5" y2="-1.14962e-07" stroke="white" stroke-opacity="0.03"/>
<line x1="480.5" y1="520.001" x2="480.5" y2="0.000732307" stroke="white" stroke-opacity="0.03"/>
<line x1="188.5" y1="520" x2="188.5" y2="-1.14962e-07" stroke="white" stroke-opacity="0.03"/>
<line x1="459.5" y1="520.001" x2="459.5" y2="0.000732307" stroke="white" stroke-opacity="0.03"/>
<line x1="167.5" y1="520" x2="167.5" y2="-1.14962e-07" stroke="white" stroke-opacity="0.03"/>
<line x1="438.5" y1="520.001" x2="438.5" y2="0.000732307" stroke="white" stroke-opacity="0.03"/>
<path d="M147 520L147 4.17233e-06" stroke="white" stroke-opacity="0.03"/>
<path d="M418 520.001L418 0.000736594" stroke="white" stroke-opacity="0.03"/>
<line x1="127.5" y1="520" x2="127.5" y2="-1.14962e-07" stroke="white" stroke-opacity="0.03"/>
<line x1="398.5" y1="520.001" x2="398.5" y2="0.000732307" stroke="white" stroke-opacity="0.03"/>
<line x1="106.5" y1="520" x2="106.5" y2="-1.14962e-07" stroke="white" stroke-opacity="0.03"/>
<line x1="377.5" y1="520.001" x2="377.5" y2="0.000732307" stroke="white" stroke-opacity="0.03"/>
<line x1="85.5" y1="520" x2="85.5" y2="-1.14962e-07" stroke="white" stroke-opacity="0.03"/>
<line x1="356.5" y1="520.001" x2="356.5" y2="0.000732307" stroke="white" stroke-opacity="0.03"/>
<line x1="64.5" y1="520" x2="64.5" y2="-1.14962e-07" stroke="white" stroke-opacity="0.03"/>
<line x1="335.5" y1="520.001" x2="335.5" y2="0.000732307" stroke="white" stroke-opacity="0.03"/>
<line x1="43.5" y1="520" x2="43.5" y2="-1.14962e-07" stroke="white" stroke-opacity="0.03"/>
<line x1="314.5" y1="520.001" x2="314.5" y2="0.000732307" stroke="white" stroke-opacity="0.03"/>
<line x1="21.5" y1="520" x2="21.5" y2="-1.14962e-07" stroke="white" stroke-opacity="0.03"/>
<line x1="292.5" y1="520.001" x2="292.5" y2="0.000732307" stroke="white" stroke-opacity="0.03"/>
</svg>
