<svg width="26" height="35" viewBox="0 0 26 35" fill="none" xmlns="http://www.w3.org/2000/svg">
<path fill-rule="evenodd" clip-rule="evenodd" d="M25.0155 1.69396L25.3072 1.29515L24.5 0.704834L24.2083 1.10365L25.0155 1.69396ZM23.8488 3.2892L24.4322 2.49158L23.625 1.90127L23.0417 2.69888L23.8488 3.2892ZM22.6822 4.88444L23.2655 4.08682L22.4583 3.4965L21.875 4.29412L22.6822 4.88444ZM21.5155 6.47968L22.0988 5.68206L21.2917 5.09174L20.7083 5.88936L21.5155 6.47968ZM20.3488 8.07492L20.9322 7.2773L20.125 6.68698L19.5417 7.4846L20.3488 8.07492ZM19.3066 9.49998L19.7655 8.87253L18.9583 8.28222L18.375 9.07984L18.9495 9.49998H2.40363V12.5H16.3557L16.8488 12.8606L17.1126 12.5H24.4036V9.49998H19.3066ZM15.6822 14.4559L16.2655 13.6583L15.4583 13.0679L14.875 13.8656L15.6822 14.4559ZM14.5155 16.0511L15.0988 15.2535L14.2917 14.6632L13.7083 15.4608L14.5155 16.0511ZM13.3488 17.6463L13.9322 16.8487L13.125 16.2584L12.5417 17.056L13.3488 17.6463ZM12.1822 19.2416L12.7655 18.444L11.9583 17.8536L11.375 18.6513L12.1822 19.2416ZM11.2619 20.5L11.5988 20.0392L10.7917 19.4489L10.2083 20.2465L10.5549 20.5H2.40363V23.5H7.96114L8.68217 24.0273L9.06782 23.5H24.4036V20.5H11.2619ZM7.5155 25.6225L8.09884 24.8249L7.29167 24.2346L6.70833 25.0322L7.5155 25.6225ZM6.34884 27.2178L6.93217 26.4202L6.125 25.8298L5.54167 26.6275L6.34884 27.2178ZM5.18217 28.813L5.7655 28.0154L4.95833 27.4251L4.375 28.2227L5.18217 28.813ZM4.0155 30.4082L4.59884 29.6106L3.79167 29.0203L3.20833 29.8179L4.0155 30.4082ZM2.84884 32.0035L3.43217 31.2059L2.625 30.6155L2.04167 31.4132L2.84884 32.0035ZM1.68217 33.5987L2.2655 32.8011L1.45833 32.2108L0.875 33.0084L1.68217 33.5987ZM0.80717 34.7952L1.09884 34.3963L0.291667 33.806L0 34.2048L0.80717 34.7952Z" fill="#4FB7E3"/>
</svg>
