<svg width="50" height="50" viewBox="0 0 50 50" fill="none" xmlns="http://www.w3.org/2000/svg">
<circle cx="25" cy="25" r="24.5" stroke="#4FB7E3" stroke-opacity="0.3" stroke-dasharray="1 1"/>
<path d="M28.8286 9.99976C28.57 9.99976 28.3604 10.2094 28.3604 10.468V12.6218C28.3604 12.8803 28.57 13.09 28.8286 13.09C29.0871 13.09 29.2968 12.8803 29.2968 12.6218V10.468C29.2968 10.2094 29.0871 9.99976 28.8286 9.99976Z" fill="#4FB7E3"/>
<path d="M18.06 24.6082C17.8016 24.6082 17.5918 24.8179 17.5918 25.0764C17.5918 25.3348 17.8016 25.5446 18.06 25.5446C18.3185 25.5446 18.5282 25.3348 18.5282 25.0764C18.5282 24.8179 18.3185 24.6082 18.06 24.6082Z" fill="#4FB7E3"/>
<path d="M35.3836 23.6714C35.3836 22.6387 34.5434 21.7986 33.5107 21.7986H30.0154C30.5565 20.4125 30.7756 18.7811 30.7333 17.3288C30.7253 17.0517 30.7146 16.8914 30.7003 16.7905C30.6761 15.7788 29.8454 14.9626 28.8286 14.9626C27.7959 14.9626 26.9557 15.8028 26.9557 16.8355V17.3037C26.9557 20.265 23.1532 21.9288 20.2835 22.6423C20.0665 22.1462 19.5712 21.7986 18.9961 21.7986H14.3139C14.0554 21.7986 13.8457 22.0083 13.8457 22.2668V33.504C13.8457 33.7625 14.0554 33.9722 14.3139 33.9722H18.9961C19.5674 33.9722 20.0598 33.6291 20.279 33.1383C20.5166 33.1993 20.7372 33.2569 20.9408 33.3101C22.5756 33.737 23.4761 33.9722 25.6663 33.9722H30.7014C31.7341 33.9722 32.5743 33.132 32.5743 32.0993C32.5743 31.7143 32.4574 31.3561 32.2573 31.0581C32.9806 30.8051 33.5107 30.114 33.5107 29.29C33.5107 28.9064 33.3967 28.547 33.1972 28.2477C33.9173 27.9943 34.4472 27.3048 34.4472 26.4807C34.4472 26.0957 34.3302 25.7375 34.1302 25.4395C34.8535 25.1865 35.3836 24.4955 35.3836 23.6714ZM19.4643 32.5675C19.4643 32.8257 19.2542 33.0357 18.9961 33.0357H14.7821V22.735H18.9961C19.2542 22.735 19.4643 22.9451 19.4643 23.2032V32.5675ZM33.5107 24.6079C32.5065 24.6079 32.2671 24.6079 31.1697 24.6079C30.9111 24.6079 30.7014 24.8175 30.7014 25.0761C30.7014 25.3346 30.9111 25.5443 31.1697 25.5443H32.5743C33.0906 25.5443 33.5107 25.9644 33.5107 26.4807C33.5107 26.9979 33.0915 27.4172 32.5743 27.4172H30.2332C29.9747 27.4172 29.765 27.6268 29.765 27.8854C29.765 28.1439 29.9747 28.3536 30.2332 28.3536H31.6379C32.1481 28.3536 32.5743 28.7612 32.5743 29.29C32.5743 29.8072 32.1551 30.2265 31.6379 30.2265C30.6336 30.2265 30.3942 30.2265 29.2968 30.2265C29.0382 30.2265 28.8286 30.4361 28.8286 30.6947C28.8286 30.9532 29.0382 31.1629 29.2968 31.1629H30.7014C31.2178 31.1629 31.6379 31.583 31.6379 32.0993C31.6379 32.6157 31.2178 33.0357 30.7014 33.0357H25.6663C23.5964 33.0357 22.788 32.8246 21.1775 32.404C20.9415 32.3424 20.6828 32.2748 20.4007 32.2029V23.579C23.7891 22.7719 27.8921 20.8018 27.8921 17.3037V16.8355C27.8921 16.3192 28.3122 15.8991 28.8286 15.8991C29.344 15.8991 29.764 16.3185 29.765 16.8341V16.8355C29.765 17.039 30.019 19.5363 29.0006 21.7986H27.4239C27.1654 21.7986 26.9557 22.0083 26.9557 22.2668C26.9557 22.5253 27.1654 22.735 27.4239 22.735C27.7509 22.735 32.9771 22.735 33.5107 22.735C34.0271 22.735 34.4472 23.1551 34.4472 23.6714C34.4472 24.1886 34.0279 24.6079 33.5107 24.6079Z" fill="#4FB7E3"/>
<path d="M18.06 26.481C17.8015 26.481 17.5918 26.6906 17.5918 26.9492V30.6949C17.5918 30.9534 17.8015 31.1631 18.06 31.1631C18.3186 31.1631 18.5282 30.9534 18.5282 30.6949V26.9492C18.5282 26.6906 18.3186 26.481 18.06 26.481Z" fill="#4FB7E3"/>
<path d="M25.0823 15.8992H23.2094C22.9509 15.8992 22.7412 16.1088 22.7412 16.3674C22.7412 16.6259 22.9509 16.8356 23.2094 16.8356H25.0823C25.3408 16.8356 25.5505 16.6259 25.5505 16.3674C25.5505 16.1088 25.3408 15.8992 25.0823 15.8992Z" fill="#4FB7E3"/>
<path d="M34.4465 15.8992H32.5737C32.3151 15.8992 32.1055 16.1088 32.1055 16.3674C32.1055 16.6259 32.3151 16.8356 32.5737 16.8356H34.4465C34.7051 16.8356 34.9148 16.6259 34.9148 16.3674C34.9148 16.1088 34.7051 15.8992 34.4465 15.8992Z" fill="#4FB7E3"/>
<path d="M33.1332 12.0636C32.9503 11.8808 32.6539 11.8808 32.471 12.0636L31.1469 13.3877C30.9641 13.5705 30.9641 13.867 31.1469 14.0499C31.3298 14.2327 31.6262 14.2327 31.8091 14.0499L33.1332 12.7258C33.316 12.543 33.316 12.2465 33.1332 12.0636Z" fill="#4FB7E3"/>
<path d="M26.5111 13.3877L25.187 12.0636C25.0041 11.8808 24.7078 11.8808 24.5248 12.0636C24.342 12.2464 24.342 12.5429 24.5248 12.7258L25.8489 14.0499C26.0319 14.2327 26.3282 14.2327 26.5111 14.0499C26.6939 13.867 26.6939 13.5706 26.5111 13.3877Z" fill="#4FB7E3"/>
</svg>
