<svg width="36" height="32" viewBox="0 0 36 32" fill="none" xmlns="http://www.w3.org/2000/svg">
<path fill-rule="evenodd" clip-rule="evenodd" d="M2 0C0.895429 0 0 0.895433 0 2V10.6255V31.6042H2V11.6255H17.6595H33.319V31.6042H35.319V10.6255V2C35.319 0.895432 34.4236 0 33.319 0H2ZM9.30316 5.22218L15.1379 2H3.23788L9.30316 5.22218ZM8.25806 5.79933L2 2.47473V9.25527L8.25806 5.79933ZM9.31239 6.35944L15.4603 9.6255H3.39816L9.31239 6.35944ZM17.0361 9.33032L10.3575 5.78229L17.0361 2.09408V9.33032ZM18.0361 9.6255H18.2658L24.9641 5.8577L18.0361 2.08809V9.6255ZM31.8887 9.6255H20.3055L26.0009 6.42185L31.8887 9.6255ZM33.319 9.26534L27.0296 5.84317L33.319 2.30538V9.26534ZM19.9665 2H31.8222L25.9928 5.27902L19.9665 2Z" fill="white"/>
</svg>
