<svg width="50" height="50" viewBox="0 0 50 50" fill="none" xmlns="http://www.w3.org/2000/svg">
<path d="M37.2783 23.5822C36.9112 23.2233 36.5317 22.8522 36.4461 22.532C36.354 22.1878 36.5003 21.6602 36.6418 21.1501C36.8498 20.4001 37.065 19.6246 36.6982 18.9906C36.3258 18.347 35.5393 18.1453 34.7787 17.9502C34.272 17.8202 33.7479 17.6859 33.5039 17.4417C33.2597 17.1976 33.1254 16.6736 32.9954 16.1668C32.8002 15.4062 32.5985 14.6197 31.955 14.2473C31.321 13.8805 30.5455 14.0957 29.7955 14.3037C29.2853 14.4452 28.7578 14.5915 28.4135 14.4995C28.0933 14.414 27.7222 14.0344 27.3633 13.6673C26.8339 13.1259 26.2339 12.5122 25.473 12.5122C24.7121 12.5122 24.1121 13.1259 23.5827 13.6673C23.2238 14.0344 22.8527 14.414 22.5325 14.4995C22.1882 14.5915 21.6607 14.4452 21.1505 14.3037C19.9219 13.9629 18.7267 13.9186 18.212 15.2814C18.0099 15.8167 18.838 16.1294 19.04 15.594C19.3776 14.6997 20.1594 14.9473 20.9139 15.1566C21.5384 15.3298 22.1841 15.5088 22.761 15.3546C23.3158 15.2063 23.7732 14.7385 24.2155 14.2861C24.6427 13.8492 25.0846 13.3973 25.473 13.3973C25.8614 13.3973 26.3032 13.8491 26.7305 14.2861C27.1728 14.7386 27.6302 15.2064 28.185 15.3546C28.762 15.509 29.4077 15.3297 30.0321 15.1566C30.606 14.9974 31.1994 14.8328 31.5117 15.0135C31.8335 15.1997 31.9883 15.8031 32.1379 16.3867C32.2976 17.0089 32.4625 17.6522 32.8779 18.0676C33.2934 18.483 33.9367 18.648 34.5588 18.8076C35.1424 18.9573 35.7458 19.1121 35.932 19.4339C36.1127 19.7462 35.948 20.3396 35.7889 20.9135C35.6156 21.5379 35.4366 22.1835 35.5909 22.7606C35.7392 23.3153 36.207 23.7728 36.6594 24.2151C37.0963 24.6423 37.5482 25.0842 37.5482 25.4726C37.5482 25.861 37.0964 26.3028 36.6594 26.7301C36.207 27.1725 35.7391 27.6299 35.5909 28.1846C35.4367 28.7617 35.6157 29.4073 35.7889 30.0317C35.948 30.6056 36.1127 31.199 35.932 31.5113C35.7458 31.8331 35.1424 31.9879 34.5588 32.1376C33.9367 32.2971 33.2933 32.4621 32.8779 32.8776C32.4625 33.293 32.2975 33.9363 32.1379 34.5585C31.9883 35.1421 31.8335 35.7455 31.5117 35.9317C31.1993 36.1124 30.6059 35.9477 30.0321 35.7886C29.4077 35.6154 28.7621 35.4364 28.185 35.5906C27.6302 35.7388 27.1728 36.2067 26.7305 36.659C26.3033 37.096 25.8614 37.5478 25.473 37.5478C25.0846 37.5478 24.6428 37.096 24.2155 36.659C23.7732 36.2066 23.3158 35.7388 22.761 35.5906C22.1841 35.4363 21.5383 35.6154 20.9139 35.7885C20.3399 35.9477 19.7464 36.1123 19.4343 35.9317C19.1125 35.7455 18.9577 35.142 18.8081 34.5585C18.6485 33.9363 18.4835 33.2929 18.0681 32.8775C17.6526 32.4621 17.0093 32.2971 16.3872 32.1375C15.8036 31.9878 15.2002 31.833 15.014 31.5112C14.8333 31.1989 14.998 30.6055 15.1571 30.0316C15.3304 29.4072 15.5094 28.7616 15.3551 28.1845C15.2069 27.6298 14.739 27.1723 14.2866 26.73C13.8497 26.3028 13.3978 25.861 13.3978 25.4726C13.3978 25.0841 13.8496 24.6423 14.2866 24.2151C14.739 23.7727 15.2069 23.3153 15.3551 22.7605C15.5093 22.1834 15.3303 21.5378 15.1571 20.9135C14.998 20.3396 14.8333 19.7461 15.014 19.4339C15.2002 19.1121 15.8037 18.9573 16.3872 18.8076C17.2671 18.5819 18.1002 18.3168 18.4878 17.4178C18.7144 16.8923 17.9015 16.542 17.675 17.0674C17.4078 17.6876 16.7579 17.7987 16.1673 17.9502C15.4067 18.1453 14.6202 18.347 14.2479 18.9906C13.8811 19.6246 14.0962 20.4001 14.3042 21.1501C14.4457 21.6602 14.5921 22.1878 14.5 22.532C14.4145 22.8522 14.0349 23.2233 13.6678 23.5822C13.1264 24.1116 12.5127 24.7117 12.5127 25.4726C12.5127 26.2335 13.1264 26.8335 13.6678 27.3629C14.0348 27.7218 14.4144 28.0929 14.5 28.4131C14.5921 28.7573 14.4457 29.2849 14.3042 29.795C14.0962 30.545 13.8811 31.3205 14.2479 31.9545C14.6203 32.5981 15.4068 32.7998 16.1673 32.9949C16.6741 33.1249 17.1981 33.2592 17.4422 33.5034C17.6863 33.7475 17.8207 34.2715 17.9507 34.7783C18.1458 35.5389 18.3475 36.3254 18.9911 36.6978C19.6251 37.0646 20.4006 36.8494 21.1505 36.6414C21.6607 36.4999 22.1883 36.3536 22.5325 36.4456C22.8527 36.5311 23.2238 36.9107 23.5828 37.2778C24.1122 37.8192 24.7122 38.4329 25.4731 38.4329C26.234 38.4329 26.8339 37.8192 27.3634 37.2778C27.7223 36.9107 28.0934 36.5311 28.4136 36.4456C28.7578 36.3536 29.2853 36.4999 29.7955 36.6414C30.5455 36.8495 31.3211 37.0646 31.955 36.6978C32.5986 36.3254 32.8003 35.5389 32.9954 34.7784C33.1254 34.2716 33.2597 33.7475 33.5039 33.5034C33.748 33.2593 34.2721 33.1249 34.7788 32.9949C35.5394 32.7999 36.3259 32.5981 36.6983 31.9545C37.065 31.3206 36.8499 30.5451 36.6419 29.7951C36.5004 29.2849 36.3541 28.7574 36.4461 28.4131C36.5316 28.093 36.9112 27.7219 37.2783 27.3629C37.8197 26.8335 38.4334 26.2335 38.4334 25.4726C38.4334 24.7117 37.8197 24.1116 37.2783 23.5822Z" fill="#4FB7E3"/>
<path d="M25.4723 34.1763C30.2716 34.1763 34.1761 30.2718 34.1761 25.4726C34.1761 20.6733 30.2716 16.7688 25.4723 16.7688C20.6731 16.7688 16.7686 20.6733 16.7686 25.4726C16.7686 30.2718 20.6731 34.1763 25.4723 34.1763ZM25.4723 17.6538C29.7836 17.6538 33.291 21.1613 33.291 25.4725C33.291 29.7837 29.7836 33.2911 25.4723 33.2911C21.1611 33.2911 17.6537 29.7837 17.6537 25.4725C17.6537 21.1613 21.1611 17.6538 25.4723 17.6538Z" fill="#4FB7E3"/>
<path d="M21.633 29.3118C22.0902 29.7689 22.8535 29.7689 23.3107 29.3118C23.7153 28.9071 23.0895 28.2814 22.6848 28.6859C22.4097 28.9613 21.9837 28.5353 22.259 28.2601L28.2598 22.2591C28.535 21.9838 28.9609 22.4098 28.6857 22.685L23.9543 27.4163C23.5497 27.8209 24.1755 28.4468 24.5802 28.0422L29.3116 23.3108C30.3883 22.234 28.7124 20.555 27.6339 21.6333L21.633 27.6342C21.1705 28.0967 21.1705 28.8492 21.633 29.3118Z" fill="#4FB7E3"/>
<path d="M22.7688 24.3371C23.6337 24.3371 24.3373 23.6334 24.3373 22.7685C24.3373 21.9036 23.6337 21.2 22.7688 21.2C21.9039 21.2 21.2002 21.9036 21.2002 22.7685C21.2002 23.6334 21.9039 24.3371 22.7688 24.3371ZM22.7688 22.0851C23.1457 22.0851 23.4522 22.3917 23.4522 22.7685C23.4522 23.1454 23.1457 23.452 22.7688 23.452C22.3919 23.452 22.0853 23.1454 22.0853 22.7685C22.0853 22.3917 22.392 22.0851 22.7688 22.0851Z" fill="#4FB7E3"/>
<path d="M28.176 26.6079C27.3111 26.6079 26.6074 27.3116 26.6074 28.1765C26.6074 29.0414 27.3111 29.745 28.176 29.745C29.0409 29.745 29.7445 29.0414 29.7445 28.1765C29.7445 27.3116 29.0409 26.6079 28.176 26.6079ZM28.176 28.8599C27.7991 28.8599 27.4925 28.5533 27.4925 28.1765C27.4925 27.7996 27.7991 27.493 28.176 27.493C28.5528 27.493 28.8594 27.7996 28.8594 28.1765C28.8594 28.5533 28.5528 28.8599 28.176 28.8599Z" fill="#4FB7E3"/>
<path d="M35.1914 16.0432C35.3046 16.0432 35.4179 16 35.5043 15.9136L36.4227 14.9952C36.8274 14.5906 36.2016 13.9648 35.7968 14.3694L34.8785 15.2877C34.6157 15.5504 34.8198 16.0432 35.1914 16.0432Z" fill="#4FB7E3"/>
<path d="M28.8388 12.4912C29.0555 12.5493 29.3223 12.3968 29.3809 12.1783L29.717 10.9238C29.8651 10.3711 29.0101 10.142 28.8621 10.6948L28.526 11.9492C28.4626 12.1853 28.6027 12.4279 28.8388 12.4912Z" fill="#4FB7E3"/>
<path d="M21.3552 12.2342C21.5007 12.7773 22.3588 12.5597 22.2101 12.0051L21.874 10.7507C21.726 10.198 20.871 10.427 21.0191 10.9798L21.3552 12.2342Z" fill="#4FB7E3"/>
<path d="M15.2875 16.0665C15.6921 16.4712 16.318 15.8451 15.9133 15.4406L14.995 14.5223C14.5904 14.1176 13.9645 14.7436 14.3692 15.1481L15.2875 16.0665Z" fill="#4FB7E3"/>
<path d="M10.6942 22.0831L11.9487 22.4192C12.4821 22.5621 12.7246 21.7107 12.1779 21.5642L10.9234 21.2281C10.3706 21.08 10.1416 21.935 10.6942 22.0831Z" fill="#4FB7E3"/>
<path d="M12.0051 28.7349L10.7506 29.071C10.2052 29.2172 10.4511 30.0673 10.9798 29.926L12.2343 29.5898C12.787 29.4417 12.5579 28.5872 12.0051 28.7349Z" fill="#4FB7E3"/>
<path d="M15.4409 35.0316L14.5225 35.9499C14.1178 36.3545 14.7437 36.9803 15.1484 36.5757L16.0667 35.6574C16.4714 35.2528 15.8455 34.6268 15.4409 35.0316Z" fill="#4FB7E3"/>
<path d="M22.1065 38.4537C21.8702 38.3904 21.6277 38.5305 21.5644 38.7666L21.2283 40.0211C21.0842 40.5586 21.9336 40.809 22.0832 40.2501L22.4193 38.9956C22.4826 38.7596 22.3425 38.5169 22.1065 38.4537Z" fill="#4FB7E3"/>
<path d="M29.5898 38.7111C29.4417 38.1585 28.5868 38.3874 28.735 38.9402L29.0711 40.1946C29.2165 40.7377 30.0746 40.5201 29.926 39.9656L29.5898 38.7111Z" fill="#4FB7E3"/>
<path d="M35.6571 34.8785C35.2525 34.4738 34.6266 35.0998 35.0313 35.5043L35.9496 36.4227C36.3542 36.8274 36.9801 36.2013 36.5754 35.7968L35.6571 34.8785Z" fill="#4FB7E3"/>
<path d="M40.2511 28.8623L38.9966 28.5262C38.4438 28.3782 38.2148 29.233 38.7675 29.3811L40.022 29.7172C40.5554 29.8602 40.7978 29.0088 40.2511 28.8623Z" fill="#4FB7E3"/>
<path d="M38.8257 22.2254C38.8637 22.2254 38.9022 22.2205 38.9406 22.2102L40.1951 21.874C40.7477 21.7259 40.5187 20.8712 39.9659 21.0191L38.7114 21.3552C38.2163 21.4879 38.3314 22.2254 38.8257 22.2254Z" fill="#4FB7E3"/>
<circle cx="25" cy="25" r="24.5" stroke="#4FB7E3" stroke-opacity="0.3" stroke-dasharray="1 1"/>
</svg>
