<svg width="80" height="80" viewBox="0 0 80 80" fill="none" xmlns="http://www.w3.org/2000/svg">
<circle cx="40" cy="40" r="39.5" stroke="#4FB7E3" stroke-opacity="0.3" stroke-dasharray="1 1"/>
<path d="M56.2643 40.2451C56.1133 39.9363 56.1133 39.582 56.2643 39.2732L57.6636 36.4107C58.4427 34.8168 57.8254 32.9171 56.2583 32.0856L53.4437 30.5923C53.14 30.4312 52.9319 30.1445 52.8724 29.8061L52.322 26.6677C52.0155 24.9203 50.3991 23.7461 48.6429 23.9946L45.4881 24.4409C45.1476 24.4889 44.8109 24.3795 44.5638 24.1405L42.2739 21.9252C40.9988 20.6916 39.0012 20.6916 37.7262 21.9252L35.4362 24.1407C35.1891 24.3797 34.8524 24.489 34.5119 24.4411L31.3571 23.9948C29.6003 23.7462 27.9845 24.9205 27.678 26.6679L27.1276 29.8061C27.0681 30.1447 26.86 30.4313 26.5564 30.5924L23.7418 32.0858C22.1747 32.9172 21.5574 34.817 22.3365 36.4109L23.7357 39.2734C23.8867 39.5823 23.8867 39.9365 23.7357 40.2453L22.3364 43.1078C21.5573 44.7016 22.1746 46.6013 23.7417 47.4328L26.5563 48.9262C26.86 49.0872 27.0681 49.3739 27.1276 49.7124L27.678 52.8507C27.9571 54.4414 29.321 55.557 30.8887 55.5569C31.043 55.5569 31.1997 55.546 31.3572 55.5238L34.512 55.0775C34.8522 55.0292 35.1891 55.1389 35.4362 55.3779L37.7262 57.5932C38.3639 58.21 39.1818 58.5184 40 58.5183C40.818 58.5182 41.6364 58.2099 42.2738 57.5932L44.5638 55.3779C44.8109 55.1389 45.1477 55.0297 45.4881 55.0775L48.6429 55.5238C50.3999 55.7723 52.0155 54.598 52.322 52.8507L52.8725 49.7124C52.9319 49.3739 53.1401 49.0873 53.4437 48.9262L56.2583 47.4328C57.8254 46.6014 58.4427 44.7015 57.6636 43.1077L56.2643 40.2451ZM55.244 45.5212L52.4295 47.0146C51.5321 47.4908 50.9167 48.3378 50.7412 49.3384L50.1907 52.4767C50.087 53.0679 49.5405 53.465 48.946 53.3811L45.7912 52.9349C44.7851 52.7923 43.7895 53.1162 43.0593 53.8225L40.7693 56.0377C40.338 56.455 39.6621 56.455 39.2307 56.0377L36.9407 53.8224C36.3235 53.2254 35.5168 52.9019 34.6745 52.9019C34.5202 52.9019 34.3646 52.9127 34.2088 52.9348L31.054 53.3811C30.4601 53.465 29.913 53.0679 29.8093 52.4767L29.2588 49.3383C29.0832 48.3376 28.4678 47.4906 27.5704 47.0145L24.7558 45.5211C24.2256 45.2398 24.0167 44.5971 24.2803 44.0579L25.6796 41.1953C26.1257 40.2826 26.1257 39.2357 25.6796 38.323L24.2803 35.4604C24.0167 34.9212 24.2256 34.2785 24.7558 33.9971L27.5704 32.5038C28.4677 32.0275 29.0832 31.1806 29.2587 30.1799L29.8091 27.0416C29.9129 26.4504 30.4594 26.0533 31.0539 26.1372L34.2087 26.5835C35.2144 26.7259 36.2103 26.4022 36.9405 25.6959L39.2306 23.4806C39.6619 23.0633 40.3377 23.0633 40.7692 23.4806L43.0592 25.6959C43.7894 26.4023 44.7851 26.7259 45.791 26.5835L48.9458 26.1372C49.5399 26.0532 50.0869 26.4504 50.1906 27.0416L50.741 30.18C50.9166 31.1807 51.532 32.0277 52.4294 32.5038L55.244 33.9971C55.7742 34.2785 55.983 34.9212 55.7195 35.4604L54.3202 38.3229C53.8741 39.2356 53.8741 40.2826 54.3202 41.1952L55.7195 44.0577C55.9831 44.5971 55.7743 45.2399 55.244 45.5212Z" fill="#4FB7E3"/>
<path d="M47.9052 31.8535C47.4828 31.431 46.7976 31.431 46.3751 31.8535L32.0942 46.1345C31.6717 46.557 31.6717 47.2421 32.0942 47.6646C32.3055 47.8758 32.5824 47.9815 32.8592 47.9815C33.1361 47.9815 33.4131 47.8759 33.6243 47.6646L47.9052 33.3837C48.3278 32.9611 48.3278 32.2761 47.9052 31.8535Z" fill="#4FB7E3"/>
<path d="M35.6722 30.022C33.4848 30.022 31.7051 31.8017 31.7051 33.9891C31.7051 36.1766 33.4848 37.9563 35.6722 37.9563C37.8597 37.9563 39.6394 36.1766 39.6394 33.9891C39.6394 31.8017 37.8597 30.022 35.6722 30.022ZM35.6722 35.7923C34.6779 35.7923 33.869 34.9834 33.869 33.989C33.869 32.9948 34.6779 32.1858 35.6722 32.1858C36.6665 32.1858 37.4755 32.9948 37.4755 33.989C37.4754 34.9834 36.6665 35.7923 35.6722 35.7923Z" fill="#4FB7E3"/>
<path d="M44.3275 41.5625C42.14 41.5625 40.3604 43.3422 40.3604 45.5296C40.3604 47.7171 42.14 49.4968 44.3275 49.4968C46.515 49.4968 48.2946 47.7171 48.2946 45.5296C48.2946 43.3422 46.515 41.5625 44.3275 41.5625ZM44.3275 47.3328C43.3332 47.3328 42.5242 46.5239 42.5242 45.5296C42.5242 44.5354 43.3331 43.7264 44.3275 43.7264C45.3218 43.7264 46.1307 44.5354 46.1307 45.5296C46.1307 46.5239 45.3218 47.3328 44.3275 47.3328Z" fill="#4FB7E3"/>
</svg>
