<svg width="25" height="25" viewBox="0 0 25 25" fill="none" xmlns="http://www.w3.org/2000/svg">
<path d="M23.2749 21.926V9.02851L24.3803 7.92315C24.5398 7.7639 24.5399 7.50551 24.3807 7.34602C24.3577 7.323 24.3321 7.30286 24.3043 7.28596L12.4628 0.0598258C12.3321 -0.0199419 12.1679 -0.0199419 12.0373 0.0598258L0.195714 7.28596C0.0032572 7.4033 -0.0576094 7.65442 0.0597215 7.84683C0.0766129 7.87458 0.0968061 7.90018 0.119775 7.92315L1.22514 9.02851V21.926C0.548903 21.9267 0.000864627 22.4747 0.000146861 23.151V23.9676C0.000146861 24.1931 0.182938 24.3759 0.40846 24.3759H24.0915C24.3171 24.3759 24.4999 24.1931 24.4999 23.9676V23.151C24.4991 22.4747 23.9512 21.9267 23.2749 21.926ZM1.06426 7.71261L12.25 0.886645L23.4358 7.71261L22.8059 8.34271L12.464 1.97846C12.3328 1.8975 12.1672 1.8975 12.0361 1.97846L1.69417 8.34271L1.06426 7.71261ZM21.2333 20.2927H2.04176V19.476H22.4582V20.2927H21.2333ZM22.4582 21.1093V21.926H21.6416V21.1093H22.4582ZM20.8249 21.1093V21.926H20.0083V21.1093H20.8249ZM19.1916 21.1093V21.926H18.3749V21.1093H19.1916ZM17.5583 21.1093V21.926H16.7416V21.1093H17.5583ZM15.925 21.1093V21.926H15.1083V21.1093H15.925ZM14.2916 21.1093V21.926H13.475V21.1093H14.2916ZM12.6583 21.1093V21.926H11.8417V21.1093H12.6583ZM11.025 21.1093V21.926H10.2084V21.1093H11.025ZM9.39169 21.1093V21.926H8.57502V21.1093H9.39169ZM7.75839 21.1093V21.926H6.94171V21.1093H7.75839ZM6.12509 21.1093V21.926H5.30841V21.1093H6.12509ZM4.49174 21.1093V21.926H3.67511V21.1093H4.49174ZM2.85844 21.1093V21.926H2.04176V21.1093H2.85844ZM3.67511 18.6594V17.9663L4.08342 17.3538L4.49174 17.9663V18.6594H3.67511ZM6.94171 18.6594V17.9663L7.35003 17.3538L7.75834 17.9663V18.6594H6.94171ZM10.2084 18.6594V17.9663L10.6167 17.3538L11.025 17.9663V18.6594H10.2084ZM13.475 18.6594V17.9663L13.8833 17.3538L14.2916 17.9663V18.6594H13.475ZM16.7416 18.6594V17.9663L17.1499 17.3538L17.5582 17.9663V18.6594H16.7416ZM20.0083 18.6594V17.9663L20.4166 17.3538L20.8249 17.9663V18.6594H20.0083ZM21.6416 18.6594V17.8427C21.6415 17.7621 21.6177 17.6833 21.573 17.6162L20.7563 16.3912C20.6164 16.2036 20.3508 16.1649 20.1632 16.3048C20.1304 16.3293 20.1012 16.3584 20.0768 16.3912L19.2601 17.6162C19.2154 17.6833 19.1915 17.7621 19.1915 17.8427V18.6594H18.3749V17.8427C18.3748 17.7621 18.351 17.6833 18.3063 17.6162L17.4896 16.3912C17.3497 16.2036 17.0841 16.1649 16.8965 16.3048C16.8637 16.3293 16.8345 16.3584 16.8101 16.3912L15.9934 17.6162C15.9487 17.6833 15.9248 17.7621 15.9248 17.8427V18.6594H15.1082V17.8427C15.1081 17.7621 15.0843 17.6833 15.0396 17.6162L14.2229 16.3912C14.083 16.2036 13.8174 16.1649 13.6298 16.3048C13.597 16.3293 13.5678 16.3584 13.5434 16.3912L12.7267 17.6162C12.682 17.6833 12.6582 17.7621 12.6582 17.8427V18.6594H11.8415V17.8427C11.8414 17.7621 11.8176 17.6833 11.7729 17.6162L10.9562 16.3912C10.8163 16.2036 10.5507 16.1649 10.3631 16.3048C10.3303 16.3293 10.3011 16.3584 10.2767 16.3912L9.46002 17.6162C9.41533 17.6833 9.39145 17.7621 9.39145 17.8427V18.6594H8.57478V17.8427C8.57473 17.7621 8.5509 17.6833 8.50616 17.6162L7.68948 16.3912C7.54957 16.2036 7.28404 16.1649 7.09642 16.3048C7.06359 16.3293 7.0345 16.3584 7.01 16.3912L6.19332 17.6162C6.14863 17.6833 6.12475 17.7621 6.12475 17.8427V18.6594H5.30808V17.8427C5.30803 17.7621 5.2842 17.6833 5.23946 17.6162L4.42278 16.3912C4.28287 16.2036 4.01734 16.1649 3.82972 16.3048C3.79689 16.3293 3.76775 16.3584 3.7433 16.3912L2.92662 17.6162C2.88193 17.6833 2.85805 17.7621 2.85805 17.8427V18.6594H2.04176V9.08751L12.25 2.80567L22.4582 9.08751V18.6593H21.6416V18.6594ZM23.6832 23.5593H0.816774V23.151C0.817061 22.9256 0.999708 22.743 1.22509 22.7427H23.2749C23.5003 22.743 23.6829 22.9256 23.6832 23.151V23.5593H23.6832Z" fill="#4FB7E3"/>
<path d="M12.2504 4.77612C10.6725 4.77789 9.39386 6.05657 9.39209 7.63441C9.39209 9.21302 10.6718 10.4927 12.2504 10.4927C13.8289 10.4927 15.1087 9.21297 15.1087 7.63441C15.1087 6.05585 13.829 4.77612 12.2504 4.77612ZM11.842 9.63478C11.041 9.46965 10.4151 8.84375 10.25 8.04273H11.842V9.63478ZM11.842 7.2261H10.25C10.4151 6.42507 11.041 5.79918 11.842 5.63405V7.2261ZM12.6587 9.63478V8.04273H14.2507C14.0856 8.84375 13.4597 9.46969 12.6587 9.63478ZM12.6587 7.2261V5.63405C13.4597 5.79918 14.0856 6.42507 14.2507 7.2261H12.6587Z" fill="#4FB7E3"/>
<path d="M8.16667 10.4927H3.26671C3.04119 10.4927 2.8584 10.6755 2.8584 10.901V14.9843C2.8584 15.2098 3.04119 15.3926 3.26671 15.3926H8.16667C8.39219 15.3926 8.57498 15.2098 8.57498 14.9843V10.901C8.57503 10.6755 8.39219 10.4927 8.16667 10.4927ZM5.30837 14.576H3.67507V13.351H5.30837V14.576ZM5.30837 12.5343H3.67507V11.3094H5.30837V12.5343ZM7.75835 14.576H6.12505V13.351H7.75835V14.576ZM7.75835 12.5343H6.12505V11.3094H7.75835V12.5343Z" fill="#4FB7E3"/>
<path d="M21.2336 10.4927H16.3336C16.1081 10.4927 15.9253 10.6755 15.9253 10.901V14.9843C15.9253 15.2098 16.1081 15.3926 16.3336 15.3926H21.2336C21.4591 15.3926 21.6419 15.2098 21.6419 14.9843V10.901C21.6419 10.6755 21.4591 10.4927 21.2336 10.4927ZM18.3753 14.576H16.742V13.351H18.3753V14.576ZM18.3753 12.5343H16.742V11.3094H18.3753V12.5343ZM20.8252 14.576H19.1919V13.351H20.8252V14.576ZM20.8252 12.5343H19.1919V11.3094H20.8252V12.5343Z" fill="#4FB7E3"/>
</svg>
