<svg width="36" height="28" viewBox="0 0 36 28" fill="none" xmlns="http://www.w3.org/2000/svg">
<path d="M34.5939 2.85558H30.3777C30.3198 2.85558 30.268 2.87215 30.2157 2.88871C29.3715 2.97154 28.7066 3.68101 28.692 4.55613C28.692 4.56128 28.6892 4.56584 28.6892 4.57041V6.85305H27.5328C27.4023 6.20242 26.8342 5.71173 26.1553 5.71173C25.4753 5.71173 24.9072 6.20356 24.7773 6.85591H24.1789V5.1405C24.1789 5.13422 24.1755 5.12908 24.1755 5.12337C24.1744 5.08566 24.162 5.04911 24.153 5.01198C24.144 4.97485 24.1401 4.93657 24.1237 4.9023C24.1215 4.89716 24.1221 4.89087 24.1192 4.88573L22.2277 1.04307C22.3824 0.941388 22.4915 0.772303 22.4915 0.57123C22.4915 0.25534 22.2401 0 21.929 0H10.6782C10.3672 0 10.1158 0.25534 10.1158 0.57123C10.1158 0.772874 10.2243 0.941388 10.3796 1.04307L8.48802 4.88573C8.48521 4.89145 8.48577 4.89773 8.48353 4.90287C8.46778 4.93657 8.46328 4.97427 8.45428 5.0114C8.44528 5.04911 8.4329 5.08566 8.43178 5.12337C8.43178 5.12965 8.4284 5.13479 8.4284 5.1405V6.85591H7.84964C7.71971 6.20356 7.15163 5.71173 6.47162 5.71173C5.79217 5.71173 5.22465 6.20299 5.09416 6.85419H2.81228C1.26159 6.85419 0 8.13546 0 9.71035V14.8537C0 15.1696 0.251418 15.4249 0.562456 15.4249H5.06548V23.2816C4.38435 23.7432 3.93438 24.5298 3.93438 25.4215C3.93438 26.8393 5.07054 27.9931 6.46712 27.9931C7.86314 27.9931 8.9993 26.8393 8.9993 25.4215C8.9993 24.5315 8.55215 23.7466 7.87439 23.2851V19.9931H24.7492V26.8575H24.1867C23.8757 26.8575 23.6243 27.1129 23.6243 27.4288C23.6243 27.7447 23.8757 28 24.1867 28H28.1239C28.435 28 28.6864 27.7447 28.6864 27.4288C28.6864 27.1129 28.435 26.8575 28.1239 26.8575H27.5615V9.71377H29.8113C30.7377 9.71377 31.4914 8.95232 31.4998 8.01265C31.5004 8.00694 31.5032 8.00179 31.5032 7.99665V5.71345H34.5939C34.6 5.71345 34.6045 5.71002 34.6102 5.71002C35.3779 5.70088 36 5.06567 36 4.28366C36 3.49593 35.3695 2.85558 34.5939 2.85558ZM7.87776 17.1363V9.71149H8.4284V13.7107C8.4284 15.2856 9.68999 16.5668 11.2407 16.5668H21.3666C22.9173 16.5668 24.1789 15.2856 24.1789 13.7107L24.1783 13.7078V9.71149H24.7492V17.1363H7.87776ZM21.0184 1.14189L22.7058 4.56927H9.90148L11.5888 1.14189H21.0184ZM23.0534 5.71173V13.7107L23.0539 13.7124C23.0528 14.6566 22.2963 15.4244 21.3666 15.4244H11.2407C10.3104 15.4244 9.55332 14.6555 9.55332 13.7107V9.1871C9.55444 9.17111 9.56288 9.15682 9.56288 9.14026C9.56288 9.12369 9.55444 9.10941 9.55332 9.09342V7.47398C9.55444 7.45798 9.56288 7.4437 9.56288 7.42714C9.56288 7.41057 9.55444 7.39629 9.55332 7.3803V5.71173H23.0534ZM24.7492 7.99837V8.56903H24.1783V7.99837H24.7492ZM8.4284 8.56903H7.87776V7.99837H8.4284V8.56903ZM1.12491 14.2825V13.7124H1.68681C1.99784 13.7124 2.24926 13.457 2.24926 13.1412C2.24926 12.8253 1.99784 12.5699 1.68681 12.5699H1.12491V11.997H1.68681C1.99784 11.997 2.24926 11.7416 2.24926 11.4258C2.24926 11.1099 1.99784 10.8545 1.68681 10.8545H1.12491V10.2816H1.68681C1.99784 10.2816 2.24926 10.0262 2.24926 9.71035C2.24926 9.39445 1.99784 9.13911 1.68681 9.13911H1.22897C1.46182 8.47592 2.08052 7.99665 2.81228 7.99665H5.06548V14.2825H1.12491ZM6.46712 26.8507C5.69093 26.8507 5.05929 26.2098 5.05929 25.4215C5.05929 24.6332 5.69093 23.9917 6.46712 23.9917C7.24331 23.9917 7.87439 24.6332 7.87439 25.4215C7.87439 26.2098 7.24331 26.8507 6.46712 26.8507ZM25.8741 26.8575V19.4218C25.8741 19.1059 25.6227 18.8506 25.3116 18.8506H7.31193C7.00089 18.8506 6.74947 19.1059 6.74947 19.4218V22.8783C6.65554 22.8675 6.56386 22.8492 6.46712 22.8492C6.37207 22.8492 6.28263 22.8669 6.19039 22.8778V7.13981C6.19039 6.98272 6.31694 6.85419 6.47162 6.85419C6.6263 6.85419 6.75285 6.98272 6.75285 7.13981V17.691C6.75285 17.6973 6.74947 17.7019 6.74947 17.7076C6.74947 18.0235 7.00089 18.2788 7.31193 18.2788H25.3116C25.6227 18.2788 25.8741 18.0235 25.8741 17.7076V7.13981C25.8741 6.98272 26.0007 6.85419 26.1553 6.85419C26.31 6.85419 26.4366 6.98272 26.4366 7.13981V26.8575H25.8741ZM29.8113 8.57131H27.5615V7.99551H29.2488L29.2517 7.99608C29.5627 7.99608 29.8141 7.74074 29.8141 7.42485V4.58469C29.8141 4.26995 30.0655 4.01461 30.3754 4.01461C30.4047 4.01461 30.4294 4.00261 30.4576 3.99804H34.5939C34.7485 3.99804 34.8751 4.12657 34.8751 4.28366C34.8751 4.44075 34.7485 4.56927 34.5939 4.56927C34.591 4.56927 34.5882 4.57099 34.5854 4.57099H30.9407C30.6297 4.57099 30.3783 4.82633 30.3783 5.14222V7.98866C30.3783 7.99151 30.3766 7.99437 30.3766 7.99723C30.3766 8.31369 30.1229 8.57131 29.8113 8.57131Z" fill="#4FB7E3"/>
</svg>
