<svg width="80" height="80" viewBox="0 0 80 80" fill="none" xmlns="http://www.w3.org/2000/svg">
<circle cx="40" cy="40.0002" r="39.5" stroke="#4FB7E3" stroke-opacity="0.3" stroke-dasharray="1 1"/>
<path d="M59 44.9887L54.9395 38.5862H46.461V35.0002H23V37.1096H44.3517V51.9456H34.4203C33.9564 50.2567 32.4084 49.0119 30.5742 49.0119C28.7401 49.0119 27.1921 50.2567 26.7285 51.9456H24.0547V54.0549H26.7285C27.1921 55.7438 28.7404 56.9886 30.5742 56.9886C32.4084 56.9886 33.9564 55.7438 34.42 54.0549H47.5797C48.0436 55.7438 49.5916 56.9886 51.4255 56.9886C53.2596 56.9886 54.8076 55.7438 55.2712 54.0549H59V44.9887ZM30.5742 54.8792C29.5382 54.8792 28.6953 54.0363 28.6953 53.0002C28.6953 51.9642 29.5382 51.1213 30.5742 51.1213C31.6105 51.1213 32.4535 51.9642 32.4535 53.0002C32.4535 54.0363 31.6105 54.8792 30.5742 54.8792ZM51.4258 54.8792C50.3895 54.8792 49.5465 54.0363 49.5465 53.0002C49.5465 51.9642 50.3895 51.1213 51.4258 51.1213C52.4618 51.1213 53.3047 51.9642 53.3047 53.0002C53.3047 54.0363 52.4618 54.8792 51.4258 54.8792ZM56.8906 51.9456H55.2715C54.8079 50.2567 53.2596 49.0119 51.4258 49.0119C49.5916 49.0119 48.0436 50.2567 47.5797 51.9456H46.4608V40.6956H53.7793L56.8906 45.6012V51.9456Z" fill="#4FB7E3"/>
<path d="M23 38.2874H29.8403V40.2209H23V38.2874Z" fill="#4FB7E3"/>
<path d="M25.4531 44.6797H32.2932V46.6133H25.4531V44.6797Z" fill="#4FB7E3"/>
<path d="M24.2266 41.1982H31.0667V43.1318H24.2266V41.1982Z" fill="#4FB7E3"/>
<path d="M36.399 22.3002V30.0002H34.617V23.7302H33.077V22.3002H36.399ZM40.9046 20.7382H42.4336L38.8036 31.1002H37.2746L40.9046 20.7382ZM48.4572 28.5482V30.0002H42.6382V28.8452L45.6082 26.0402C45.9236 25.7396 46.1362 25.4829 46.2462 25.2702C46.3562 25.0502 46.4112 24.8339 46.4112 24.6212C46.4112 24.3132 46.3049 24.0786 46.0922 23.9172C45.8869 23.7486 45.5826 23.6642 45.1792 23.6642C44.8419 23.6642 44.5376 23.7302 44.2662 23.8622C43.9949 23.9869 43.7676 24.1776 43.5842 24.4342L42.2862 23.5982C42.5869 23.1509 43.0012 22.8026 43.5292 22.5532C44.0572 22.2966 44.6622 22.1682 45.3442 22.1682C45.9162 22.1682 46.4149 22.2636 46.8402 22.4542C47.2729 22.6376 47.6066 22.9016 47.8412 23.2462C48.0832 23.5836 48.2042 23.9832 48.2042 24.4452C48.2042 24.8632 48.1162 25.2556 47.9402 25.6222C47.7642 25.9889 47.4232 26.4069 46.9172 26.8762L45.1462 28.5482H48.4572Z" fill="#4FB7E3"/>
</svg>
