<svg width="73" height="73" viewBox="0 0 73 73" fill="none" xmlns="http://www.w3.org/2000/svg">
<circle cx="36.5" cy="36.5" r="36" stroke="#4FB7E3" stroke-opacity="0.3" stroke-dasharray="1 1"/>
<path d="M53.3846 21H26.8414C25.9497 21.001 25.227 21.7237 25.226 22.6154V29.9367L24.0122 28.116C23.4566 27.2779 22.3393 27.0265 21.4783 27.5459L18.9811 29.0472C18.1633 29.5271 17.5634 30.3053 17.3074 31.2182C16.3964 34.5352 17.0724 40.2499 25.4604 48.6392C32.131 55.3029 37.1045 57.0976 40.5324 57.0976C41.326 57.1012 42.1165 56.9981 42.8826 56.791C43.7952 56.535 44.5734 55.9359 45.0542 55.1193L46.5537 52.6195C47.071 51.7591 46.8197 50.6441 45.9835 50.0886L40.004 46.1027C39.1838 45.5602 38.0843 45.7386 37.4777 46.5126L35.7368 48.7507C35.5548 48.9902 35.2248 49.0599 34.9614 48.9147L34.6301 48.7323C33.5398 48.1381 32.1829 47.3981 29.4424 44.6577C29.1459 44.3612 28.8773 44.0838 28.6252 43.8183H53.3846C54.2741 43.819 54.9965 43.1 55 42.2105V22.6154C54.999 21.7237 54.2763 21.001 53.3846 21ZM34.0238 49.8448L34.3457 50.0215C35.1546 50.4739 36.1729 50.264 36.7371 49.5287L38.4779 47.2906C38.6758 47.0385 39.034 46.9803 39.3014 47.1569L45.2809 51.1428C45.5526 51.3239 45.6342 51.6863 45.4665 51.9663L43.9671 54.4661C43.654 55.0031 43.1452 55.398 42.5475 55.5684C39.553 56.3919 34.3121 55.6951 26.358 47.7404C18.4038 39.7856 17.7096 34.5453 18.5312 31.5533C18.7014 30.9557 19.0962 30.447 19.6328 30.1337L22.1326 28.6336C22.4127 28.4663 22.7749 28.5478 22.9561 28.8192L26.9439 34.7987C27.1207 35.0661 27.0626 35.4245 26.8102 35.6222L24.5714 37.3637C23.8363 37.9276 23.6263 38.9457 24.0786 39.7545L24.2559 40.0763C24.8894 41.2381 25.6768 42.6837 28.5472 45.5534C31.4177 48.4232 32.8627 49.2112 34.0238 49.8448ZM53.7331 42.2105C53.731 42.4011 53.5752 42.554 53.3847 42.5526H27.4824C26.6597 41.6117 25.9502 40.5776 25.3685 39.4713L25.186 39.1387C25.0405 38.8759 25.1101 38.5462 25.3494 38.3646L27.5882 36.6231C28.3625 36.0166 28.5409 34.917 27.9981 34.0968L26.4929 31.8377V22.6154C26.4919 22.5227 26.5283 22.4334 26.5938 22.3679C26.6594 22.3023 26.7486 22.266 26.8413 22.267H53.3846C53.4773 22.266 53.5666 22.3023 53.6321 22.3679C53.6977 22.4334 53.734 22.5227 53.733 22.6154V42.2105H53.7331Z" fill="#4FB7E3"/>
<path d="M51.2033 23.9331L40.6157 31.9626C40.3162 32.1803 39.9105 32.1803 39.611 31.9626L29.0274 23.9331C28.7485 23.7216 28.351 23.7763 28.1396 24.0551C27.9281 24.334 27.9827 24.7315 28.2615 24.9429L38.8465 32.9717C39.5996 33.5281 40.6274 33.5281 41.3804 32.9717L51.9686 24.9429C52.1026 24.8414 52.1907 24.6907 52.2135 24.5241C52.2363 24.3575 52.192 24.1887 52.0902 24.0548C51.8788 23.7765 51.4819 23.7221 51.2033 23.9331Z" fill="#4FB7E3"/>
<path d="M34.7065 33.025L28.217 39.9744C27.9784 40.2303 27.9925 40.6312 28.2484 40.8698C28.5043 41.1084 28.9052 41.0944 29.1438 40.8385L35.6333 33.886C35.8477 33.6273 35.8229 33.2463 35.5768 33.0176C35.3306 32.7888 34.9487 32.7921 34.7065 33.025Z" fill="#4FB7E3"/>
<path d="M45.5608 33.0249C45.3222 32.769 44.9214 32.7549 44.6654 32.9936C44.4095 33.2322 44.3954 33.633 44.6341 33.889L51.1216 40.8384C51.3602 41.0943 51.7611 41.1084 52.0171 40.8697C52.273 40.6311 52.2871 40.2303 52.0484 39.9743L45.5608 33.0249Z" fill="#4FB7E3"/>
</svg>
