<svg width="50" height="50" viewBox="0 0 50 50" fill="none" xmlns="http://www.w3.org/2000/svg">
<circle cx="25" cy="25" r="24.5" stroke="#4FB7E3" stroke-opacity="0.3" stroke-dasharray="1 1"/>
<path d="M35.8795 24.3092C35.6578 22.0799 34.6619 19.9781 33.0749 18.3911C31.7187 17.0349 30.0587 16.1635 28.3121 15.7759V14.5509C29.0255 14.3734 29.5558 13.7277 29.5558 12.9601C29.5558 12.0562 28.8204 11.3208 27.9164 11.3208H24.4449C23.541 11.3208 22.8056 12.0562 22.8056 12.9601C22.8056 13.7276 23.3359 14.3734 24.0492 14.5509V15.7794C22.3079 16.1685 20.6535 17.0388 19.3011 18.3911C19.0052 18.6871 18.7323 18.9975 18.4825 19.3202C18.4704 19.3193 18.4583 19.3184 18.4459 19.3184H15.0101C14.7438 19.3184 14.5279 19.5342 14.5279 19.8005C14.5279 20.0668 14.7438 20.2827 15.0101 20.2827H17.8264C17.4729 20.8745 17.1878 21.4961 16.9709 22.1359H11.7234C11.4571 22.1359 11.2412 22.3517 11.2412 22.618C11.2412 22.8843 11.4571 23.1002 11.7234 23.1002H16.6984C16.5595 23.7102 16.4797 24.3309 16.4591 24.9534H14.327C14.0607 24.9534 13.8448 25.1693 13.8448 25.4356C13.8448 25.7019 14.0607 25.9177 14.327 25.9177H16.4745C16.5152 26.5418 16.6155 27.1627 16.7756 27.771H13.652C13.3857 27.771 13.1698 27.9869 13.1698 28.2532C13.1698 28.5194 13.3857 28.7353 13.652 28.7353H17.0833C17.5563 29.9865 18.2954 31.1593 19.3011 32.165C20.8896 33.7535 22.9936 34.7497 25.2252 34.9702C25.5438 35.0016 25.8625 35.0172 26.1808 35.0172C28.0623 35.0172 29.9198 34.4727 31.496 33.4463C31.7191 33.301 31.7822 33.0023 31.6369 32.7791C31.4916 32.556 31.1929 32.4929 30.9698 32.6382C27.5196 34.8849 22.899 34.3991 19.983 31.4831C16.5615 28.0616 16.5615 22.4946 19.983 19.0731C23.4044 15.6516 28.9715 15.6516 32.393 19.0731C35.3051 21.9853 35.7936 26.6019 33.5543 30.0504C33.4093 30.2737 33.4728 30.5724 33.6961 30.7173C33.9195 30.8624 34.218 30.7989 34.363 30.5755C35.5594 28.733 36.098 26.5076 35.8795 24.3092ZM23.7699 12.9602C23.7699 12.5879 24.0727 12.2852 24.4449 12.2852H27.9164C28.2887 12.2852 28.5914 12.5879 28.5914 12.9602C28.5914 13.3324 28.2887 13.6352 27.9164 13.6352H27.8299H24.5314H24.4449C24.0727 13.6352 23.7699 13.3323 23.7699 12.9602ZM25.0135 15.6136V14.5995H27.3478V15.6119C26.5727 15.5197 25.7885 15.5203 25.0135 15.6136Z" fill="#4FB7E3"/>
<path d="M32.7341 31.3416C32.6068 31.3416 32.4829 31.3931 32.3933 31.4828C32.3031 31.5725 32.252 31.6969 32.252 31.8237C32.252 31.9505 32.3031 32.0749 32.3933 32.1646C32.4829 32.2547 32.6069 32.3058 32.7341 32.3058C32.8609 32.3058 32.9848 32.2547 33.075 32.1646C33.1647 32.0749 33.2162 31.9505 33.2162 31.8237C33.2162 31.6969 33.1647 31.5725 33.075 31.4828C32.9848 31.3931 32.8609 31.3416 32.7341 31.3416Z" fill="#4FB7E3"/>
<path d="M26.1876 17.7983C22.0634 17.7983 18.708 21.1536 18.708 25.2779C18.708 29.4022 22.0634 32.7575 26.1876 32.7575C30.3118 32.7575 33.6672 29.4022 33.6672 25.2779C33.6672 21.1536 30.3118 17.7983 26.1876 17.7983ZM26.1876 31.7932C22.595 31.7932 19.6723 28.8705 19.6723 25.2779C19.6723 21.6854 22.595 18.7626 26.1876 18.7626C29.7802 18.7626 32.7029 21.6854 32.7029 25.2779C32.7029 28.8705 29.7802 31.7932 26.1876 31.7932Z" fill="#4FB7E3"/>
<path d="M29.2384 21.5462L26.8503 23.9343C26.6506 23.8356 26.4259 23.7798 26.1885 23.7798C25.951 23.7798 25.7264 23.8356 25.5267 23.9343L24.4579 22.8655C24.2696 22.6772 23.9644 22.6772 23.776 22.8655C23.5877 23.0538 23.5877 23.3591 23.776 23.5474L24.8448 24.6162C24.746 24.8159 24.6902 25.0405 24.6902 25.278C24.6902 26.1041 25.3623 26.7762 26.1885 26.7762C27.0146 26.7762 27.6867 26.1041 27.6867 25.278C27.6867 25.0405 27.6309 24.8159 27.5322 24.6162L29.8502 22.2982L29.9202 22.2281C30.1085 22.0398 30.1085 21.7345 29.9202 21.5462C29.732 21.358 29.4268 21.358 29.2384 21.5462ZM26.1885 25.8119C25.8941 25.8119 25.6545 25.5724 25.6545 25.278C25.6545 24.9836 25.8941 24.7441 26.1885 24.7441C26.4829 24.7441 26.7224 24.9836 26.7224 25.278C26.7224 25.5724 26.4829 25.8119 26.1885 25.8119Z" fill="#4FB7E3"/>
<path d="M31.3429 24.8018H30.8962C30.63 24.8018 30.4141 25.0176 30.4141 25.2839C30.4141 25.5502 30.63 25.766 30.8962 25.766H31.3429C31.6092 25.766 31.8251 25.5502 31.8251 25.2839C31.8251 25.0176 31.6092 24.8018 31.3429 24.8018Z" fill="#4FB7E3"/>
<path d="M21.4796 24.79H21.0329C20.7667 24.79 20.5508 25.0059 20.5508 25.2722C20.5508 25.5385 20.7667 25.7543 21.0329 25.7543H21.4796C21.7458 25.7543 21.9617 25.5385 21.9617 25.2722C21.9617 25.0059 21.7458 24.79 21.4796 24.79Z" fill="#4FB7E3"/>
<path d="M26.195 21.0518C26.4613 21.0518 26.6772 20.836 26.6772 20.5697V20.123C26.6772 19.8567 26.4613 19.6409 26.195 19.6409C25.9288 19.6409 25.7129 19.8567 25.7129 20.123V20.5697C25.7129 20.836 25.9288 21.0518 26.195 21.0518Z" fill="#4FB7E3"/>
<path d="M26.1823 29.5042C25.9161 29.5042 25.7002 29.72 25.7002 29.9863V30.433C25.7002 30.6992 25.9161 30.9151 26.1823 30.9151C26.4486 30.9151 26.6645 30.6992 26.6645 30.433V29.9863C26.6645 29.72 26.4486 29.5042 26.1823 29.5042Z" fill="#4FB7E3"/>
<path d="M11.7234 27.7708C11.5966 27.7708 11.4722 27.8223 11.3825 27.912C11.2928 28.0017 11.2412 28.1261 11.2412 28.2529C11.2412 28.3802 11.2928 28.5041 11.3825 28.5938C11.4722 28.6835 11.5966 28.735 11.7234 28.735C11.8502 28.735 11.9746 28.6835 12.0642 28.5938C12.1539 28.5041 12.2055 28.3797 12.2055 28.2529C12.2055 28.1261 12.1539 28.0017 12.0642 27.912C11.9746 27.8223 11.8502 27.7708 11.7234 27.7708Z" fill="#4FB7E3"/>
</svg>
