<svg width="60" height="60" viewBox="0 0 60 60" fill="none" xmlns="http://www.w3.org/2000/svg">
<circle cx="30" cy="30" r="29.5" stroke="#4FB7E3" stroke-opacity="0.5" stroke-dasharray="1 1"/>
<path d="M34.3776 17.2732C30.6057 15.3672 26.0621 16.0959 23.0715 19.0865C19.5959 22.5621 19.248 28.1041 22.2624 31.9775C22.369 32.1144 22.5282 32.1861 22.6892 32.1861C22.8052 32.1861 22.9221 32.1489 23.0208 32.0721C23.2563 31.8888 23.2987 31.5493 23.1154 31.3137C20.4351 27.8697 20.7449 22.9417 23.8359 19.8507C26.4955 17.191 30.5359 16.5428 33.8903 18.2377C34.1566 18.3725 34.4817 18.2655 34.6163 17.9991C34.7509 17.7327 34.6441 17.4077 34.3776 17.2732Z" fill="#4FB7E3"/>
<path d="M38.6923 21.5891C38.5576 21.3227 38.2328 21.2159 37.9662 21.3503C37.6998 21.4849 37.5929 21.8099 37.7274 22.0764C39.4212 25.4302 38.7726 29.4702 36.1137 32.1291C33.0226 35.22 28.0946 35.5297 24.6506 32.8495C24.415 32.6663 24.0756 32.7086 23.8923 32.9441C23.7089 33.1797 23.7513 33.5192 23.9869 33.7025C25.7513 35.0756 27.8618 35.751 29.9655 35.751C32.4802 35.751 34.9855 34.7858 36.878 32.8933C39.8678 29.9035 40.5969 25.3607 38.6923 21.5891Z" fill="#4FB7E3"/>
<path d="M37.2961 19.5301C37.1622 19.3786 37.0216 19.229 36.8781 19.0855C36.7345 18.942 36.585 18.8014 36.4335 18.6675C36.2099 18.4698 35.8683 18.4909 35.6708 18.7146C35.473 18.9381 35.494 19.2796 35.7177 19.4773C35.8526 19.5965 35.9859 19.7219 36.1138 19.8497C36.2416 19.9777 36.367 20.1109 36.4863 20.2458C36.593 20.3666 36.7418 20.4283 36.8914 20.4283C37.0186 20.4283 37.1462 20.3837 37.249 20.2928C37.4727 20.0953 37.4938 19.7538 37.2961 19.5301Z" fill="#4FB7E3"/>
<path d="M42.7298 26.9583C43.0901 26.3671 43.0901 25.6328 42.7296 25.0418L42.0187 23.8759C41.9251 23.7223 41.8888 23.5398 41.9168 23.3622L42.1287 22.0158C42.2368 21.3297 41.9549 20.6497 41.3932 20.241L40.2914 19.4396C40.1457 19.3336 40.0422 19.179 39.9998 19.0039L39.6789 17.6778C39.516 17.0043 38.9964 16.4847 38.3229 16.3216L36.9967 16.0007C36.8217 15.9583 36.6669 15.8548 36.561 15.7091L35.7594 14.607C35.3509 14.0454 34.6708 13.7633 33.9849 13.8714L32.638 14.0833C32.4604 14.1113 32.2779 14.0751 32.1244 13.9815L30.9583 13.2703C30.3672 12.9099 29.6329 12.9099 29.0418 13.2703L27.8758 13.9813C27.7223 14.075 27.54 14.111 27.3621 14.0831L26.0157 13.8712C25.3297 13.7633 24.6496 14.0452 24.241 14.6068L23.4396 15.7086C23.3336 15.8543 23.1789 15.9578 23.0037 16.0002L21.6777 16.3211C21.0042 16.484 20.4845 17.0037 20.3215 17.6772L20.0006 19.0033C19.9582 19.1783 19.8547 19.3331 19.7089 19.439L18.6069 20.2406C18.0452 20.6491 17.7634 21.329 17.8713 22.0152L18.0832 23.3621C18.1111 23.5398 18.0749 23.7222 17.9813 23.8757L17.2702 25.0418C16.9099 25.633 16.9099 26.3673 17.2703 26.9583L17.9812 28.1242C18.0749 28.2779 18.1111 28.4603 18.0831 28.6379L17.8712 29.9844C17.7632 30.6705 18.0451 31.3506 18.6067 31.7591L19.7085 32.5606C19.8542 32.6664 19.9578 32.8212 20.0002 32.9963L20.321 34.3223C20.4839 34.9959 21.0036 35.5155 21.6771 35.6785L22.2308 35.8125L18.4833 44.172C18.4037 44.3497 18.4257 44.5564 18.5411 44.7132C18.6564 44.8701 18.8471 44.9528 19.0405 44.9296L22.0559 44.5691L23.793 47.06C23.8946 47.2056 24.0605 47.2912 24.2361 47.2912C24.2529 47.2912 24.2699 47.2904 24.2868 47.2889C24.4806 47.2707 24.6497 47.1495 24.7293 46.972L28.5567 38.434L29.0416 38.7297C29.3372 38.9099 29.6685 39 29.9999 39C30.3313 39 30.6626 38.9099 30.9582 38.7297L31.4606 38.4234L35.2928 46.972C35.3724 47.1497 35.5414 47.2707 35.7353 47.2889C35.7523 47.2905 35.7692 47.2913 35.786 47.2913C35.9616 47.2913 36.1275 47.2057 36.2291 47.06L37.9662 44.5692L40.9816 44.9297C41.1749 44.9527 41.3657 44.8701 41.481 44.7133C41.5963 44.5564 41.6185 44.3498 41.5388 44.1721L37.7893 35.808L38.3223 35.6791C38.9957 35.5162 39.5154 34.9965 39.6784 34.323L39.9994 32.9969C40.0418 32.8218 40.1453 32.667 40.291 32.5612L41.3931 31.7596C41.9547 31.3511 42.2366 30.6712 42.1287 29.985L41.9168 28.6381C41.8888 28.4604 41.925 28.278 42.0186 28.1244L42.7298 26.9583ZM24.1335 45.659L22.7569 43.685C22.6428 43.5213 22.4476 43.4337 22.2495 43.4575L19.8599 43.7432L23.2742 36.1266C23.3367 36.1725 23.3927 36.2275 23.4388 36.291L24.2404 37.3931C24.3165 37.4978 24.4021 37.5927 24.4954 37.6772L22.6983 41.6861C22.5762 41.9585 22.698 42.2782 22.9703 42.4003C23.0421 42.4325 23.1172 42.4477 23.191 42.4477C23.3974 42.4477 23.5946 42.3288 23.6844 42.1282L25.4752 38.1336C25.6514 38.1577 25.8328 38.1573 26.0149 38.1287L27.3618 37.9168C27.4425 37.9041 27.524 37.9053 27.6033 37.9184L24.1335 45.659ZM40.1623 43.7431L37.7727 43.4575C37.5743 43.4337 37.3794 43.5213 37.2653 43.685L35.8886 45.659L32.4174 37.9154C32.4902 37.9055 32.5645 37.9055 32.6379 37.917L33.9843 38.1289C34.1738 38.1587 34.3626 38.1577 34.5455 38.1305L36.3376 42.1284C36.4276 42.329 36.6246 42.4479 36.8311 42.4479C36.9049 42.4479 36.98 42.4326 37.0517 42.4004C37.3241 42.2784 37.4459 41.9586 37.3238 41.6863L35.5198 37.6621C35.6068 37.5813 35.6872 37.4919 35.759 37.3933L36.5604 36.2915C36.6109 36.222 36.6728 36.1625 36.7423 36.1143L40.1623 43.7431ZM41.8069 26.3956L41.0958 27.5617C40.8691 27.9337 40.7814 28.3756 40.8491 28.806L41.061 30.1529C41.1056 30.4361 40.9891 30.7168 40.7573 30.8854L39.6552 31.6871C39.3024 31.9437 39.0516 32.3186 38.9489 32.7426L38.628 34.0687C38.5607 34.3467 38.3462 34.5612 38.0682 34.6286L36.742 34.9494C36.318 35.052 35.943 35.3029 35.6864 35.6558L34.885 36.7576C34.7163 36.9895 34.4357 37.1058 34.1523 37.0612L32.8058 36.8493C32.3754 36.7815 31.9334 36.8691 31.5614 37.096L30.3955 37.8069C30.1515 37.9556 29.8483 37.9556 29.6044 37.8069L28.4383 37.0959C28.1483 36.919 27.8158 36.8269 27.4794 36.8269C27.3843 36.8269 27.2887 36.8342 27.194 36.8492L25.847 37.0611C25.5637 37.1057 25.2831 36.9892 25.1145 36.7574L24.3128 35.6553C24.0562 35.3026 23.6813 35.0517 23.2573 34.9491L21.9312 34.6281C21.6532 34.5608 21.4386 34.3464 21.3713 34.0683L21.0505 32.7423C20.9479 32.3182 20.697 31.9432 20.3441 31.6865L19.2424 30.885C19.0105 30.7164 18.8942 30.4356 18.9388 30.1524L19.1507 28.8059C19.2184 28.3755 19.1308 27.9336 18.904 27.5615L18.193 26.3955C18.0443 26.1516 18.0443 25.8484 18.193 25.6044L18.9041 24.4383C19.1309 24.0663 19.2185 23.6244 19.1508 23.1941L18.9389 21.8472C18.8944 21.5639 19.0108 21.2832 19.2426 21.1146L20.3447 20.313C20.6975 20.0563 20.9484 19.6815 21.051 19.2574L21.3719 17.9313C21.4393 17.6533 21.6537 17.4388 21.9318 17.3715L23.2579 17.0506C23.682 16.948 24.0569 16.6971 24.3135 16.3443L25.1149 15.2425C25.2836 15.0106 25.5642 14.8941 25.8476 14.9388L27.194 15.1507C27.6246 15.2186 28.0665 15.1308 28.4385 14.904L29.6043 14.193C29.8483 14.0444 30.1516 14.0444 30.3955 14.193L31.5616 14.904C31.9335 15.131 32.3756 15.2186 32.8059 15.1509L34.1528 14.9389C34.436 14.8945 34.7168 15.0108 34.8854 15.2426L35.687 16.3447C35.9437 16.6974 36.3186 16.9483 36.7426 17.0509L38.0687 17.3719C38.3467 17.4392 38.5612 17.6537 38.6285 17.9317L38.9494 19.2578C39.052 19.6819 39.3028 20.0569 39.6557 20.3135L40.7575 21.1149C40.9894 21.2836 41.1058 21.5643 41.0611 21.8476L40.8492 23.1941C40.7815 23.6245 40.8691 24.0664 41.096 24.4385L41.8069 25.6044C41.9557 25.8484 41.9557 26.1516 41.8069 26.3956Z" fill="#4FB7E3"/>
<path d="M36.3233 24.319C36.2042 23.9524 35.8924 23.6964 35.5096 23.651L32.2579 23.2655L30.8863 20.2921C30.7249 19.9421 30.3851 19.7246 29.9996 19.7246C29.6141 19.7246 29.2743 19.9421 29.1128 20.2921L27.7413 23.2655L24.4896 23.6511C24.1068 23.6965 23.7949 23.9525 23.6759 24.3191C23.5568 24.6855 23.6586 25.0759 23.9415 25.3376L26.3456 27.5609L25.7075 30.7726C25.6324 31.1507 25.7795 31.5263 26.0914 31.7528C26.2634 31.8778 26.4631 31.9411 26.664 31.9411C26.8274 31.9411 26.9915 31.8993 27.1422 31.8149L29.9995 30.2156L32.8568 31.8149C33.1932 32.0033 33.5958 31.9795 33.9077 31.7529C34.2196 31.5263 34.3667 31.1507 34.2916 30.7726L33.6534 27.5609L36.0575 25.3377C36.3405 25.076 36.4423 24.6857 36.3233 24.319ZM32.6976 26.9728C32.5597 27.1004 32.4979 27.2905 32.5345 27.4749L33.1875 30.7614L30.2635 29.1247C30.1815 29.0789 30.0905 29.0559 29.9995 29.0559C29.9085 29.0559 29.8176 29.0788 29.7356 29.1247L26.8116 30.7614L27.4646 27.4749C27.5013 27.2905 27.4395 27.1004 27.3014 26.9728L24.8413 24.6977L28.169 24.3031C28.3556 24.281 28.5174 24.1635 28.5961 23.9929L29.9996 20.9501L31.4031 23.9929C31.4818 24.1635 31.6435 24.281 31.8302 24.3031L35.1578 24.6977L32.6976 26.9728Z" fill="#4FB7E3"/>
</svg>
