<svg width="36" height="32" viewBox="0 0 36 32" fill="none" xmlns="http://www.w3.org/2000/svg">
<path fill-rule="evenodd" clip-rule="evenodd" d="M35.4184 2.00016C35.4184 0.825692 34.4111 -0.0959764 33.2413 0.00801083L1.82292 2.80075C0.791045 2.89248 0 3.75696 0 4.7929V9.3238V31.3552H2V10.3238H33.4184V31.3552H35.4184V9.3238V2.00016ZM2 7.81739L7.29688 4.32207L2 4.7929V7.81739ZM3.0482 8.3238H8.66887V4.61482L3.0482 8.3238ZM9.66887 4.3015V8.3238H15.7801L9.66887 4.3015ZM19.4927 8.3238H25.5018V3.22512L19.4927 8.3238ZM24.4616 2.79632L18.3329 7.9964V3.34109L24.4616 2.79632ZM26.5018 3.24695V8.3238H32.3039L26.5018 3.24695ZM33.4184 7.97014L27.2247 2.5507L33.4184 2.00016L33.4184 7.97014ZM17.3329 8.14861L11.0167 3.99142L17.3329 3.42998V8.14861Z" fill="white"/>
</svg>
