<svg width="34" height="28" viewBox="0 0 34 28" fill="none" xmlns="http://www.w3.org/2000/svg">
<path d="M31.1667 13.9175C31.162 13.8548 31.1512 13.7923 31.1348 13.7316L27.2861 2.79918L29.3007 0.796542L28.4993 0L26.6333 1.85493L24.7673 0L23.966 0.796542L25.6627 2.48259L17 6.53489L8.33731 2.48259L10.034 0.795992L9.23268 0L7.36667 1.85493L5.50065 0L4.69935 0.796542L6.71395 2.79918L2.86515 13.7316C2.84883 13.7923 2.83804 13.8548 2.83333 13.9175V26.8734H0V28H9.63333V26.8734H6.23333V20.1138H14.1667V26.8734H13.0333V28H26.6333V26.8734H19.8333V20.1138H27.7667V27.4367C27.7667 27.7478 28.0204 28 28.3333 28H34V26.8734H31.1667V13.9175ZM17.5667 15.6074V14.4808H30.0333V15.6074H17.5667ZM3.96667 15.6074V14.4808H16.4333V15.6074H3.96667ZM5.19076 10.5377L5.58726 9.41108H9.06667V8.28448H5.98348L6.37998 7.15788H7.93333V6.03128H6.77676L7.57474 3.76515L15.7748 13.3542H4.19909L4.79398 11.6643H10.2V10.5377H5.19076ZM27.62 7.15788L28.0165 8.28448H24.9333V9.41108H28.4133L28.8098 10.5377H23.8V11.6643H29.206L29.8009 13.3542H18.2252L26.4253 3.76515L27.2232 6.03128H26.0667V7.15788H27.62ZM17.5667 12.3846V7.51544L24.5067 4.26876L17.5667 12.3846ZM16.4333 7.51544V12.3846L9.49333 4.26876L16.4333 7.51544ZM3.96667 26.8734V16.734H5.1V26.8734H3.96667ZM6.23333 18.9872V16.734H7.36667V17.8606H8.5V16.734H9.63333V17.8606H10.7667V16.734H11.9V17.8606H13.0333V16.734H14.1667V18.9872H6.23333ZM15.3 16.734H16.4333V26.8734H15.3V16.734ZM17.5667 26.8734V16.734H18.7V26.8734H17.5667ZM19.8333 18.9872V16.734H20.9667V17.8606H22.1V16.734H23.2333V17.8606H24.3667V16.734H25.5V17.8606H26.6333V16.734H27.7667V18.9872H19.8333ZM28.9 26.8734V16.734H30.0333V26.8734H28.9Z" fill="#4FB7E3"/>
</svg>
