<svg width="60" height="60" viewBox="0 0 60 60" fill="none" xmlns="http://www.w3.org/2000/svg">
<circle cx="30" cy="30" r="29.5" stroke="#4FB7E3" stroke-opacity="0.5" stroke-dasharray="1 1"/>
<path d="M40.1758 36.0834H42.3252C42.6979 36.0834 43 35.7813 43 35.4086C43 35.0359 42.6979 34.7339 42.3252 34.7339H39.4102L35.6596 28.1229C36.0346 27.3213 36.2446 26.4277 36.2446 25.4857C36.2446 23.062 34.8567 20.9565 32.8339 19.9221V15.6748C32.8339 15.3021 32.5319 15 32.1592 15H27.8408C27.4681 15 27.1661 15.3021 27.1661 15.6748V19.9221C25.1433 20.9566 23.7554 23.0621 23.7554 25.4857C23.7554 26.4276 23.9654 27.3213 24.3404 28.1229L20.5899 34.7339H17.6748C17.3021 34.7339 17 35.0359 17 35.4086C17 35.7813 17.3021 36.0834 17.6748 36.0834H19.8242L17.2841 40.5608C17.2106 40.6903 17.182 40.8405 17.2027 40.9879L17.7505 44.8768C17.7797 45.0842 17.9036 45.2662 18.0857 45.3696C18.1886 45.4279 18.3034 45.4574 18.4187 45.4574C18.5076 45.4574 18.5966 45.4399 18.6806 45.4045L22.2999 43.8796C22.4371 43.8218 22.5513 43.7202 22.6248 43.5907L26.884 36.0833H33.1161L37.3754 43.5907C37.4488 43.7202 37.5631 43.8218 37.7002 43.8796L41.3195 45.4045C41.4035 45.4399 41.4925 45.4574 41.5814 45.4574C41.6966 45.4574 41.8116 45.4279 41.9144 45.3696C42.0966 45.2662 42.2204 45.0842 42.2496 44.8768L42.7974 40.9879C42.8181 40.8405 42.7895 40.6903 42.7161 40.5608L40.1758 36.0834ZM28.5156 16.3495H31.4844V19.4185C31.2628 19.3643 31.0381 19.3231 30.8111 19.2938C30.8039 19.2928 30.7968 19.2918 30.7896 19.2909C30.7511 19.286 30.7125 19.2818 30.6738 19.2776C30.6537 19.2755 30.6335 19.2733 30.6132 19.2712C30.5801 19.268 30.547 19.2651 30.5138 19.2624C30.4867 19.2602 30.4595 19.2582 30.4323 19.2563C30.4037 19.2543 30.3751 19.2524 30.3465 19.2508C30.3117 19.2489 30.2768 19.2475 30.2419 19.2462C30.2196 19.2453 30.1972 19.2442 30.1749 19.2436C30.1167 19.242 30.0584 19.2411 30 19.2411C29.9415 19.2411 29.8832 19.242 29.8251 19.2436C29.8027 19.2442 29.7803 19.2453 29.758 19.2462C29.7231 19.2476 29.6882 19.249 29.6535 19.2508C29.6248 19.2524 29.5962 19.2543 29.5677 19.2563C29.5404 19.2582 29.5132 19.2602 29.4861 19.2624C29.4529 19.2651 29.4198 19.268 29.3867 19.2712C29.3665 19.2732 29.3463 19.2754 29.3261 19.2776C29.2874 19.2817 29.2488 19.2861 29.2103 19.2909C29.2032 19.2918 29.1961 19.2928 29.1889 19.2938C28.9619 19.3232 28.7372 19.3645 28.5155 19.4185V16.3495H28.5156ZM29.7276 20.5986C29.735 20.5982 29.7422 20.5973 29.7496 20.597C29.8326 20.5928 29.916 20.5906 30 20.5906C30.084 20.5906 30.1675 20.5927 30.2505 20.597C30.2578 20.5973 30.2651 20.5982 30.2725 20.5986C32.8454 20.7405 34.8951 22.878 34.8951 25.4857C34.8951 27.6348 33.5023 29.4637 31.5723 30.1203C31.5239 30.1366 31.4757 30.1533 31.4266 30.1682C31.4058 30.1745 31.3846 30.1799 31.3637 30.1861C31.2948 30.2059 31.2256 30.2249 31.1557 30.2418C31.1441 30.2447 31.1325 30.2472 31.1209 30.2498C31.0408 30.2685 30.96 30.2856 30.8784 30.3004C30.5932 30.3523 30.2999 30.3809 29.9999 30.3809C29.6999 30.3809 29.4067 30.3523 29.1214 30.3004C29.0398 30.2856 28.9591 30.2686 28.8789 30.2498C28.8674 30.2472 28.8557 30.2445 28.8442 30.2418C28.7742 30.2249 28.7051 30.2059 28.6362 30.1861C28.6153 30.1801 28.5941 30.1746 28.5733 30.1682C28.5242 30.1533 28.476 30.1365 28.4275 30.1203C26.4976 29.4637 25.1048 27.6349 25.1048 25.4857C25.1049 22.878 27.1546 20.7405 29.7276 20.5986ZM21.5643 42.7251L18.9646 43.8205L18.5711 41.027L25.1529 29.4256C25.3834 29.71 25.6371 29.972 25.9108 30.2093L20.9532 38.9478C20.7693 39.272 20.883 39.6837 21.2071 39.8676C21.3123 39.9273 21.4266 39.9556 21.5394 39.9556C21.7744 39.9556 22.0027 39.8326 22.1269 39.6137L27.0257 30.9791C27.3331 31.145 27.6553 31.286 27.99 31.3989L21.5643 42.7251ZM27.6496 34.7339L29.3715 31.6988C29.5782 31.7196 29.788 31.7304 30 31.7304C30.2121 31.7304 30.4218 31.7196 30.6286 31.6988L32.3505 34.7339H27.6496ZM41.0355 43.8205L38.4357 42.7252L32.01 31.399C32.3448 31.286 32.667 31.1451 32.9744 30.9792L37.8731 39.6138C37.9973 39.8329 38.2256 39.9557 38.4606 39.9557C38.5734 39.9557 38.6878 39.9274 38.7929 39.8677C39.117 39.6838 39.2307 39.272 39.0468 38.9479L34.0891 30.2095C34.3629 29.9721 34.6165 29.7102 34.847 29.4258L41.4288 41.0271L41.0355 43.8205Z" fill="#4FB7E3"/>
<path d="M29.9996 21.877C28.0096 21.877 26.3906 23.4959 26.3906 25.4859C26.3906 27.4759 28.0096 29.0949 29.9996 29.0949C31.9896 29.0949 33.6086 27.4759 33.6086 25.4859C33.6086 23.4959 31.9896 21.877 29.9996 21.877ZM29.9996 27.7454C28.7537 27.7454 27.7401 26.7318 27.7401 25.4859C27.7401 24.24 28.7537 23.2264 29.9996 23.2264C31.2455 23.2264 32.2591 24.24 32.2591 25.4859C32.2591 26.7318 31.2455 27.7454 29.9996 27.7454Z" fill="#4FB7E3"/>
<path d="M40.131 40.9289C40.1223 40.8857 40.1094 40.8432 40.0925 40.8027C40.0756 40.7622 40.0547 40.7231 40.0304 40.686C40.0061 40.6495 39.9778 40.6151 39.9468 40.5841C39.9157 40.5524 39.8806 40.5247 39.8442 40.4997C39.8071 40.4755 39.768 40.4545 39.7275 40.4376C39.6871 40.4207 39.6445 40.408 39.6013 40.3991C39.5143 40.3816 39.4245 40.3816 39.3375 40.3991C39.2943 40.4079 39.2518 40.4207 39.2113 40.4376C39.1708 40.4545 39.1317 40.4754 39.0953 40.4997C39.0582 40.5248 39.0238 40.5524 38.9927 40.5841C38.961 40.6151 38.9333 40.6495 38.9084 40.686C38.8841 40.7231 38.8632 40.7623 38.8463 40.8027C38.8294 40.8432 38.8166 40.8857 38.8078 40.9289C38.799 40.9727 38.7949 41.0166 38.7949 41.0611C38.7949 41.105 38.799 41.1489 38.8078 41.1927C38.8165 41.2359 38.8294 41.2784 38.8463 41.3189C38.8632 41.3593 38.884 41.3985 38.9084 41.4356C38.9333 41.472 38.961 41.5064 38.9927 41.5381C39.0238 41.5692 39.0582 41.5969 39.0953 41.6218C39.1317 41.6461 39.1708 41.667 39.2113 41.6839C39.2518 41.7008 39.2943 41.7136 39.3375 41.7224C39.3813 41.7311 39.4252 41.7352 39.4697 41.7352C39.5136 41.7352 39.5581 41.7312 39.6013 41.7224C39.6445 41.7136 39.687 41.7008 39.7275 41.6839C39.768 41.667 39.8071 41.6461 39.8442 41.6218C39.8806 41.5968 39.9157 41.5691 39.9468 41.5381C39.9778 41.5064 40.0061 41.472 40.0304 41.4356C40.0547 41.3985 40.0756 41.3593 40.0925 41.3189C40.1094 41.2784 40.1222 41.2359 40.131 41.1927C40.1397 41.1489 40.1445 41.105 40.1445 41.0611C40.1445 41.0166 40.1398 40.9727 40.131 40.9289Z" fill="#4FB7E3"/>
<path d="M21.1921 40.9289C21.1834 40.8857 21.1705 40.8432 21.1537 40.8027C21.1368 40.7622 21.1159 40.7231 21.0916 40.686C21.0666 40.6495 21.0389 40.6151 21.0072 40.5841C20.9761 40.5524 20.9418 40.5247 20.9046 40.4997C20.8682 40.4755 20.8291 40.4545 20.7886 40.4376C20.7474 40.4207 20.7056 40.408 20.6624 40.3991C20.5754 40.3816 20.4856 40.3816 20.3986 40.3991C20.3554 40.4079 20.3129 40.4207 20.2724 40.4376C20.2319 40.4545 20.1921 40.4754 20.1557 40.4997C20.1186 40.5247 20.0842 40.5524 20.0531 40.5841C20.0221 40.6151 19.9938 40.6495 19.9695 40.686C19.9452 40.7231 19.9243 40.7623 19.9075 40.8027C19.8906 40.8432 19.8778 40.8857 19.869 40.9289C19.8602 40.9727 19.8555 41.0166 19.8555 41.0611C19.8555 41.105 19.8602 41.1489 19.869 41.1927C19.8777 41.2359 19.8906 41.2784 19.9075 41.3189C19.9244 41.3594 19.9452 41.3985 19.9695 41.4356C19.9938 41.472 20.0222 41.5064 20.0531 41.5381C20.0842 41.5692 20.1186 41.5969 20.1557 41.6218C20.1922 41.6461 20.232 41.667 20.2724 41.6839C20.3129 41.7008 20.3554 41.7136 20.3986 41.7224C20.4424 41.7311 20.4863 41.7352 20.5302 41.7352C20.5747 41.7352 20.6186 41.7312 20.6624 41.7224C20.7056 41.7136 20.7474 41.7008 20.7886 41.6839C20.8291 41.667 20.8682 41.6461 20.9046 41.6218C20.9418 41.5968 20.9761 41.5691 21.0072 41.5381C21.0389 41.5064 21.0666 41.472 21.0916 41.4356C21.1158 41.3985 21.1368 41.3593 21.1537 41.3189C21.1706 41.2784 21.1833 41.2359 21.1921 41.1927C21.2009 41.1489 21.205 41.105 21.205 41.0611C21.2049 41.0166 21.2008 40.9727 21.1921 40.9289Z" fill="#4FB7E3"/>
</svg>
