<svg width="41" height="26" viewBox="0 0 41 26" fill="none" xmlns="http://www.w3.org/2000/svg">
<path fill-rule="evenodd" clip-rule="evenodd" d="M1.8153 1.17492C1.8153 0.898778 2.03916 0.674927 2.3153 0.674927H37.9905C38.2666 0.674927 38.4905 0.898784 38.4905 1.17493V5.1884C38.4905 5.46454 38.2666 5.6884 37.9905 5.6884H35.923C35.3707 5.6884 34.923 6.13611 34.923 6.6884V25.2557C34.923 25.5319 34.6991 25.7557 34.423 25.7557H31.3014C31.0252 25.7557 30.8014 25.5319 30.8014 25.2557V6.6884C30.8014 6.13611 30.3537 5.6884 29.8014 5.6884H29.2338C28.6816 5.6884 28.2338 6.13611 28.2338 6.6884V25.2557C28.2338 25.5319 28.01 25.7557 27.7338 25.7557H25.9501H25.0582C24.7821 25.7557 24.5582 25.5319 24.5582 25.2557V6.6884C24.5582 6.13611 24.1105 5.6884 23.5582 5.6884H23.4366C22.8843 5.6884 22.4366 6.13611 22.4366 6.6884V25.2557C22.4366 25.5319 22.2128 25.7557 21.9366 25.7557H18.815C18.5389 25.7557 18.315 25.5319 18.315 25.2557V6.6884C18.315 6.13611 17.8673 5.6884 17.315 5.6884H17.1934C16.6412 5.6884 16.1934 6.13611 16.1934 6.6884V25.2557C16.1934 25.5319 15.9696 25.7557 15.6934 25.7557H12.1259C11.8498 25.7557 11.6259 25.5319 11.6259 25.2557V6.6884C11.6259 6.13611 11.1782 5.6884 10.6259 5.6884H10.5043C9.95204 5.6884 9.50433 6.13611 9.50433 6.6884V25.2557C9.50433 25.5319 9.28047 25.7557 9.00433 25.7557H5.88274C5.6066 25.7557 5.38274 25.5319 5.38274 25.2557V6.6884C5.38274 6.13611 4.93503 5.6884 4.38274 5.6884H2.31521C2.03907 5.6884 1.81521 5.46453 1.81521 5.18839L1.8153 1.17492ZM3.81527 1.67493C3.26299 1.67493 2.81528 2.12263 2.81527 2.67491L2.81524 3.68837C2.81523 4.24067 3.26295 4.6884 3.81524 4.6884H5.88274C6.15888 4.6884 6.38274 4.91225 6.38274 5.1884V23.7557C6.38274 24.308 6.83046 24.7557 7.38274 24.7557H7.50433C8.05661 24.7557 8.50433 24.308 8.50433 23.7557V5.1884C8.50433 4.91225 8.72818 4.6884 9.00433 4.6884H12.1259C12.4021 4.6884 12.6259 4.91225 12.6259 5.1884V23.7557C12.6259 24.308 13.0736 24.7557 13.6259 24.7557H14.1934C14.7457 24.7557 15.1934 24.308 15.1934 23.7557V5.1884C15.1934 4.91225 15.4173 4.6884 15.6934 4.6884H18.815C19.0912 4.6884 19.315 4.91225 19.315 5.1884V23.7557C19.315 24.308 19.7627 24.7557 20.315 24.7557H20.4366C20.9889 24.7557 21.4366 24.308 21.4366 23.7557V5.1884C21.4366 4.91225 21.6605 4.6884 21.9366 4.6884H25.0582C25.3343 4.6884 25.5582 4.91225 25.5582 5.1884V24.3639C25.5582 24.5803 25.7337 24.7557 25.9501 24.7557H26.2338C26.7861 24.7557 27.2338 24.308 27.2338 23.7557V5.1884C27.2338 4.91225 27.4577 4.6884 27.7338 4.6884H31.3014C31.5775 4.6884 31.8014 4.91225 31.8014 5.1884V23.7557C31.8014 24.308 32.2491 24.7557 32.8014 24.7557H32.923C33.4752 24.7557 33.923 24.308 33.923 23.7557V5.1884C33.923 4.91225 34.1468 4.6884 34.423 4.6884H36.4905C37.0428 4.6884 37.4905 4.24068 37.4905 3.68839V2.67493C37.4905 2.12264 37.0428 1.67493 36.4905 1.67493H3.81527ZM0.42334 8.31002C0.42334 7.75774 0.871055 7.31002 1.42334 7.31002H3.54493C4.09721 7.31002 4.54493 7.75774 4.54493 8.31002C4.54493 8.86231 4.09721 9.31002 3.54493 9.31002H3.42334C2.87106 9.31002 2.42334 9.75774 2.42334 10.31V20.5801C2.42334 21.1324 2.87106 21.5801 3.42334 21.5801H3.54493C4.09721 21.5801 4.54493 22.0278 4.54493 22.5801C4.54493 23.1324 4.09721 23.5801 3.54493 23.5801H1.42334C0.871055 23.5801 0.42334 23.1324 0.42334 22.5801V8.31002ZM39.3283 6.86398C39.8806 6.86398 40.3283 7.3117 40.3283 7.86398V23.4719C40.3283 24.0242 39.8806 24.4719 39.3283 24.4719H37.2067C36.6544 24.4719 36.2067 24.0242 36.2067 23.4719C36.2067 22.9196 36.6544 22.4719 37.2067 22.4719H37.3283C37.8806 22.4719 38.3283 22.0242 38.3283 21.4719V9.86398C38.3283 9.3117 37.8806 8.86398 37.3283 8.86398H37.2067C36.6544 8.86398 36.2067 8.41627 36.2067 7.86398C36.2067 7.3117 36.6544 6.86398 37.2067 6.86398H39.3283Z" fill="white"/>
</svg>
