<svg width="73" height="73" viewBox="0 0 73 73" fill="none" xmlns="http://www.w3.org/2000/svg">
<path d="M24.0902 35.9808H32.4481C32.8037 35.9808 33.091 35.6928 33.091 35.3379C33.091 34.983 32.8037 34.6949 32.4481 34.6949H24.0902C23.7347 34.6949 23.4473 34.983 23.4473 35.3379C23.4473 35.6928 23.7347 35.9808 24.0902 35.9808Z" fill="#4FB7E3"/>
<path d="M40.8061 38.5522H24.0902C23.7347 38.5522 23.4473 38.8403 23.4473 39.1952C23.4473 39.5501 23.7347 39.8381 24.0902 39.8381H40.8061C41.1616 39.8381 41.449 39.5501 41.449 39.1952C41.449 38.8403 41.1616 38.5522 40.8061 38.5522Z" fill="#4FB7E3"/>
<path d="M40.8061 42.4098H24.0902C23.7347 42.4098 23.4473 42.6978 23.4473 43.0527C23.4473 43.4076 23.7347 43.6956 24.0902 43.6956H40.8061C41.1616 43.6956 41.449 43.4076 41.449 43.0527C41.449 42.6978 41.1616 42.4098 40.8061 42.4098Z" fill="#4FB7E3"/>
<path d="M52.425 21.2386L30.4745 21.1936C28.3722 21.1936 26.662 22.9038 26.662 25.0061V28.3004L21.4736 28.3114C19.3713 28.3114 17.6611 30.0215 17.6611 32.1239V45.7158C17.6611 47.8182 19.3713 49.5277 21.4736 49.5277H25.3762V55.9569C25.3762 56.2224 25.5395 56.4609 25.7876 56.5567C25.8628 56.5856 25.9413 56.5998 26.0191 56.5998C26.1965 56.5998 26.3708 56.5258 26.4948 56.3895L32.7337 49.5264L43.4229 49.4827C45.5252 49.4827 47.2354 47.7725 47.2354 45.6708V45.5982L50.6171 49.3181C50.7412 49.4544 50.9155 49.5283 51.0929 49.5283C51.1707 49.5283 51.2491 49.5142 51.3244 49.4852C51.5725 49.3895 51.7358 49.1509 51.7358 48.8854V42.4562H52.4238C54.5261 42.4562 56.2363 40.746 56.2363 38.6443V25.0511C56.2363 22.9494 54.5267 21.2393 52.425 21.2386ZM45.9496 45.6702C45.9496 47.0634 44.8161 48.1962 43.4203 48.1962L32.4457 48.2412C32.2657 48.2418 32.0934 48.3183 31.9725 48.4514L26.662 54.2936V48.8841C26.662 48.5292 26.3746 48.2412 26.0191 48.2412H21.4736C20.0804 48.2412 18.947 47.1077 18.947 45.7152V32.1232C18.947 30.73 20.0804 29.5966 21.4749 29.5966L27.3049 29.5843C27.3056 29.5843 27.3056 29.5843 27.3062 29.5843L43.4229 29.5509C44.8161 29.5509 45.9496 30.6844 45.9496 32.0776V43.9336V45.6702ZM54.9504 38.6431C54.9504 40.0363 53.817 41.1691 52.4238 41.1691H51.0929C50.7374 41.1691 50.45 41.4571 50.45 41.812V47.2215L47.2354 43.6855V32.0782C47.2354 29.9759 45.5252 28.2657 43.4216 28.2657L27.9478 28.2972V25.0055C27.9478 23.6123 29.0813 22.4788 30.4732 22.4788L52.4231 22.5238C52.4238 22.5238 52.4237 22.5238 52.4244 22.5238C53.8176 22.5238 54.9511 23.6573 54.9511 25.0505V38.6431H54.9504Z" fill="#4FB7E3"/>
<circle cx="36.5" cy="36.5" r="36" stroke="#4FB7E3" stroke-opacity="0.3" stroke-dasharray="1 1"/>
</svg>
