<svg width="26" height="27" viewBox="0 0 26 27" fill="none" xmlns="http://www.w3.org/2000/svg">
<path d="M19.9575 21.7177C11.8661 21.7177 5.2832 15.135 5.2832 7.04367H6.4571C6.4571 14.4878 12.5131 20.5438 19.9575 20.5438V21.7177Z" fill="#4FB7E3"/>
<path d="M10.8625 10.779L9.76506 8.09168C9.65121 7.81282 9.38011 7.6305 9.07868 7.6305L5.88477 7.63025C5.98357 10.0342 6.684 12.2822 7.84059 14.2285L10.6716 11.6109C10.9043 11.4017 10.9808 11.0687 10.8625 10.779Z" fill="#4FB7E3"/>
<path d="M7.70674 15.1516L7.33659 14.5279C6.10251 12.4512 5.39807 10.0748 5.29877 7.65457L5.27344 7.04367H9.079C9.62068 7.04367 10.1034 7.36743 10.3091 7.86898L11.4062 10.5563C11.6179 11.0739 11.4807 11.6733 11.0647 12.0477L7.70674 15.1516ZM6.51053 8.21756C6.66476 9.98806 7.16982 11.7192 7.99012 13.2911L10.2737 11.18C10.3281 11.1306 10.3442 11.0611 10.3196 11.001V11.0005L9.22244 8.31336C9.19887 8.25543 9.1422 8.21756 9.079 8.21756H6.51053Z" fill="#4FB7E3"/>
<path d="M19.3691 17.9215C19.3691 17.6203 19.1868 17.3489 18.9079 17.2351L16.2206 16.1377C15.9309 16.0193 15.5979 16.0958 15.3888 16.3285L12.7656 19.1565C14.7132 20.3151 16.9629 21.0168 19.3691 21.1156V17.9215Z" fill="#4FB7E3"/>
<path d="M19.9572 21.7275L19.3461 21.7022C16.922 21.6026 14.5432 20.8964 12.4665 19.6611L11.8428 19.2897L14.9592 15.9295C15.3268 15.5202 15.9234 15.382 16.4433 15.5942L19.1311 16.6919C19.6327 16.896 19.9572 17.379 19.9572 17.9214V21.7275ZM13.7051 19.008C15.2769 19.8296 17.0098 20.3357 18.7831 20.4899V17.9214C18.7831 17.8595 18.7447 17.802 18.688 17.7787L15.9997 16.6811C15.939 16.6575 15.8695 16.6723 15.8266 16.7209L13.7051 19.008Z" fill="#4FB7E3"/>
<path d="M12.9133 27.0004C5.79298 27.0004 0 21.2076 0 14.0873C0 6.96693 5.79298 1.17395 12.9133 1.17395C13.2378 1.17395 13.5002 1.43652 13.5002 1.76102C13.5002 2.08528 13.2378 2.34784 12.9133 2.34784C6.43999 2.34784 1.17389 7.61394 1.17389 14.0873C1.17389 20.5604 6.43999 25.8265 12.9133 25.8265C19.3864 25.8265 24.6525 20.5604 24.6525 14.0873C24.6525 13.7628 24.9151 13.5002 25.2396 13.5002C25.5641 13.5002 25.8264 13.7628 25.8264 14.0873C25.8264 21.2076 20.0337 27.0004 12.9133 27.0004Z" fill="#4FB7E3"/>
<path d="M12.9121 3.52174C12.7619 3.52174 12.6117 3.46457 12.4971 3.34996C12.2679 3.1205 12.2679 2.7491 12.4971 2.51988L13.256 1.76103L12.4971 1.00192C12.2679 0.772711 12.2679 0.401308 12.4971 0.172097C12.7263 -0.0573656 13.0977 -0.0573656 13.3272 0.172097L14.5011 1.34599C14.7303 1.5752 14.7303 1.9466 14.5011 2.17607L13.3272 3.34996C13.2126 3.46457 13.0624 3.52174 12.9121 3.52174Z" fill="#4FB7E3"/>
</svg>
