<svg width="32" height="32" viewBox="0 0 32 32" fill="none" xmlns="http://www.w3.org/2000/svg">
<path fill-rule="evenodd" clip-rule="evenodd" d="M2 0C0.895429 0 0 0.895431 0 2V29.9491C0 31.0536 0.895431 31.9491 2 31.9491H29.5838C30.6884 31.9491 31.5838 31.0536 31.5838 29.9491V2C31.5838 0.895429 30.6884 0 29.5838 0H2ZM17.3398 2H18.2861V14.7919H17.3398V2ZM19.2861 14.7919V2H21.2861V14.7919H19.2861ZM22.2861 14.7919V2H24.2861V14.7919H22.2861ZM25.2861 14.7919V2H27.2861V14.7919H25.2861ZM28.2861 14.7919V2H29.5838V14.7919H28.2861ZM15.3398 2H2V14.7919H15.3398V2ZM2 16.7919V29.9491H3.42183V16.7919H2ZM4.42183 16.7919V29.9491H6.70895V16.7919H4.42183ZM7.70895 16.7919V29.9491H9.63085V16.7919H7.70895ZM10.6308 16.7919V29.9491H12.5527V16.7919H10.6308ZM13.5527 16.7919V29.9491H15.3398V16.7919H13.5527ZM17.3398 29.9491H29.5838V16.7919H17.3398V29.9491ZM3.97402 5.15233H2.93049V4.15233H3.97402V5.15233ZM6.06106 5.15233H5.01754V4.15233H6.06106V5.15233ZM8.1481 5.15233H7.10458V4.15233H8.1481V5.15233ZM10.2351 5.15233H9.19162V4.15233H10.2351V5.15233ZM12.3222 5.15233H11.2787V4.15233H12.3222V5.15233ZM14.4092 5.15233H13.3657V4.15233H14.4092V5.15233ZM2.93049 8.16988H3.97401V9.16988H2.93049V8.16988ZM5.01754 8.16988H6.06106V9.16988H5.01754V8.16988ZM7.10458 8.16988H8.1481V9.16988H7.10458V8.16988ZM9.19162 8.16988H10.2351V9.16988H9.19162V8.16988ZM11.2787 8.16988H12.3222V9.16988H11.2787V8.16988ZM13.3657 8.16988H14.4092V9.16988H13.3657V8.16988ZM3.97402 13.1874H2.93049V12.1874H3.97402V13.1874ZM6.06106 13.1874H5.01754V12.1874H6.06106V13.1874ZM8.1481 13.1874H7.10458V12.1874H8.1481V13.1874ZM10.2351 13.1874H9.19162V12.1874H10.2351V13.1874ZM12.3222 13.1874H11.2787V12.1874H12.3222V13.1874ZM14.4092 13.1874H13.3657V12.1874H14.4092V13.1874ZM17.9051 19.7616H18.9486V18.7616H17.9051V19.7616ZM19.9921 19.7616H21.0356V18.7616H19.9921V19.7616ZM22.0792 19.7616H23.1227V18.7616H22.0792V19.7616ZM24.1662 19.7616H25.2097V18.7616H24.1662V19.7616ZM26.2533 19.7616H27.2968V18.7616H26.2533V19.7616ZM28.3403 19.7616H29.3838V18.7616H28.3403V19.7616ZM18.9486 22.7792H17.9051V23.7792H18.9486V22.7792ZM21.0356 22.7792H19.9921V23.7792H21.0356V22.7792ZM23.1227 22.7792H22.0792V23.7792H23.1227V22.7792ZM25.2097 22.7792H24.1662V23.7792H25.2097V22.7792ZM27.2968 22.7792H26.2533V23.7792H27.2968V22.7792ZM29.3838 22.7792H28.3403V23.7792H29.3838V22.7792ZM17.9051 27.7967H18.9486V26.7967H17.9051V27.7967ZM19.9921 27.7967H21.0356V26.7967H19.9921V27.7967ZM22.0792 27.7967H23.1227V26.7967H22.0792V27.7967ZM24.1662 27.7967H25.2097V26.7967H24.1662V27.7967ZM26.2533 27.7967H27.2968V26.7967H26.2533V27.7967ZM28.3403 27.7967H29.3838V26.7967H28.3403V27.7967Z" fill="white"/>
</svg>
