<svg width="36" height="32" viewBox="0 0 36 32" fill="none" xmlns="http://www.w3.org/2000/svg">
<path fill-rule="evenodd" clip-rule="evenodd" d="M19.3945 0.231993C18.6642 -0.0731797 17.843 -0.0774312 17.1097 0.220162L0.682577 6.88622L0.0585938 7.13943V7.81283V31.0135H2.05859V8.81283H17.2498V10.75C17.2498 11.164 17.5858 11.5 17.9998 11.5C18.2748 11.5 18.4998 11.724 18.4998 12C18.4998 12.276 18.2748 12.5 17.9998 12.5C17.7248 12.5 17.4998 12.276 17.4998 12C17.4998 11.586 17.1638 11.25 16.7498 11.25C16.3358 11.25 15.9998 11.586 15.9998 12C15.9998 13.103 16.8968 14 17.9998 14C19.1028 14 19.9998 13.103 19.9998 12C19.9998 11.162 19.4818 10.443 18.7498 10.146V8.81283H33.9409V31.0135H35.9409V7.81283V7.14693L35.3265 6.89017L19.3945 0.231993ZM29.9547 6.81283H6.18234L17.8617 2.07339C18.1061 1.97419 18.3799 1.97561 18.6233 2.07733L29.9547 6.81283Z" fill="white"/>
</svg>
