<svg width="39" height="37" viewBox="0 0 39 37" fill="none" xmlns="http://www.w3.org/2000/svg">
<path d="M4.46875 36.2656L1 33.375L4.46875 31.6406L1 27.5938L4.46875 25.2812L1 22.9688L4.46875 20.6562L1 18.3438L4.46875 16.6094L2.15625 13.7188L5.625 12.5625L5.04688 7.9375L9.09375 8.51562V4.46875L13.7188 5.625L14.2969 2.15625L18.3438 4.46875L22.3906 1.57812L24.125 4.46875L28.1719 3.3125V6.78125L32.2188 6.20312L31.6406 9.67188L35.6875 10.25L33.9531 16.0312L37.4219 16.6094L34.5312 20.6562L38 22.9688L34.5312 25.8594L38 27.5938L34.5312 31.0625L38 33.375L34.5312 36.2656" stroke="#4FB7E3" stroke-width="0.3"/>
<path d="M1 36.8438V19.5C1 9.28273 9.28273 1 19.5 1V1C29.7173 1 38 9.28273 38 19.5V36.8438" stroke="#4FB7E3" stroke-width="1.5"/>
<path d="M4.46875 36.8438V19.5C4.46875 11.1985 11.1985 4.46875 19.5 4.46875V4.46875C27.8015 4.46875 34.5312 11.1985 34.5312 19.5V20.6562V36.8438" stroke="#4FB7E3" stroke-width="1.5"/>
</svg>
