<svg width="60" height="60" viewBox="0 0 60 60" fill="none" xmlns="http://www.w3.org/2000/svg">
<circle cx="30" cy="30" r="29.5" stroke="#4FB7E3" stroke-opacity="0.5" stroke-dasharray="1 1"/>
<path d="M34.6143 24.8792C34.334 24.8792 34.1064 25.1061 34.1064 25.3868C34.1064 25.6673 34.334 25.8946 34.6143 25.8946C34.8952 25.8946 35.1221 25.6673 35.1221 25.3868C35.1221 25.1061 34.8952 24.8792 34.6143 24.8792Z" fill="#4FB7E3"/>
<path d="M25.3858 34.1055C25.1049 34.1055 24.8779 34.333 24.8779 34.6133C24.8779 34.8942 25.1049 35.1211 25.3858 35.1211C25.6661 35.1211 25.8936 34.8942 25.8936 34.6133C25.8936 34.333 25.6661 34.1055 25.3858 34.1055Z" fill="#4FB7E3"/>
<path d="M42.369 20.1242C42.1976 20.0843 42.0175 20.1361 41.8937 20.2611L39.7884 22.383H38.7791L37.668 21.2319V20.2085L39.7432 18.1024C39.8659 17.9778 39.9159 17.7987 39.8753 17.6283C39.8348 17.4581 39.7094 17.3208 39.5436 17.2649C39.0223 17.0891 38.4768 17 37.9219 17C36.2679 17 34.7653 17.7713 33.7992 19.1161C32.895 20.3749 32.6163 21.9176 33.0156 23.3941L29.275 27.1348L23.043 20.8885V19.6626C23.043 19.4842 22.9493 19.3188 22.7964 19.2272L19.2057 17.0725C19.0057 16.9524 18.75 16.984 18.5854 17.1488L17.1492 18.5848C16.9845 18.7497 16.953 19.0054 17.0728 19.2053L19.2271 22.796C19.3188 22.949 19.484 23.0424 19.6623 23.0426L20.8879 23.043L27.1205 29.2893L23.3941 33.0157C21.9176 32.6166 20.3741 32.8957 19.1146 33.8004C17.7707 34.7659 17 36.2682 17 37.9222C17 38.4768 17.0891 39.0225 17.2648 39.5436C17.321 39.7105 17.4596 39.8364 17.631 39.8761C17.8026 39.916 17.9825 39.8642 18.1065 39.7392L20.2116 37.6175H21.2265L22.3828 38.7738V39.7886L20.261 41.8937C20.136 42.0177 20.0843 42.1976 20.1241 42.3692C20.1638 42.5406 20.2898 42.6793 20.4566 42.7354C20.9777 42.9112 21.5234 43.0002 22.0781 43.0002C23.7321 43.0002 25.2342 42.2294 26.1998 40.8854C27.1046 39.626 27.3837 38.0826 26.9846 36.6062L29.9774 33.6134L30.663 34.358L30.3483 34.6725C30.15 34.8708 30.15 35.1924 30.3483 35.3908C30.5467 35.5889 30.8681 35.5889 31.0666 35.3908L31.3515 35.1059L37.7839 42.0929C37.7886 42.0981 37.7936 42.103 37.7985 42.108C38.9888 43.2982 40.9171 43.2986 42.1079 42.1078C43.2954 40.9197 43.2954 38.9866 42.1079 37.7986C42.1028 37.7934 42.0974 37.7885 42.0921 37.7835L35.0941 31.3634L35.3758 31.0818C35.5742 30.8836 35.5742 30.562 35.3758 30.3637C35.1775 30.1653 34.8561 30.1653 34.6575 30.3637L34.3451 30.6763L33.599 29.9915L36.6063 26.9842C37.0338 27.0985 37.475 27.1564 37.9219 27.1564C40.7221 27.1564 43 24.8783 43 22.0783C43 21.5235 42.9109 20.978 42.7352 20.4567C42.679 20.2898 42.5404 20.1639 42.369 20.1242ZM21.458 22.1765C21.3628 22.0811 21.2336 22.0325 21.0987 22.0325L19.9502 22.0321L18.1478 19.0228L19.0232 18.1474L22.0273 19.9502V21.0988C22.0273 21.2333 22.0807 21.3622 22.1757 21.4574L28.5569 27.8531L27.8386 28.5712L21.458 22.1765ZM34.3753 32.0823L41.397 38.524C42.1813 39.3167 42.1789 40.6002 41.3896 41.3899C40.5985 42.181 39.3179 42.1834 38.5236 41.3968L32.0702 34.387L34.3753 32.0823ZM33.6262 31.395L31.3816 33.6392L30.6961 32.8945L32.8801 30.7102L33.6262 31.395ZM37.9219 26.1408C37.4778 26.1408 37.041 26.0695 36.624 25.9291C36.4413 25.8678 36.2393 25.915 36.1029 26.0513C33.557 28.5972 28.0712 34.0827 26.0512 36.1029C25.9148 36.2394 25.8674 36.4413 25.929 36.6242C26.3512 37.8777 26.1492 39.2147 25.3748 40.2929C24.6025 41.3679 23.4008 41.9846 22.0781 41.9846C21.9295 41.9846 21.7817 41.9765 21.6353 41.9608L23.2483 40.3603C23.3443 40.2651 23.3984 40.1354 23.3984 39.9999V38.5633C23.3984 38.4286 23.3449 38.2995 23.2497 38.2042L21.7958 36.7504C21.7006 36.6552 21.5714 36.6016 21.4368 36.6016H20.0002C19.8647 36.6016 19.7349 36.6558 19.6395 36.7518L18.0393 38.3647C18.0234 38.2183 18.0155 38.0705 18.0155 37.922C18.0155 36.599 18.632 35.3975 19.7072 34.6253C20.7851 33.8508 22.1223 33.6487 23.376 34.071C23.5587 34.1327 23.7607 34.0853 23.8971 33.9488C23.9251 33.921 33.9416 23.9043 33.9488 23.8972C34.0852 23.7607 34.1325 23.559 34.071 23.3761C33.6486 22.1226 33.8502 20.7859 34.624 19.7086C35.3969 18.6326 36.5988 18.0157 37.9217 18.0157C38.0749 18.0157 38.227 18.0242 38.3778 18.0409L36.7983 19.6439C36.7047 19.7389 36.6523 19.8669 36.6523 20.0002V21.4368C36.6523 21.5685 36.7033 21.6949 36.7948 21.7895L38.1979 23.2434C38.2935 23.3425 38.4254 23.3985 38.5632 23.3985H39.9998C40.1351 23.3985 40.2649 23.3445 40.3603 23.2483L41.9605 21.6356C41.9764 21.782 41.9843 21.9297 41.9843 22.0783C41.9843 24.3183 40.1619 26.1408 37.9219 26.1408Z" fill="#4FB7E3"/>
<path d="M32.8179 26.464L26.4631 32.8188C26.2649 33.0169 26.2649 33.3385 26.4631 33.5369C26.6615 33.7352 26.983 33.7352 27.1814 33.5369L33.5362 27.1821C33.7345 26.9839 33.7345 26.6623 33.5362 26.464C33.3378 26.2656 33.0162 26.2656 32.8179 26.464Z" fill="#4FB7E3"/>
<path d="M39.2355 39.9536C39.4338 40.1513 39.7554 40.1513 39.9538 39.9524C40.1517 39.7538 40.1511 39.4322 39.9526 39.2343L35.3752 34.6715C35.1766 34.4736 34.8548 34.4742 34.6571 34.6727C34.4589 34.8715 34.4595 35.1929 34.6581 35.3908L39.2355 39.9536Z" fill="#4FB7E3"/>
</svg>
