<svg width="25" height="24" viewBox="0 0 25 24" fill="none" xmlns="http://www.w3.org/2000/svg">
<path d="M24.748 6.43363L20.2854 4.06516C20.0495 3.93974 19.7523 4.02213 19.6218 4.24863C19.4914 4.47513 19.577 4.76041 19.813 4.88566L24.0234 7.12027V23.0625H21.875V8.34378C21.875 8.08487 21.6564 7.87503 21.3867 7.87503H3.61328C3.34358 7.87503 3.125 8.08487 3.125 8.34378V10.5756C3.125 10.8346 3.34358 11.0444 3.61328 11.0444C3.88298 11.0444 4.10156 10.8346 4.10156 10.5756V8.81253H20.8984V23.0625H18.854V18.375C18.854 17.8581 18.4158 17.4375 17.8774 17.4375H15.9243V12.75C15.9243 12.2331 15.4861 11.8125 14.9477 11.8125H10.0649C9.52625 11.8125 9.08833 12.2331 9.08833 12.75V17.4375H7.12891C6.59046 17.4375 6.15234 17.8581 6.15234 18.375V23.0625H4.10156V14.3256C4.10156 14.0667 3.88298 13.8569 3.61328 13.8569C3.34358 13.8569 3.125 14.0667 3.125 14.3256V23.0625H0.976562V7.12027L12.5 1.00438L16.3942 3.07127C16.6302 3.19651 16.9273 3.1143 17.0578 2.8878C17.1883 2.6613 17.1026 2.37602 16.8667 2.25077L12.7363 0.0586394C12.5893 -0.0195465 12.4107 -0.0195465 12.2637 0.0586394L0.251961 6.43363C0.0965118 6.51602 0 6.67313 0 6.84378V23.5312C0 23.7902 0.218582 24 0.488281 24H24.5117C24.7814 24 25 23.7902 25 23.5312V6.84378C25 6.67313 24.9035 6.51602 24.748 6.43363ZM14.9477 18.375H15.9243V19.3125H14.9477V18.375ZM12.9883 12.75V13.6875H12.0117V12.75H12.9883ZM10.0649 12.75H11.0352V14.1563C11.0352 14.4152 11.2537 14.625 11.5234 14.625H13.4766C13.7463 14.625 13.9648 14.4152 13.9648 14.1563V12.75H14.9477L14.9483 17.4375C14.9483 17.4375 14.9481 17.4375 14.9477 17.4375H10.0649V12.75ZM10.0649 18.375V19.3125H9.08833V18.375H10.0649ZM7.12891 23.0625V18.375H8.11176V19.7813C8.11176 20.0402 8.33035 20.25 8.60004 20.25H10.5532C10.8227 20.25 11.0415 20.0402 11.0415 19.7813V18.375H12.0117L12.0123 23.0625C12.0123 23.0625 12.0121 23.0625 12.0117 23.0625H7.12891ZM12.9946 23.0625V18.375H13.9711V19.7813C13.9711 20.0402 14.1897 20.25 14.4594 20.25H16.4125C16.6821 20.25 16.9008 20.0402 16.9008 19.7813V18.375H17.8774L17.878 23.0625C17.878 23.0625 17.8778 23.0625 17.8774 23.0625H12.9946Z" fill="#4FB7E3"/>
</svg>
