<svg width="42" height="25" viewBox="0 0 42 25" fill="none" xmlns="http://www.w3.org/2000/svg">
<path fill-rule="evenodd" clip-rule="evenodd" d="M3.83625 0.630615C3.83625 0.354473 4.06011 0.130615 4.33625 0.130615H14.5101C14.7862 0.130615 15.0101 0.354473 15.0101 0.630615V3.68275C15.0101 3.9589 14.7862 4.18275 14.5101 4.18275H12.6188C12.0665 4.18275 11.6188 4.63047 11.6188 5.18276V21.6565C11.6188 21.7502 11.5925 21.842 11.5428 21.9215L9.84715 24.6345C9.66101 24.9323 9.23388 24.9505 9.02315 24.6695L6.98839 21.9565C6.92348 21.8699 6.88839 21.7647 6.88839 21.6565V5.18275C6.88839 4.63047 6.44068 4.18275 5.88839 4.18275H4.33625C4.06011 4.18275 3.83625 3.9589 3.83625 3.68275V0.630615ZM5.83625 1.13062C5.28397 1.13062 4.83625 1.57833 4.83625 2.13062V2.18275C4.83625 2.73504 5.28397 3.18275 5.83625 3.18275H7.38839C7.66454 3.18275 7.88839 3.40661 7.88839 3.68275V21.1565C7.88839 21.3728 7.95857 21.5834 8.08839 21.7565L8.51059 22.3194C8.93204 22.8813 9.7863 22.845 10.1586 22.2494L10.4668 21.7563C10.5661 21.5973 10.6188 21.4137 10.6188 21.2263V3.68275C10.6188 3.40661 10.8426 3.18275 11.1188 3.18275H13.0101C13.5623 3.18275 14.0101 2.73504 14.0101 2.18275V2.13062C14.0101 1.57833 13.5623 1.13062 13.0101 1.13062H5.83625ZM16.0448 0.630615C16.0448 0.354473 16.2687 0.130615 16.5448 0.130615H26.7186C26.9947 0.130615 27.2186 0.354473 27.2186 0.630615V3.68275C27.2186 3.9589 26.9947 4.18275 26.7186 4.18275H24.8273C24.2751 4.18275 23.8273 4.63047 23.8273 5.18276V21.6565C23.8273 21.7502 23.801 21.842 23.7513 21.9215L22.0557 24.6345C21.8696 24.9323 21.4424 24.9505 21.2317 24.6695L19.1969 21.9565C19.132 21.8699 19.0969 21.7647 19.0969 21.6565V5.18275C19.0969 4.63047 18.6492 4.18275 18.0969 4.18275H16.5448C16.2687 4.18275 16.0448 3.9589 16.0448 3.68275V0.630615ZM18.0448 1.13062C17.4925 1.13062 17.0448 1.57833 17.0448 2.13062V2.18275C17.0448 2.73504 17.4925 3.18275 18.0448 3.18275H19.5969C19.8731 3.18275 20.0969 3.40661 20.0969 3.68275V21.1565C20.0969 21.3728 20.1671 21.5834 20.2969 21.7565L20.7191 22.3194C21.1406 22.8813 21.9948 22.845 22.3671 22.2494L22.6753 21.7563C22.7747 21.5973 22.8273 21.4137 22.8273 21.2263V3.68275C22.8273 3.40661 23.0512 3.18275 23.3273 3.18275H25.2186C25.7709 3.18275 26.2186 2.73504 26.2186 2.18275V2.13062C26.2186 1.57833 25.7709 1.13062 25.2186 1.13062H18.0448ZM28.7533 0.130615C28.4772 0.130615 28.2533 0.354473 28.2533 0.630615V3.68275C28.2533 3.9589 28.4772 4.18275 28.7533 4.18275H30.3055C30.8578 4.18275 31.3055 4.63047 31.3055 5.18276V21.6565C31.3055 21.7647 31.3406 21.8699 31.4055 21.9565L33.4403 24.6695C33.651 24.9505 34.0781 24.9323 34.2642 24.6345L35.9599 21.9215C36.0095 21.842 36.0359 21.7502 36.0359 21.6565V5.18275C36.0359 4.63047 36.4836 4.18275 37.0359 4.18275H38.9271C39.2033 4.18275 39.4271 3.9589 39.4271 3.68275V0.630615C39.4271 0.354473 39.2033 0.130615 38.9271 0.130615H28.7533ZM30.2533 3.18275C29.7011 3.18275 29.2533 2.73504 29.2533 2.18275V2.13062C29.2533 1.57833 29.7011 1.13062 30.2533 1.13062H37.4271C37.9794 1.13062 38.4271 1.57833 38.4271 2.13062V2.18275C38.4271 2.73504 37.9794 3.18275 37.4271 3.18275H35.5359C35.2597 3.18275 35.0359 3.40661 35.0359 3.68275V21.2263C35.0359 21.4137 34.9832 21.5973 34.8839 21.7563L34.5757 22.2494C34.2034 22.845 33.3491 22.8813 32.9277 22.3194L32.5055 21.7565C32.3757 21.5834 32.3055 21.3728 32.3055 21.1565V3.68275C32.3055 3.40661 32.0816 3.18275 31.8055 3.18275H30.2533ZM0.962402 7.99602C0.962402 7.44373 1.41012 6.99602 1.9624 6.99602H4.35367C4.90595 6.99602 5.35367 7.44373 5.35367 7.99602C5.35367 8.5483 4.90595 8.99602 4.35367 8.99602H3.9624C3.41012 8.99602 2.9624 9.44373 2.9624 9.99602V16.8481C2.9624 17.4004 3.41012 17.8481 3.9624 17.8481H4.35367C4.90595 17.8481 5.35367 18.2958 5.35367 18.8481C5.35367 19.4004 4.90595 19.8481 4.35367 19.8481H1.9624C1.41012 19.8481 0.962402 19.4004 0.962402 18.8481V7.99602ZM40.9619 19.1699C41.5142 19.1699 41.9619 18.7221 41.9619 18.1699V7.31781C41.9619 6.76552 41.5142 6.31781 40.9619 6.31781L38.5706 6.31781C38.0183 6.31781 37.5706 6.76552 37.5706 7.31781C37.5706 7.87009 38.0183 8.31781 38.5706 8.31781H38.9619C39.5142 8.31781 39.9619 8.76552 39.9619 9.31781V16.1699C39.9619 16.7221 39.5142 17.1699 38.9619 17.1699H38.5706C38.0183 17.1699 37.5706 17.6176 37.5706 18.1699C37.5706 18.7221 38.0183 19.1699 38.5706 19.1699H40.9619Z" fill="#4FB7E3"/>
</svg>
