<svg width="60" height="60" viewBox="0 0 60 60" fill="none" xmlns="http://www.w3.org/2000/svg">
<circle cx="30" cy="30" r="29.5" stroke="#4FB7E3" stroke-opacity="0.5" stroke-dasharray="1 1"/>
<path d="M22 34.5002C20.3455 34.5002 19 35.8457 19 37.5002C19 39.1548 20.3455 40.5002 22 40.5002C23.6545 40.5002 25 39.1548 25 37.5002C25 35.8457 23.6545 34.5002 22 34.5002ZM22 39.5002C20.897 39.5002 20 38.6032 20 37.5002C20 36.3972 20.897 35.5003 22 35.5003C23.103 35.5003 24 36.3973 24 37.5002C24 38.6032 23.103 39.5002 22 39.5002Z" fill="#4FB7E3"/>
<path d="M38.999 34.5002C37.3445 34.5002 35.999 35.8457 35.999 37.5002C35.999 39.1548 37.3445 40.5002 38.999 40.5002C40.6535 40.5002 41.999 39.1548 41.999 37.5002C41.999 35.8457 40.6535 34.5002 38.999 34.5002ZM38.999 39.5002C37.896 39.5002 36.999 38.6032 36.999 37.5002C36.999 36.3972 37.8961 35.5003 38.999 35.5003C40.1021 35.5003 40.999 36.3973 40.999 37.5002C40.999 38.6032 40.1021 39.5002 38.999 39.5002Z" fill="#4FB7E3"/>
<path d="M44.9205 31.7295L40.4205 24.7295C40.3285 24.5865 40.17 24.5 39.9999 24.5H34.5C34.2235 24.5 34 24.724 34 25V37.5C34 37.7765 34.2235 37.9999 34.5 37.9999H36.5V36.9999H35V25.5H39.727L44 32.147V37H41.4999V38H44.4999C44.7764 38 44.9999 37.7765 44.9999 37.5V32C45 31.9045 44.9725 31.81 44.9205 31.7295Z" fill="#4FB7E3"/>
<path d="M36.999 31V27.5H40.999V26.5H36.499C36.2225 26.5 35.999 26.724 35.999 27V31.5C35.999 31.7765 36.2225 32 36.499 32H43.999V30.9999H36.999V31Z" fill="#4FB7E3"/>
<path d="M34.5 21H15.5C15.224 21 15 21.224 15 21.5V37.5C15 37.7765 15.224 38 15.5 38H19.5V37H16V22H34V37H24.5V38H34.5C34.7765 38 35 37.7765 35 37.5V21.5C35 21.224 34.7765 21 34.5 21Z" fill="#4FB7E3"/>
<path d="M18.5 34.9998H15.5V35.9998H18.5V34.9998Z" fill="#4FB7E3"/>
<path d="M34 34.9998H25.5V35.9998H34V34.9998Z" fill="#4FB7E3"/>
<path d="M44.501 34.9998H42.501V35.9998H44.501V34.9998Z" fill="#4FB7E3"/>
<path d="M34.499 23.0002H16.999V24.0003H34.499V23.0002Z" fill="#4FB7E3"/>
<path d="M22.499 36.9995H21.499V37.9995H22.499V36.9995Z" fill="#4FB7E3"/>
<path d="M39.501 36.9995H38.501V37.9995H39.501V36.9995Z" fill="#4FB7E3"/>
<path d="M23.999 19H16.999V20H23.999V19Z" fill="#4FB7E3"/>
<path d="M16 19H15V20H16V19Z" fill="#4FB7E3"/>
</svg>
