<svg width="25" height="24" viewBox="0 0 25 24" fill="none" xmlns="http://www.w3.org/2000/svg">
<path d="M24.2809 7.62486L21.2104 2.62058C21.1665 2.54887 21.0972 2.49631 21.0163 2.47338L12.3397 0.0127767C12.2799 -0.0042589 12.2165 -0.0042589 12.1567 0.0127767L3.48088 2.47338C3.39998 2.49631 3.33068 2.54887 3.28678 2.62058L0.215528 7.62486C0.036368 7.9203 -0.0343185 8.2689 0.0156106 8.61079C0.0655397 8.95268 0.232968 9.26651 0.489134 9.49837C0.745299 9.73024 1.07421 9.86566 1.41937 9.88137C1.76453 9.89709 2.10439 9.79212 2.38056 9.58449V23.2547C2.38054 23.2987 2.38919 23.3422 2.40601 23.3829C2.42284 23.4235 2.44751 23.4605 2.47863 23.4916C2.50974 23.5227 2.54668 23.5474 2.58733 23.5642C2.62799 23.581 2.67156 23.5897 2.71556 23.5897H21.7817C21.8257 23.5897 21.8692 23.581 21.9099 23.5642C21.9505 23.5474 21.9875 23.5227 22.0186 23.4916C22.0497 23.4605 22.0744 23.4235 22.0912 23.3829C22.108 23.3422 22.1167 23.2987 22.1167 23.2547V9.58449C22.3559 9.76064 22.6418 9.86226 22.9386 9.87663C23.2354 9.891 23.5298 9.81748 23.7849 9.66528C23.9521 9.5644 24.0976 9.43147 24.2131 9.27412C24.3286 9.11677 24.4118 8.93812 24.458 8.74846C24.5042 8.5588 24.5124 8.36188 24.4821 8.16904C24.4519 7.9762 24.3837 7.79126 24.2817 7.62486H24.2809ZM6.39382 16.5231L10.2683 19.1145L6.39382 21.706V16.5231ZM8.53953 22.9191L12.2482 20.4393L15.9569 22.9197L8.53953 22.9191ZM17.1621 22.9191L12.4345 19.7582C12.3794 19.7214 12.3145 19.7017 12.2482 19.7017C12.1819 19.7017 12.1171 19.7214 12.062 19.7582L7.33373 22.92H6.39382V22.5129L11.0572 19.3945C11.1022 19.3634 11.139 19.3218 11.1645 19.2733C11.1899 19.2248 11.2032 19.1709 11.2032 19.1161C11.2032 19.0613 11.1899 19.0074 11.1645 18.9589C11.139 18.9104 11.1022 18.8688 11.0572 18.8377L6.39382 15.7176V15.3104H7.3343L12.0625 18.4724C12.1177 18.5092 12.1825 18.5289 12.2488 18.5289C12.3151 18.5289 12.3799 18.5092 12.4351 18.4724L17.1633 15.3104H18.1038V15.7176L13.4393 18.8367C13.3942 18.8679 13.3574 18.9095 13.332 18.9579C13.3065 19.0064 13.2932 19.0604 13.2932 19.1152C13.2932 19.1699 13.3065 19.2239 13.332 19.2724C13.3574 19.3208 13.3942 19.3624 13.4393 19.3936L18.1026 22.5125V22.9197L17.1621 22.9191ZM8.53953 15.3104H15.9569L12.2482 17.791L8.53953 15.3104ZM18.1026 21.7066L14.2282 19.1151L18.1026 16.5231V21.7066ZM21.4459 22.9197H18.7726V14.9755C18.7726 14.8866 18.7373 14.8014 18.6745 14.7386C18.6117 14.6757 18.5265 14.6405 18.4376 14.6405H6.05883C5.96998 14.6405 5.88477 14.6757 5.82195 14.7386C5.75912 14.8014 5.72383 14.8866 5.72383 14.9755V22.9197H3.05056V8.69666L5.2914 5.045L12.2482 3.07197L19.2051 5.045L21.4459 8.69723V22.9197ZM23.8066 8.58831C23.7815 8.69265 23.736 8.79094 23.6725 8.87745C23.609 8.96397 23.5289 9.03695 23.4369 9.09214C23.2509 9.2049 23.0279 9.23966 22.8164 9.18887C22.6049 9.13807 22.422 9.00583 22.3075 8.82089L19.7077 4.58328C19.6638 4.51156 19.5945 4.45901 19.5136 4.43607L12.3397 2.40159C12.2799 2.38455 12.2165 2.38455 12.1567 2.40159L4.98282 4.43607C4.90192 4.45901 4.83262 4.51156 4.78871 4.58328L2.18856 8.82089C2.07504 9.00393 1.89396 9.13486 1.68456 9.18531C1.47517 9.23576 1.25433 9.20166 1.0699 9.09041C0.885471 8.97916 0.75231 8.79971 0.699272 8.59096C0.646235 8.38221 0.677594 8.16096 0.786553 7.97517L3.7887 3.0823L12.2482 0.683344L20.7078 3.0823L23.7099 7.97517C23.7659 8.06584 23.8033 8.16675 23.8199 8.27202C23.8365 8.37729 23.832 8.48481 23.8066 8.58831Z" fill="#4FB7E3"/>
<path d="M15.9178 6.25H8.19681C8.10797 6.25 8.02276 6.28529 7.95993 6.34812C7.89711 6.41094 7.86182 6.49615 7.86182 6.585V11.7215C7.86187 11.8104 7.89718 11.8956 7.95999 11.9584C8.0228 12.0212 8.10798 12.0565 8.19681 12.0565H15.9178C16.0066 12.0565 16.0918 12.0212 16.1546 11.9584C16.2175 11.8956 16.2528 11.8104 16.2528 11.7215V6.585C16.2528 6.49615 16.2175 6.41094 16.1547 6.34812C16.0919 6.28529 16.0067 6.25 15.9178 6.25ZM15.5828 11.3866H8.53181V6.91999H15.5828V11.3866Z" fill="#4FB7E3"/>
<path d="M9.72806 10.5252H14.3862C14.4751 10.5252 14.5602 10.4899 14.6231 10.427C14.6859 10.3642 14.7212 10.279 14.7212 10.1902V8.11649C14.7212 8.02764 14.6859 7.94244 14.6231 7.87961C14.5603 7.81679 14.4751 7.78149 14.3862 7.78149H9.72806C9.63922 7.78149 9.55401 7.81679 9.49118 7.87961C9.42836 7.94244 9.39307 8.02764 9.39307 8.11649V10.1902C9.39312 10.279 9.42843 10.3642 9.49124 10.427C9.55405 10.4899 9.63923 10.5252 9.72806 10.5252ZM10.0631 8.45149H14.0512V9.85522H10.0631V8.45149Z" fill="#4FB7E3"/>
</svg>
