<svg width="80" height="80" viewBox="0 0 80 80" fill="none" xmlns="http://www.w3.org/2000/svg">
<circle cx="40" cy="40" r="39.5" stroke="#4FB7E3" stroke-opacity="0.3" stroke-dasharray="1 1"/>
<path d="M58 43.9885L53.9395 37.5859H45.461V34H22V36.1094H43.3517V50.9453H33.4203C32.9564 49.2564 31.4084 48.0117 29.5742 48.0117C27.7401 48.0117 26.1921 49.2564 25.7285 50.9453H23.0547V53.0547H25.7285C26.1921 54.7436 27.7404 55.9883 29.5742 55.9883C31.4084 55.9883 32.9564 54.7436 33.42 53.0547H46.5797C47.0436 54.7436 48.5916 55.9883 50.4255 55.9883C52.2596 55.9883 53.8076 54.7436 54.2712 53.0547H58V43.9885ZM29.5742 53.8789C28.5382 53.8789 27.6953 53.036 27.6953 52C27.6953 50.964 28.5382 50.1211 29.5742 50.1211C30.6105 50.1211 31.4535 50.964 31.4535 52C31.4535 53.036 30.6105 53.8789 29.5742 53.8789ZM50.4258 53.8789C49.3895 53.8789 48.5465 53.036 48.5465 52C48.5465 50.964 49.3895 50.1211 50.4258 50.1211C51.4618 50.1211 52.3047 50.964 52.3047 52C52.3047 53.036 51.4618 53.8789 50.4258 53.8789ZM55.8906 50.9453H54.2715C53.8079 49.2564 52.2596 48.0117 50.4258 48.0117C48.5916 48.0117 47.0436 49.2564 46.5797 50.9453H45.4608V39.6953H52.7793L55.8906 44.601V50.9453Z" fill="#4FB7E3"/>
<path d="M22 37.5859H29.4622V39.6953H22V37.5859Z" fill="#4FB7E3"/>
<path d="M24.6758 44.5591H32.1377V46.6685H24.6758V44.5591Z" fill="#4FB7E3"/>
<path d="M23.3379 40.7612H30.7998V42.8706H23.3379V40.7612Z" fill="#4FB7E3"/>
<path d="M27.695 22.73V24.765H31.259V26.195H27.695V29H25.913V21.3H31.732V22.73H27.695ZM38.1744 29L36.6894 26.855H36.6014H35.0504V29H33.2684V21.3H36.6014C37.2834 21.3 37.8737 21.4137 38.3724 21.641C38.8784 21.8683 39.2671 22.191 39.5384 22.609C39.8097 23.027 39.9454 23.522 39.9454 24.094C39.9454 24.666 39.8061 25.161 39.5274 25.579C39.2561 25.9897 38.8674 26.305 38.3614 26.525L40.0884 29H38.1744ZM38.1414 24.094C38.1414 23.6613 38.0021 23.3313 37.7234 23.104C37.4447 22.8693 37.0377 22.752 36.5024 22.752H35.0504V25.436H36.5024C37.0377 25.436 37.4447 25.3187 37.7234 25.084C38.0021 24.8493 38.1414 24.5193 38.1414 24.094ZM47.6493 27.57V29H41.6873V21.3H47.5063V22.73H43.4583V24.402H47.0333V25.788H43.4583V27.57H47.6493ZM55.3591 27.57V29H49.3971V21.3H55.2161V22.73H51.1681V24.402H54.7431V25.788H51.1681V27.57H55.3591Z" fill="#4FB7E3"/>
</svg>
