<svg width="36" height="28" viewBox="0 0 36 28" fill="none" xmlns="http://www.w3.org/2000/svg">
<path d="M5.625 27.0022C7.70119 27.0022 9.51412 25.8677 10.4884 24.1897H20.1116C21.4729 25.9284 23.5834 27.0022 25.8722 27.0022C28.8304 27.0022 31.4893 25.2084 32.6182 22.5022H34.875H34.8756C34.9498 22.5022 35.0207 22.4865 35.0865 22.4595C35.1101 22.4499 35.1287 22.4325 35.1512 22.4201C35.1894 22.3976 35.2283 22.3768 35.2603 22.3459C35.2811 22.3262 35.2957 22.3009 35.3132 22.2773C35.3385 22.2452 35.3638 22.2148 35.3813 22.1766C35.3942 22.1484 35.3993 22.1181 35.4077 22.0871C35.4167 22.0562 35.4313 22.0286 35.4347 21.996L35.9972 16.371C35.9983 16.3609 35.9938 16.3524 35.9944 16.3423C35.9949 16.3327 36 16.3249 36 16.3147C36 16.2855 35.9882 16.2602 35.9837 16.2326C35.9775 16.1955 35.9741 16.1584 35.9618 16.1235C35.9494 16.0886 35.9291 16.0599 35.9106 16.029C35.892 15.9981 35.8751 15.9677 35.8515 15.9412C35.8273 15.9143 35.7981 15.8946 35.7694 15.8726C35.7401 15.8512 35.7131 15.8293 35.6805 15.8136C35.6473 15.7972 35.6107 15.7899 35.5742 15.7804C35.5466 15.7731 35.523 15.7584 35.4937 15.7556C35.4842 15.7551 35.4757 15.759 35.4662 15.7584C35.4561 15.7584 35.4476 15.7528 35.4375 15.7528H32.0299C30.6917 13.6642 28.3641 12.3778 25.8727 12.3778C25.2984 12.3778 24.7342 12.4498 24.1875 12.5803V7.87837C24.1875 7.84406 24.174 7.81425 24.1678 7.78163C24.1616 7.74619 24.1633 7.71131 24.1504 7.67644L21.6304 1.125H21.9358C22.2469 1.125 22.4983 0.873 22.4983 0.5625C22.4983 0.252 22.2469 0 21.9358 0H10.6875C10.3764 0 10.125 0.252 10.125 0.5625V10.719C9.55069 10.7488 8.98594 10.8152 8.43863 10.9333V6.75225C8.43863 6.44175 8.18719 6.18975 7.87612 6.18975H7.59487V4.50225C7.59487 4.19175 7.34344 3.93975 7.03237 3.93975C6.72131 3.93975 6.46987 4.19175 6.46987 4.50225V6.18975H6.18862C5.87756 6.18975 5.62612 6.44175 5.62612 6.75225V11.9683C2.27981 13.7751 0 17.3143 0 21.3772C0 24.4789 2.52338 27.0022 5.625 27.0022ZM10.9907 23.0647C11.1589 22.5321 11.25 21.9651 11.25 21.3772C11.25 19.5367 10.3568 17.9038 8.98594 16.8772H11.8125V19.6897C11.8125 20.0008 12.0639 20.2522 12.375 20.2522H16.3125V21.9397C16.3125 22.2508 16.5639 22.5022 16.875 22.5022H19.1256C19.206 22.6946 19.2926 22.8825 19.3882 23.0647H10.9907ZM16.3125 16.8772V19.1272H12.9375V16.8772H16.3125ZM34.8159 16.8772L34.3659 21.3772H19.5424C19.5401 21.3772 19.5384 21.3772 19.5367 21.3772H17.4375V16.8772H34.8159ZM23.7066 15.7522C24.3652 15.3894 25.1094 15.1897 25.875 15.1897C26.64 15.1897 27.3842 15.3894 28.0429 15.7522H23.7066ZM29.376 22.5022C28.5334 23.5564 27.2649 24.1897 25.875 24.1897C24.4851 24.1897 23.2166 23.5564 22.3734 22.5022H29.376ZM25.8727 25.8772C23.5305 25.8772 21.4099 24.5486 20.3642 22.5022H21.0178C22.0247 24.2409 23.8472 25.3147 25.875 25.3147C27.9028 25.3147 29.7253 24.2404 30.7311 22.5022H31.3813C30.3356 24.5486 28.2144 25.8772 25.8727 25.8772ZM30.6304 15.7522H29.88C28.8242 14.6807 27.3831 14.0647 25.875 14.0647C24.3658 14.0647 22.9241 14.6807 21.8694 15.7522H21.114C22.2789 14.3494 24.0199 13.5022 25.8727 13.5022C27.7251 13.5022 29.4654 14.3494 30.6304 15.7522ZM23.0625 7.98244V12.942C21.7035 13.5096 20.5273 14.4832 19.7145 15.7517H11.25V1.125H20.4244L23.0625 7.98244ZM6.75112 7.31419H7.31362V11.2438C7.1235 11.3074 6.93619 11.3766 6.75112 11.4502V7.31419ZM10.125 11.8434V13.5022H7.875C7.56394 13.5022 7.3125 13.7542 7.3125 14.0647C7.3125 14.3758 7.56394 14.6272 7.875 14.6272H10.125V15.7522H6.1875C6.14756 15.7522 6.11212 15.7669 6.07444 15.7753C5.92537 15.7635 5.77688 15.7522 5.625 15.7522C4.35769 15.7522 3.1905 16.1786 2.24887 16.8891C3.77606 14.0299 6.71344 12.0437 10.125 11.8434ZM1.14806 20.9182C1.37925 18.6519 3.2985 16.8772 5.625 16.8772C8.10619 16.8772 10.125 18.8961 10.125 21.3772C10.125 23.8584 8.10619 25.8772 5.625 25.8772C3.14381 25.8772 1.125 23.8584 1.125 21.3772C1.125 21.2226 1.14075 21.0712 1.14806 20.9182Z" fill="#4FB7E3"/>
<path d="M5.625 24.7522C7.48631 24.7522 9 23.2385 9 21.3772C9 19.5159 7.48631 18.0022 5.625 18.0022C3.76369 18.0022 2.25 19.5159 2.25 21.3772C2.25 23.2385 3.76369 24.7522 5.625 24.7522ZM5.625 19.1272C6.86588 19.1272 7.875 20.1363 7.875 21.3772C7.875 22.6181 6.86588 23.6272 5.625 23.6272C4.38412 23.6272 3.375 22.6181 3.375 21.3772C3.375 20.1363 4.38412 19.1272 5.625 19.1272Z" fill="#4FB7E3"/>
<path d="M12.375 14.6295H18.5614C18.6896 14.6295 18.8128 14.5862 18.9129 14.5058L21.7266 12.2535C21.8599 12.1466 21.9375 11.9852 21.9375 11.8142V7.9009C21.9375 7.89696 21.9375 7.89358 21.9375 7.88965V7.87783C21.9375 7.85533 21.9274 7.83677 21.9251 7.8154C21.9201 7.76871 21.9189 7.72146 21.9015 7.6759L19.737 2.05033C19.7359 2.04752 19.7331 2.04583 19.7319 2.04246C19.7145 1.99802 19.6847 1.96202 19.6566 1.9249C19.6414 1.90352 19.6307 1.87765 19.6121 1.85852C19.5879 1.83377 19.5559 1.81915 19.5278 1.7989C19.4968 1.77752 19.4692 1.75165 19.4349 1.73646C19.4136 1.7269 19.3877 1.7269 19.3646 1.72015C19.3174 1.70665 19.2701 1.69146 19.2201 1.6909C19.2172 1.6909 19.2144 1.68921 19.2116 1.68921H12.375C12.0639 1.68921 11.8125 1.94121 11.8125 2.25171V14.0665C11.8125 14.3781 12.0639 14.6295 12.375 14.6295ZM18.3639 13.5045H16.3125V2.81477H18.8257L20.8125 7.98021V11.5442L18.3639 13.5045ZM12.9375 2.81477H15.1875V13.5045H12.9375V2.81477Z" fill="#4FB7E3"/>
</svg>
