<svg width="36" height="33" viewBox="0 0 36 33" fill="none" xmlns="http://www.w3.org/2000/svg">
<path fill-rule="evenodd" clip-rule="evenodd" d="M15.6782 7.51726H10.1151V4.31429L15.6782 7.51726ZM9.11512 4.31441V7.51726H3.55226L9.11512 4.31441ZM10.9264 3.62748L17.4769 7.399V2.06317L10.9264 3.62748ZM6.44554 4.69753L2.00165 7.25613C2.03773 6.36516 2.66172 5.60113 3.53545 5.39248L6.44554 4.69753ZM20.2758 7.51726L25.8387 4.31437V7.51726H20.2758ZM26.8387 4.31433V7.51726H32.4017L26.8387 4.31433ZM33.9522 7.25607L29.5085 4.69757L32.4184 5.39248C33.2921 5.60112 33.9161 6.36513 33.9522 7.25607ZM25.0276 3.6275L18.4769 7.39908V2.06316L25.0276 3.6275ZM18.4769 9.51726H24.4441L18.4769 13.4954V9.51726ZM19.3648 14.1053L25.8387 9.78937V14.1053H19.3648ZM17.4769 9.51726V13.8222L11.2152 9.51726H17.4769ZM16.1237 14.1053L10.1151 9.97446V14.1053H16.1237ZM2 9.51726H7.97395L2 13.4999V9.51726ZM9.11512 9.95834L2.89463 14.1053H9.11512V9.95834ZM32.806 14.1053L26.8387 10.1272V14.1053H32.806ZM27.7267 9.51726L33.9539 13.6688V9.51726H27.7267ZM33.9539 16.1053V32.3357H35.9539V15.1053V7.33778C35.9539 5.48654 34.6836 3.87717 32.883 3.44718L18.906 0.109399C18.2952 -0.0364665 17.6587 -0.0364662 17.0478 0.109399L3.0709 3.44718C1.2703 3.87717 0 5.48654 0 7.33778V15.1053V32.3357H2V16.1053H33.9539Z" fill="white"/>
</svg>
