<svg width="50" height="50" viewBox="0 0 50 50" fill="none" xmlns="http://www.w3.org/2000/svg">
<path fill-rule="evenodd" clip-rule="evenodd" d="M31.7988 26.7078C32.4848 27.3489 33.2089 27.952 33.8242 28.6578C34.096 28.9714 34.3533 29.295 34.5501 29.6589C34.8291 30.1763 34.5764 30.7457 34.0917 30.7766L31.0789 30.7753C30.3018 30.837 29.6819 30.5375 29.1607 30.029C28.7436 29.6223 28.3573 29.1895 27.9562 28.7691C27.7918 28.5973 27.6196 28.4356 27.414 28.3078C27.0027 28.0522 26.6457 28.1305 26.4107 28.5411C26.1713 28.9587 26.117 29.4211 26.0935 29.8865C26.0612 30.5656 25.8468 30.7441 25.1341 30.7752C23.6111 30.8439 22.1657 30.6234 20.823 29.888C19.6392 29.2397 18.7212 28.3245 17.9222 27.2884C16.3665 25.2708 15.1752 23.0539 14.1044 20.7748C13.8634 20.2614 14.0397 19.9857 14.6316 19.976C15.6145 19.9577 16.5972 19.959 17.5812 19.9747C17.9807 19.9803 18.2452 20.1996 18.3994 20.5608C18.9312 21.8123 19.5819 23.003 20.3986 24.1067C20.6161 24.4006 20.8379 24.6944 21.1537 24.9012C21.5031 25.1302 21.7691 25.0543 21.9335 24.6818C22.0378 24.4456 22.0835 24.1911 22.107 23.9381C22.1848 23.0677 22.1951 22.1988 22.0585 21.3315C21.9747 20.7902 21.6561 20.4398 21.0918 20.3373C20.8038 20.2851 20.8467 20.1825 20.9861 20.0252C21.2283 19.7539 21.4561 19.585 21.9101 19.585H25.3151C25.8511 19.6862 25.9702 19.9167 26.0436 20.433L26.0465 24.0532C26.0406 24.2531 26.1508 24.8461 26.5269 24.9784C26.8279 25.0726 27.0263 24.8421 27.2069 24.6594C28.0222 23.8312 28.604 22.8525 29.1238 21.839C29.3545 21.3933 29.5528 20.9305 29.7451 20.4681C29.8875 20.125 30.111 19.9561 30.5148 19.9636L33.7919 19.9664C33.8891 19.9664 33.9874 19.9678 34.0815 19.9832C34.6337 20.0733 34.785 20.3006 34.6145 20.8168C34.3457 21.6266 33.8229 22.3014 33.3116 22.9794C32.7651 23.7032 32.1806 24.4022 31.6387 25.1303C31.1407 25.7952 31.1803 26.1303 31.7988 26.7078Z" fill="#4FB7E3"/>
<circle cx="25" cy="25" r="24.5" stroke="#4FB7E3" stroke-opacity="0.3" stroke-dasharray="1 1"/>
</svg>
