<svg width="47" height="47" viewBox="0 0 47 47" fill="none" xmlns="http://www.w3.org/2000/svg">
<path fill-rule="evenodd" clip-rule="evenodd" d="M29.9091 27.956L25.1395 7.16492C23.9312 1.79123 22.723 2.36698 16.2363 0C17.4447 1.47137 18.1442 4.4141 18.7165 7.10094L23.0409 25.9089L29.9091 27.956Z" fill="#595A63"/>
<path fill-rule="evenodd" clip-rule="evenodd" d="M38.455 31.5629L34.0619 10.9055C32.9184 5.43157 31.775 6.01805 25.6367 3.60693C26.7801 5.10574 27.382 8.10334 27.9837 10.8403L31.9556 29.4776L38.455 31.5629Z" fill="#595A63"/>
<path fill-rule="evenodd" clip-rule="evenodd" d="M18.9552 19.8398L4.36322 34.5626C0.595628 38.3725 1.61228 39.0827 2.74854 45.9922C3.40638 44.1841 5.43969 42.1178 7.35342 40.2451L20.5101 26.9429L18.9552 19.8398Z" fill="#595A63"/>
<path fill-rule="evenodd" clip-rule="evenodd" d="M17.215 9.91992L2.70489 24.4708C-1.13602 28.3379 -0.0995812 29.0589 1.05879 36.0723C1.72942 34.237 3.80229 32.1396 5.75323 30.2388L18.8001 17.1299L17.215 9.91992Z" fill="#595A63"/>
<path fill-rule="evenodd" clip-rule="evenodd" d="M17.0898 33.6915L36.7427 39.925C41.8402 41.5152 41.8402 40.243 46.9991 35.7906C45.1566 36.045 42.3929 35.2181 39.9364 34.3912L22.1259 28.8574L17.0898 33.6915Z" fill="#595A63"/>
<path fill-rule="evenodd" clip-rule="evenodd" d="M10.2568 40.1224L29.1606 46.2313C34.2057 47.8389 34.2057 46.5529 39.3116 42.0515C37.488 42.3087 34.7528 41.4728 32.3214 40.6368L15.2411 35.1709L10.2568 40.1224Z" fill="#595A63"/>
</svg>
