<svg width="50" height="50" viewBox="0 0 50 50" fill="none" xmlns="http://www.w3.org/2000/svg">
<path d="M25.1862 17C20.6723 17 17 20.6723 17 25.1862C17 29.6997 20.6723 33.3723 25.1862 33.3723C29.6997 33.3723 33.3723 29.6997 33.3723 25.1862C33.3723 20.6723 29.7003 17 25.1862 17ZM27.222 25.4744H25.8902C25.8902 27.6022 25.8902 30.2213 25.8902 30.2213H23.9167C23.9167 30.2213 23.9167 27.6276 23.9167 25.4744H22.9785V23.7966H23.9167V22.7115C23.9167 21.9343 24.286 20.7198 25.9083 20.7198L27.3707 20.7254V22.354C27.3707 22.354 26.4821 22.354 26.3093 22.354C26.1365 22.354 25.8908 22.4404 25.8908 22.811V23.797H27.3945L27.222 25.4744Z" fill="#4FB7E3"/>
<circle cx="25" cy="25" r="24.5" stroke="#4FB7E3" stroke-opacity="0.3" stroke-dasharray="1 1"/>
</svg>
