<svg width="39" height="39" viewBox="0 0 39 39" fill="none" xmlns="http://www.w3.org/2000/svg">
<path fill-rule="evenodd" clip-rule="evenodd" d="M24.3037 22.7167L20.428 5.82213C19.4461 1.45553 18.4643 1.92338 13.1934 0C14.1752 1.19562 14.7437 3.58685 15.2087 5.77015L18.7227 21.0533L24.3037 22.7167Z" fill="white"/>
<path fill-rule="evenodd" clip-rule="evenodd" d="M31.248 25.648L27.6783 8.86203C26.7491 4.41397 25.82 4.89054 20.832 2.93129C21.7611 4.14921 22.2502 6.58503 22.7392 8.80904L25.9667 23.9536L31.248 25.648Z" fill="white"/>
<path fill-rule="evenodd" clip-rule="evenodd" d="M15.403 16.1216L3.54566 28.0852C0.484154 31.181 1.31027 31.7582 2.23359 37.3727C2.76814 35.9035 4.42038 34.2244 5.97546 32.7027L16.6664 21.8935L15.403 16.1216Z" fill="white"/>
<path fill-rule="evenodd" clip-rule="evenodd" d="M13.9887 8.06073L2.19797 19.8846C-0.923114 23.027 -0.0809186 23.6129 0.86036 29.3119C1.40531 27.8205 3.0897 26.1162 4.67501 24.5716L15.2768 13.9194L13.9887 8.06073Z" fill="white"/>
<path fill-rule="evenodd" clip-rule="evenodd" d="M13.8877 27.3777L29.8574 32.4429C33.9996 33.7351 33.9996 32.7013 38.1917 29.0833C36.6945 29.2901 34.4487 28.6182 32.4525 27.9462L17.9799 23.4495L13.8877 27.3777Z" fill="white"/>
<path fill-rule="evenodd" clip-rule="evenodd" d="M8.33496 32.6025L23.696 37.5666C27.7956 38.8729 27.7956 37.8279 31.9445 34.1701C30.4628 34.3791 28.2401 33.6999 26.2644 33.0206L12.3851 28.579L8.33496 32.6025Z" fill="white"/>
</svg>
