<svg width="50" height="50" viewBox="0 0 50 50" fill="none" xmlns="http://www.w3.org/2000/svg">
<path d="M29.3727 17H23.1694C20.3149 17 18 19.2858 18 22.1045V28.23C18 31.0487 20.3149 33.3345 23.1694 33.3345H29.3727C32.2272 33.3345 34.5421 31.0487 34.5421 28.23V22.1045C34.5421 19.2858 32.2272 17 29.3727 17ZM32.9913 28.23C32.9913 30.2003 31.3681 31.8032 29.3727 31.8032H23.1694C21.174 31.8032 19.5508 30.2003 19.5508 28.23V22.1045C19.5508 20.1342 21.174 18.5314 23.1694 18.5314H29.3727C31.3681 18.5314 32.9913 20.1342 32.9913 22.1045V28.23Z" fill="#4FB7E3"/>
<path d="M26.2713 21.084C23.9874 21.084 22.1357 22.9124 22.1357 25.1676C22.1357 27.4228 23.9874 29.2512 26.2713 29.2512C28.5551 29.2512 30.4068 27.4228 30.4068 25.1676C30.4068 22.9124 28.5551 21.084 26.2713 21.084ZM26.2713 27.7199C24.8466 27.7199 23.6866 26.5744 23.6866 25.1676C23.6866 23.7598 24.8466 22.6153 26.2713 22.6153C27.696 22.6153 28.856 23.7598 28.856 25.1676C28.856 26.5744 27.696 27.7199 26.2713 27.7199Z" fill="#4FB7E3"/>
<path d="M30.7171 21.3213C31.0214 21.3213 31.2681 21.0777 31.2681 20.7771C31.2681 20.4766 31.0214 20.2329 30.7171 20.2329C30.4127 20.2329 30.166 20.4766 30.166 20.7771C30.166 21.0777 30.4127 21.3213 30.7171 21.3213Z" fill="#4FB7E3"/>
<circle cx="25" cy="25" r="24.5" stroke="#4FB7E3" stroke-opacity="0.3" stroke-dasharray="1 1"/>
</svg>
